<?xml version="1.0" encoding="UTF-8" standalone="no"?>
<svg
   xmlns:dc="http://purl.org/dc/elements/1.1/"
   xmlns:cc="http://creativecommons.org/ns#"
   xmlns:rdf="http://www.w3.org/1999/02/22-rdf-syntax-ns#"
   xmlns:svg="http://www.w3.org/2000/svg"
   xmlns="http://www.w3.org/2000/svg"
   xmlns:sodipodi="http://sodipodi.sourceforge.net/DTD/sodipodi-0.dtd"
   xmlns:inkscape="http://www.inkscape.org/namespaces/inkscape"
   version="1.1"
   id="svg6873"
   viewBox="0 0 724.79578 158.63709"
   height="158.63708"
   width="724.79578"
   inkscape:version="0.48.4 r9939"
   sodipodi:docname="logo_schmidt_devops.svg">
  <sodipodi:namedview
     pagecolor="#ffffff"
     bordercolor="#666666"
     borderopacity="1"
     objecttolerance="10"
     gridtolerance="10"
     guidetolerance="10"
     inkscape:pageopacity="0"
     inkscape:pageshadow="2"
     inkscape:window-width="2048"
     inkscape:window-height="1097"
     id="namedview18370"
     showgrid="false"
     inkscape:zoom="0.51283787"
     inkscape:cx="110.44894"
     inkscape:cy="-383.9146"
     inkscape:window-x="-2"
     inkscape:window-y="-3"
     inkscape:window-maximized="1"
     inkscape:current-layer="svg6873"
     fit-margin-top="0"
     fit-margin-left="0"
     fit-margin-right="0"
     fit-margin-bottom="0" />
  <defs
     id="defs6875">
    <pattern
       id="EMFhbasepattern"
       patternUnits="userSpaceOnUse"
       width="6"
       height="6"
       x="0"
       y="0" />
    <pattern
       id="EMFhbasepattern-3"
       patternUnits="userSpaceOnUse"
       width="6"
       height="6"
       x="0"
       y="0" />
  </defs>
  <metadata
     id="metadata6878">
    <rdf:RDF>
      <cc:Work
         rdf:about="">
        <dc:format>image/svg+xml</dc:format>
        <dc:type
           rdf:resource="http://purl.org/dc/dcmitype/StillImage" />
        <dc:title />
      </cc:Work>
    </rdf:RDF>
  </metadata>
  <g
     id="g19115"
     transform="matrix(1.207993,0,0,1.207993,876.97828,-208.11009)">
    <g
       id="g19081"
       transform="matrix(3.7243253,0,0,3.7243253,1977.8048,-1851.3287)">
      <g
         transform="scale(0.93132824,1.0737353)"
         style="font-size:22.73340988px;font-style:normal;font-variant:normal;font-weight:bold;font-stretch:normal;line-height:125%;letter-spacing:1.56816459px;word-spacing:-0.00304393px;fill:#A3D963;fill-opacity:1;stroke:none;font-family:MicroExtendFLF;-inkscape-font-specification:MicroExtendFLF Bold"
         id="text19083">
        <path
           d="m -742.29559,506.03582 c -1.01543,10e-6 -1.88688,0.0834 -2.61434,0.25007 -0.71232,0.15157 -1.29581,0.40921 -1.75047,0.77293 -0.45467,0.36375 -0.7881,0.84115 -1.00027,1.43221 -0.21218,0.57592 -0.31827,1.28066 -0.31827,2.1142 0,0.98513 0.0985,1.76564 0.29553,2.34155 0.21218,0.56076 0.55318,0.9927 1.02301,1.2958 0.46982,0.28796 1.06846,0.48499 1.79594,0.59107 0.74262,0.10609 1.65195,0.18187 2.72801,0.22733 l 6.04708,0.25007 c 0.54559,0.0303 0.9851,0.0834 1.31854,0.15913 0.34856,0.0758 0.61379,0.18946 0.79567,0.341 0.19701,0.13641 0.33341,0.3107 0.4092,0.52287 0.0758,0.19703 0.11365,0.43952 0.11367,0.72747 -2e-5,0.63654 -0.20462,1.0609 -0.6138,1.27307 -0.40922,0.21219 -1.0306,0.31827 -1.86414,0.31827 l -6.31989,0 c -0.53045,0 -0.96997,-0.12124 -1.31854,-0.36373 -0.34858,-0.24249 -0.52287,-0.56076 -0.52287,-0.95481 l -3.86468,0 c 0,0.75779 0.0834,1.41706 0.25007,1.97781 0.18187,0.56076 0.4774,1.03058 0.8866,1.40947 0.42436,0.36374 0.97754,0.63654 1.65954,0.8184 0.682,0.18187 1.52314,0.27281 2.52341,0.27281 l 7.82029,0 c 0.9851,0 1.81866,-0.0909 2.50068,-0.27281 0.68198,-0.18186 1.22758,-0.46982 1.6368,-0.86387 0.42434,-0.39404 0.72745,-0.8866 0.90934,-1.47767 0.18185,-0.60622 0.27278,-1.33369 0.2728,-2.1824 -2e-5,-1.04574 -0.11369,-1.87172 -0.341,-2.47795 -0.22735,-0.60621 -0.56835,-1.06846 -1.023,-1.38673 -0.43953,-0.33342 -1.00029,-0.55317 -1.68228,-0.65927 -0.66686,-0.12124 -1.44737,-0.19702 -2.34154,-0.22734 l -6.97915,-0.2728 c -0.27281,-0.0151 -0.52288,-0.0303 -0.75021,-0.0455 -0.22734,-0.0303 -0.42436,-0.0833 -0.59106,-0.15914 -0.15157,-0.0909 -0.27281,-0.21974 -0.36374,-0.38647 -0.0909,-0.18185 -0.13641,-0.43192 -0.1364,-0.7502 -10e-6,-0.60621 0.17428,-1.00026 0.52287,-1.18214 0.34857,-0.19701 0.78808,-0.29552 1.31854,-0.29553 l 6.34262,0 c 0.39403,10e-6 0.7123,0.0228 0.9548,0.0682 0.25763,0.0455 0.45465,0.12126 0.59107,0.22733 0.15154,0.10611 0.25005,0.24251 0.29553,0.4092 0.0606,0.16673 0.0909,0.37133 0.0909,0.61381 l 4.06928,0 c -2e-5,-1.51555 -0.47742,-2.63706 -1.43221,-3.36455 -0.95482,-0.72745 -2.42491,-1.09119 -4.41028,-1.0912 l -6.93369,0"
           style="fill:#A3D963;font-family:MicroExtendFLF;-inkscape-font-specification:MicroExtendFLF Bold"
           id="path3035"
           inkscape:connector-curvature="0" />
        <path
           d="m -718.59681,521.83554 3.45548,0 c 1.68226,0 3.03869,-0.0909 4.06928,-0.2728 1.03057,-0.18187 1.81866,-0.48498 2.36428,-0.90934 0.56074,-0.42435 0.92447,-0.98511 1.0912,-1.68227 0.18185,-0.71231 0.27278,-1.59134 0.2728,-2.63708 l -3.91014,0 c -2e-5,0.43952 -0.0531,0.79568 -0.15914,1.06847 -0.091,0.27281 -0.28039,0.48499 -0.56833,0.63654 -0.28797,0.15156 -0.69717,0.25007 -1.22761,0.29553 -0.5153,0.0455 -1.18972,0.0682 -2.02327,0.0682 l -3.09174,0 c -0.81841,10e-6 -1.47768,-0.0379 -1.97781,-0.11366 -0.50014,-0.0758 -0.88661,-0.23491 -1.1594,-0.4774 -0.27281,-0.25765 -0.45468,-0.6138 -0.54561,-1.06848 -0.0909,-0.45466 -0.1364,-1.06846 -0.1364,-1.8414 l 0,-1.72774 c 0,-0.83355 0.0455,-1.49282 0.1364,-1.97781 0.0909,-0.48497 0.2728,-0.8487 0.54561,-1.0912 0.28795,-0.24248 0.68957,-0.39403 1.20487,-0.45467 0.53044,-0.0758 1.22001,-0.11365 2.06874,-0.11367 l 2.90987,0 c 0.89417,2e-5 1.60648,0.0379 2.13694,0.11367 0.53044,0.0758 0.93206,0.19704 1.20487,0.36374 0.27279,0.15156 0.44708,0.34859 0.52287,0.59106 0.0909,0.22735 0.13639,0.49257 0.1364,0.79567 l 3.91015,0 c -2e-5,-1.10634 -0.11369,-2.0081 -0.341,-2.70527 -0.22735,-0.69715 -0.62898,-1.24275 -1.20487,-1.63681 -0.57593,-0.39403 -1.36402,-0.65925 -2.36428,-0.79567 -1.00028,-0.15154 -2.27335,-0.22732 -3.81921,-0.22733 l -3.36454,0 c -1.47011,10e-6 -2.69013,0.091 -3.66008,0.2728 -0.95481,0.16673 -1.72017,0.50773 -2.29608,1.023 -0.56076,0.50015 -0.96238,1.22004 -1.20487,2.15968 -0.22733,0.93966 -0.341,2.18241 -0.341,3.72828 l 0,2.00054 c 0,1.30338 0.11367,2.38701 0.341,3.25087 0.22733,0.84872 0.6138,1.52314 1.15941,2.02328 0.56075,0.50013 1.31095,0.84871 2.2506,1.04573 0.9548,0.19703 2.15967,0.29554 3.61461,0.29554"
           style="fill:#A3D963;font-family:MicroExtendFLF;-inkscape-font-specification:MicroExtendFLF Bold"
           id="path3037"
           inkscape:connector-curvature="0" />
        <path
           d="m -703.49871,506.03582 0,15.77699 3.79648,0 0,-6.56996 9.7299,0 0,6.56996 3.77374,0 0,-15.77699 -3.77374,0 0,6.04709 -9.7299,0 0,-6.04709 -3.79648,0"
           style="fill:#A3D963;font-family:MicroExtendFLF;-inkscape-font-specification:MicroExtendFLF Bold"
           id="path3039"
           inkscape:connector-curvature="0" />
        <path
           d="m -681.89602,506.03582 0,15.77699 3.77374,0 0,-11.59404 6.52449,11.59404 4.09202,0 6.54722,-11.59404 0,11.59404 3.79648,0 0,-15.77699 -5.66062,0 -6.72909,11.61677 -6.50176,-11.61677 -5.84248,0"
           style="fill:#A3D963;font-family:MicroExtendFLF;-inkscape-font-specification:MicroExtendFLF Bold"
           id="path3041"
           inkscape:connector-curvature="0" />
        <path
           d="m -652.27944,521.81281 3.77374,0 0,-15.77699 -3.77374,0 0,15.77699"
           style="fill:#A3D963;font-family:MicroExtendFLF;-inkscape-font-specification:MicroExtendFLF Bold"
           id="path3043"
           inkscape:connector-curvature="0" />
        <path
           d="m -633.29464,518.67559 -6.77456,0 0,-9.50256 6.77456,0 c 0.68198,1e-5 1.24274,0.0606 1.68227,0.18187 0.4395,0.12125 0.78807,0.31828 1.04573,0.59107 0.27279,0.25765 0.45466,0.60623 0.54561,1.04573 0.10607,0.42437 0.15911,0.93966 0.15913,1.54587 l 0,2.63708 c -2e-5,0.68201 -0.0455,1.25034 -0.1364,1.70501 -0.091,0.43951 -0.26524,0.79567 -0.52287,1.06847 -0.25766,0.25764 -0.61382,0.44709 -1.06847,0.56833 -0.43952,0.10609 -1.00786,0.15914 -1.705,0.15913 m 0.59106,-12.63977 -11.1621,0 0,15.79972 11.48037,0 c 1.19728,0 2.19755,-0.0985 3.00081,-0.29554 0.81839,-0.21217 1.47008,-0.56075 1.95507,-1.04573 0.48497,-0.50014 0.82597,-1.16698 1.02301,-2.00054 0.21216,-0.83356 0.31825,-1.87929 0.31827,-3.13721 l 0,-3.04628 c -2e-5,-1.16697 -0.11369,-2.15208 -0.34101,-2.95534 -0.22735,-0.80324 -0.60624,-1.44735 -1.13667,-1.93234 -0.5153,-0.50012 -1.19731,-0.85628 -2.046,-1.06847 -0.83358,-0.21217 -1.86416,-0.31826 -3.09175,-0.31827"
           style="fill:#A3D963;font-family:MicroExtendFLF;-inkscape-font-specification:MicroExtendFLF Bold"
           id="path3045"
           inkscape:connector-curvature="0" />
        <path
           d="m -606.52827,506.03582 -17.05006,0 0,3.20541 6.63816,0 0,12.57158 3.77374,0 0,-12.57158 6.63816,0 0,-3.20541"
           style="fill:#A3D963;font-family:MicroExtendFLF;-inkscape-font-specification:MicroExtendFLF Bold"
           id="path3047"
           inkscape:connector-curvature="0" />
      </g>
      <g
         id="g19087"
         transform="matrix(0.09951284,0,0,0.09876638,-875.66059,246.26801)">
        <g
           style="font-size:199.61917114px;font-style:normal;font-variant:normal;font-weight:bold;font-stretch:normal;line-height:125%;letter-spacing:62px;word-spacing:-0.02672834px;fill:#151515;fill-opacity:1;stroke:none;font-family:MicroExtendFLF;-inkscape-font-specification:MicroExtendFLF Bold"
           id="text19089">
          <path
             d="m 1892.0575,3336.9762 -59.4865,0 0,-83.4408 59.4865,0 c 5.9885,10e-5 10.9124,0.5325 14.7719,1.597 3.8591,1.0647 6.92,2.7948 9.1824,5.1901 2.3953,2.2624 3.9923,5.3233 4.7909,9.1825 0.9314,3.7263 1.3972,8.251 1.3973,13.5741 l 0,23.1558 c -10e-5,5.9886 -0.3993,10.9791 -1.1977,14.9714 -0.7986,3.8594 -2.329,6.9867 -4.5912,9.3821 -2.2625,2.2624 -5.3899,3.9259 -9.3821,4.9905 -3.8594,0.9316 -8.8499,1.3974 -14.9715,1.3973 m 5.1901,-110.9882 -98.013,0 0,138.7353 100.8077,0 c 10.5132,0 19.2964,-0.865 26.3497,-2.595 7.1862,-1.8632 12.9086,-4.924 17.1673,-9.1825 4.2584,-4.3916 7.2527,-10.2471 8.9829,-17.5665 1.8629,-7.3194 2.7945,-16.5018 2.7946,-27.5475 l 0,-26.7489 c -10e-5,-10.2471 -0.9982,-18.8972 -2.9943,-25.9505 -1.9963,-7.0531 -5.3233,-12.709 -9.9809,-16.9677 -4.5249,-4.3914 -10.5134,-7.5188 -17.9657,-9.3821 -7.3195,-1.8629 -16.3689,-2.7945 -27.1483,-2.7946"
             style="letter-spacing:61px;fill:#151515;font-family:MicroExtendFLF;-inkscape-font-specification:MicroExtendFLF Bold"
             id="path3021"
             inkscape:connector-curvature="0" />
          <path
             d="m 2034.9342,3225.988 0,138.5357 141.7296,0 0,-27.7471 -108.5929,0 0,-29.9429 105.1994,0 0,-27.747 -105.1994,0 0,-25.5513 108.5929,0 0,-27.5474 -141.7296,0"
             style="letter-spacing:61px;fill:#151515;font-family:MicroExtendFLF;-inkscape-font-specification:MicroExtendFLF Bold"
             id="path3023"
             inkscape:connector-curvature="0" />
          <path
             d="m 2290.3554,3225.988 -38.3268,0 69.0682,138.5357 52.6995,0 69.0682,-138.5357 -37.9277,0 -57.2907,114.5814 -57.2907,-114.5814"
             style="letter-spacing:61px;fill:#151515;font-family:MicroExtendFLF;-inkscape-font-specification:MicroExtendFLF Bold"
             id="path3025"
             inkscape:connector-curvature="0" />
        </g>
        <g
           style="font-size:199.61917114px;font-style:normal;font-variant:normal;font-weight:bold;font-stretch:normal;line-height:125%;letter-spacing:62px;word-spacing:-0.02672834px;fill:#A3D963;fill-opacity:1;stroke:none;font-family:MicroExtendFLF;-inkscape-font-specification:MicroExtendFLF Bold"
           id="text19093">
          <path
             d="m 2590.2779,3257.1285 c 8.3839,1e-4 15.0379,0.3993 19.9619,1.1977 5.0569,0.6655 8.9162,2.1959 11.578,4.5913 2.6614,2.2624 4.3914,5.5228 5.1901,9.7813 0.9314,4.2586 1.3971,9.848 1.3973,16.768 l 0,14.3726 c -2e-4,6.654 -0.4659,11.9772 -1.3973,15.9695 -0.7987,3.9924 -2.5287,7.1198 -5.1901,9.3821 -2.6618,2.1293 -6.4545,3.5267 -11.3783,4.192 -4.9241,0.6655 -11.445,0.9981 -19.5627,0.9981 l -26.3497,0 c -7.5856,0 -13.6408,-0.3992 -18.1654,-1.1977 -4.5247,-0.7984 -7.9848,-2.2623 -10.3802,-4.3916 -2.3955,-2.2623 -3.9924,-5.3232 -4.7908,-9.1825 -0.7986,-3.8593 -1.1978,-8.9163 -1.1978,-15.1711 l 0,-14.3725 c 0,-6.9201 0.3992,-12.5094 1.1978,-16.768 0.7984,-4.2585 2.3953,-7.5855 4.7908,-9.981 2.5285,-2.3953 6.1216,-3.9923 10.7794,-4.7909 4.7908,-0.9314 11.1121,-1.3972 18.9639,-1.3973 l 24.5531,0 m 1.1977,107.7944 c 14.3725,0 26.0835,-0.6654 35.133,-1.9962 9.1823,-1.4639 16.3686,-4.2586 21.5589,-8.384 5.1899,-4.2586 8.7165,-10.2471 10.5798,-17.9658 1.996,-7.8516 2.9941,-18.1653 2.9943,-30.9409 l 0,-16.7681 c -2e-4,-12.5093 -0.9983,-22.823 -2.9943,-30.9409 -1.8633,-8.2508 -5.3899,-14.7052 -10.5798,-19.3631 -5.0572,-4.7907 -12.1104,-8.1177 -21.1596,-9.9809 -9.0496,-1.863 -20.694,-2.7946 -34.9334,-2.7947 l -29.344,0 c -13.5742,10e-5 -24.6863,0.9317 -33.3364,2.7947 -8.6502,1.7301 -15.4373,4.9906 -20.3612,9.7813 -4.7909,4.6579 -8.1178,11.1122 -9.9809,19.3631 -1.7301,8.251 -2.5951,18.8308 -2.5951,31.7394 l 0,16.768 c 0,11.9772 0.9316,21.7585 2.7947,29.344 1.8631,7.5856 5.1901,13.5742 9.9809,17.9658 4.924,4.3916 11.6445,7.3859 20.1616,8.9828 8.517,1.597 19.4295,2.3955 32.7375,2.3955 l 29.344,0"
             style="letter-spacing:61px;fill:#A3D963;font-family:MicroExtendFLF;-inkscape-font-specification:MicroExtendFLF Bold"
             id="path3028"
             inkscape:connector-curvature="0" />
          <path
             d="m 2835.5295,3226.3871 -92.4236,0 0,138.5358 33.1367,0 0,-41.1216 61.4827,0 c 8.9163,0 16.4352,-0.7319 22.557,-2.1958 6.2546,-1.5969 11.2451,-4.1254 14.9715,-7.5855 3.8591,-3.46 6.5872,-7.9182 8.1843,-13.3745 1.7299,-5.5893 2.5949,-12.3763 2.5951,-20.3612 l 0,-9.5817 c -2e-4,-7.9847 -0.9317,-14.7717 -2.7947,-20.3612 -1.8632,-5.7222 -4.8575,-10.3135 -8.9828,-13.7737 -4.1256,-3.593 -9.3823,-6.188 -15.77,-7.7851 -6.3879,-1.5968 -14.04,-2.3953 -22.9562,-2.3955 m 17.3669,50.3041 c -1e-4,5.1902 -1.1978,8.8498 -3.5931,10.979 -2.2625,1.9963 -6.3214,2.9944 -12.1768,2.9943 l -60.8839,0 0,-31.1406 60.0854,0 c 6.2546,10e-5 10.5797,1.0648 12.9753,3.1939 2.3953,1.9963 3.593,5.7225 3.5931,11.1787 l 0,2.7947"
             style="letter-spacing:61px;fill:#A3D963;font-family:MicroExtendFLF;-inkscape-font-specification:MicroExtendFLF Bold"
             id="path3030"
             inkscape:connector-curvature="0" />
          <path
             d="m 3010.668,3226.3871 c -8.9163,2e-4 -16.5684,0.7321 -22.9562,2.1959 -6.2547,1.3309 -11.3783,3.5932 -15.3706,6.787 -3.9924,3.194 -6.9202,7.386 -8.7833,12.576 -1.8631,5.0571 -2.7947,11.2453 -2.7947,18.5646 0,8.6503 0.8651,15.5038 2.5951,20.5608 1.8631,4.924 4.8574,8.7167 8.9829,11.3783 4.1254,2.5285 9.382,4.2586 15.7699,5.1901 6.5208,0.9316 14.5056,1.597 23.9543,1.9962 l 53.0987,2.1958 c 4.7907,0.2662 8.65,0.732 11.5779,1.3973 3.0607,0.6655 5.3896,1.6635 6.9867,2.9943 1.7299,1.1978 2.9276,2.7282 3.5931,4.5912 0.6653,1.7301 0.998,3.8594 0.9981,6.3878 -10e-5,5.5894 -1.7967,9.3156 -5.3897,11.1787 -3.5933,1.8632 -9.0495,2.7947 -16.3688,2.7947 l -55.4941,0 c -4.6579,0 -8.5172,-1.0646 -11.5779,-3.1939 -3.0609,-2.1293 -4.5913,-4.9239 -4.5913,-8.384 l -33.9352,0 c 0,6.654 0.7319,12.4429 2.1958,17.3668 1.5969,4.924 4.192,9.0495 7.7851,12.3764 3.7262,3.1939 8.5836,5.5894 14.5722,7.1863 5.9886,1.597 13.3745,2.3955 22.1577,2.3955 l 68.669,0 c 8.6501,0 15.9694,-0.7985 21.9582,-2.3955 5.9884,-1.5969 10.7792,-4.1254 14.3725,-7.5855 3.7261,-3.4601 6.3877,-7.7851 7.9848,-12.9753 1.5968,-5.3231 2.3953,-11.7109 2.3954,-19.1634 -1e-4,-9.1824 -0.9982,-16.4352 -2.9943,-21.7585 -1.9963,-5.3231 -4.9906,-9.382 -8.9828,-12.1768 -3.8595,-2.9276 -8.7834,-4.8573 -14.7718,-5.7889 -5.8557,-1.0646 -12.7093,-1.73 -20.5608,-1.9962 l -61.2831,-2.3954 c -2.3955,-0.133 -4.5913,-0.2661 -6.5874,-0.3993 -1.9963,-0.266 -3.7263,-0.7318 -5.1901,-1.3973 -1.3309,-0.7984 -2.3955,-1.9296 -3.1939,-3.3935 -0.7986,-1.5969 -1.1978,-3.7927 -1.1978,-6.5875 0,-5.323 1.5304,-8.7831 4.5913,-10.3802 3.0608,-1.7299 6.9201,-2.5949 11.5779,-2.595 l 55.6937,0 c 3.46,10e-5 6.2547,0.1997 8.3841,0.5988 2.2622,0.3994 3.9922,1.0648 5.1901,1.9962 1.3306,0.9317 2.1956,2.1294 2.595,3.5932 0.5322,1.464 0.7983,3.2605 0.7985,5.3897 l 35.7318,0 c -2e-4,-13.3078 -4.1922,-23.1557 -12.576,-29.5436 -8.3842,-6.3877 -21.2928,-9.5816 -38.7261,-9.5818 l -60.8839,0"
             style="letter-spacing:61px;fill:#A3D963;font-family:MicroExtendFLF;-inkscape-font-specification:MicroExtendFLF Bold"
             id="path3032"
             inkscape:connector-curvature="0" />
        </g>
      </g>
      <g
         id="g19097"
         transform="translate(-866.68365,456.67594)">
        <g
           transform="matrix(0.14365302,0,0,0.14365302,327.44111,46.121769)"
           id="g19099">
          <path
             inkscape:connector-curvature="0"
             d="m -1199.2216,480.50429 c 1.8192,0 3.2935,-1.62759 3.2935,-3.62825 l 0,-3.43662 c 0,-2.00065 -1.4743,-3.62826 -3.2935,-3.62826 l -51.2886,0 c -1.8218,0 -3.2987,1.62761 -3.2987,3.62826 l 0,3.43662 c 0,2.00066 1.4769,3.62825 3.2987,3.62825 l 51.2886,0 z"
             id="path19101"
             style="fill:#000000" />
          <path
             inkscape:connector-curvature="0"
             d="m -1199.2216,511.77117 c 1.8192,0 3.2935,-1.62761 3.2935,-3.63082 l 0,-3.43407 c 0,-2.00575 -1.4743,-3.63336 -3.2935,-3.63336 l -51.2886,0 c -1.8218,0 -3.2987,1.62761 -3.2987,3.63336 l 0,3.43407 c 0,2.00321 1.4769,3.63082 3.2987,3.63082 l 51.2886,0 z"
             id="path19103"
             style="fill:#000000" />
          <path
             inkscape:connector-curvature="0"
             d="m -1207.9664,517.2391 c -3.0968,6.17314 -9.4846,10.50149 -16.8586,10.50149 -7.3307,0 -13.8232,-4.39223 -16.9455,-10.49895 l 33.8041,0 z"
             id="path19105"
             style="fill:#000000" />
          <path
             id="path19107"
             d="m -1169.4563,410.3086 c -3.6266,4.03611 -7.3156,8.07165 -12.0195,10.61133 -5.8753,0.4095 -9.8132,-5.79164 -14.5469,-8.33008 -2.7682,-4.26674 -6.4652,-0.53755 -9.959,0.4043 -0.9542,5.57291 -1.5646,11.2108 -2.789,16.73438 -0.5082,4.84918 -5.9608,4.8141 -9.6289,4.57226 -6.9847,-0.59789 -14.7451,1.54259 -21.295,-1.3457 -3.7853,-5.78845 -2.7177,-13.55424 -4.2988,-20.10156 -3.4196,-0.72195 -7.2177,-4.9334 -9.8769,-0.4004 -4.7201,2.49122 -8.6293,9.22589 -14.6153,8.37696 -3.92,-2.20419 -7.2978,-5.2283 -10.457,-8.50196 9.2234,14.46177 17.7647,28.27442 19.8262,45.02149 0.4548,3.68316 3.5726,6.44727 7.2734,6.44727 l 55.0918,0 c 3.6875,0 6.8163,-2.76436 7.2754,-6.42969 2.1665,-17.60601 10.6993,-32.05643 20.0195,-47.0586 z"
             style="fill:#000000"
             inkscape:connector-curvature="0" />
          <path
             sodipodi:nodetypes="sssssssss"
             id="path19109"
             d="m -1198.3051,480.12917 c 1.7291,-0.56529 2.6247,-2.57043 2.0014,-4.4769 l -1.067,-3.26407 c -0.6225,-1.90404 -2.5296,-2.99296 -4.2588,-2.42766 l -49.7974,16.27964 c -1.7316,0.56609 -2.6296,2.57202 -2.0071,4.47606 l 1.0671,3.26409 c 0.6232,1.90647 2.5327,2.99457 4.2643,2.4285 z"
             inkscape:connector-curvature="0"
             style="fill:#000000" />
          <path
             inkscape:connector-curvature="0"
             d="m -1198.3051,495.34173 c 1.7291,-0.56529 2.6247,-2.57043 2.0014,-4.4769 l -1.067,-3.26407 c -0.6225,-1.90406 -2.5296,-2.99296 -4.2588,-2.42766 l -49.7974,16.27964 c -1.7316,0.56609 -2.6296,2.57202 -2.0071,4.47606 l 1.0671,3.26409 c 0.6232,1.90647 2.5327,2.99457 4.2643,2.4285 z"
             id="path19111"
             sodipodi:nodetypes="sssssssss"
             style="fill:#000000" />
          <path
             d="m -1230.7614,386.75793 c -15.0215,-2.84924 -25.6274,-17.13909 -24.0596,-32.41607 0.7848,-7.64393 3.5648,-13.27148 9.256,-18.73497 5.2425,-5.0333 10.5301,-7.49228 17.6706,-8.21843 14.2519,-1.44899 27.5968,7.5024 31.7784,21.31543 0.8561,2.82781 0.962,3.74419 0.9778,8.45693 0.021,6.28624 -0.401,8.19545 -2.9613,13.39003 -4.2098,8.54092 -12.5624,14.82163 -21.7801,16.377 -2.7767,0.46844 -7.9413,0.38804 -10.8818,-0.16981 z m 18.0458,45.30058 c 1.7492,-0.71588 1.9653,-1.40717 3.4758,-11.12551 l 1.4573,-9.37645 3.3474,-1.32159 c 1.8413,-0.7268 3.8128,-1.56895 4.3815,-1.87113 l 1.0336,-0.54943 7.3943,5.59367 c 8.0509,6.09014 8.67,6.36852 10.9756,4.93261 1.7053,-1.06202 13.2226,-12.68137 15.2368,-15.3719 2.9065,-3.88239 3.0233,-3.54289 -4.5119,-13.10597 -2.5069,-3.18197 -4.5584,-5.939 -4.5584,-6.12669 0,-0.18764 0.5344,-1.40786 1.1875,-2.71104 0.6531,-1.30331 1.552,-3.37596 1.9977,-4.60588 0.4455,-1.23019 0.9814,-2.2843 1.191,-2.34263 0.2096,-0.06 4.1863,-0.68374 8.8377,-1.3891 4.6513,-0.70518 8.9005,-1.45731 9.4425,-1.67105 1.9326,-0.76206 2.0095,-1.29574 2.008,-13.92621 0,-10.92977 -0.039,-11.62029 -0.7046,-12.71148 -0.387,-0.63485 -1.0605,-1.28078 -1.4965,-1.4357 -0.4359,-0.15455 -4.8199,-0.89781 -9.7424,-1.65087 -7.4903,-1.1462 -8.9755,-1.46916 -9.1093,-1.9803 -0.087,-0.33592 -0.9258,-2.38569 -1.8621,-4.55499 l -1.7022,-3.94404 2.6498,-3.49861 c 1.4572,-1.92434 3.803,-4.88486 5.2129,-6.57858 3.0598,-3.67643 3.3659,-4.20584 3.3659,-5.82222 0,-1.60107 -1.6665,-3.70841 -8.0598,-10.19167 -5.27,-5.34397 -8.4651,-8.07089 -10.4069,-8.8823 -1.8495,-0.77265 -2.7131,-0.29916 -10.316,5.65542 -4.1094,3.21838 -6.7853,5.08518 -7.1322,4.97551 -0.3055,-0.0962 -2.3959,-0.92301 -4.6457,-1.83671 l -4.0903,-1.66129 -0.4305,-4.09031 c -0.464,-4.41407 -1.571,-11.32964 -2.1678,-13.54603 -0.2033,-0.75499 -0.7478,-1.75098 -1.2101,-2.21327 l -0.8404,-0.84043 -12.2706,0 c -13.0324,0 -13.2609,0.0282 -14.1601,1.70762 -0.1809,0.33792 -0.8995,4.41283 -1.597,9.05542 -0.6974,4.64275 -1.341,8.77546 -1.4299,9.18399 -0.1103,0.50124 -0.7075,0.9465 -1.8413,1.37001 -0.9238,0.34502 -2.8975,1.17737 -4.3858,1.84981 l -2.706,1.22199 -7.1028,-5.35663 c -3.9065,-2.94617 -7.5834,-5.49432 -8.1709,-5.66283 -0.7527,-0.21587 -1.4459,-0.14818 -2.3478,0.22797 -1.5201,0.63486 -14.8426,13.87215 -16.626,16.51979 -1.7944,2.66388 -1.6512,3.39869 1.4453,7.41683 7.832,10.16342 8.1193,10.57071 7.9532,11.26895 -0.2277,0.9572 -3.4159,8.74282 -3.7161,9.07464 -0.1327,0.14638 -4.331,0.89335 -9.3313,1.66077 -5.0001,0.7676 -9.3522,1.59966 -9.6713,1.84901 -1.4372,1.12303 -1.4383,1.135 -1.4499,13.67705 -0.016,12.96411 0.016,13.15419 1.7309,14.07451 0.357,0.19061 4.7272,0.97647 9.7117,1.74546 4.9846,0.76901 9.1061,1.44646 9.1588,1.5054 0.079,0.0884 1.909,4.38882 3.4434,8.093 0.3556,0.85773 0.2112,1.1753 -1.681,3.69971 -1.1383,1.5188 -3.6256,4.7118 -5.5272,7.09545 -4.2347,5.30772 -4.3777,5.99085 -1.9294,9.23238 2.1232,2.81127 13.146,13.76307 15.1815,15.08362 3.1364,2.03512 3.2573,1.98487 12.3604,-5.15093 3.101,-2.4308 5.8236,-4.55908 6.0506,-4.72977 0.2574,-0.19358 1.0521,0.0159 2.1143,0.55024 0.9357,0.47283 2.9269,1.29388 4.4246,1.82456 3.125,1.10728 2.7277,0.24086 3.6365,7.9264 0.6169,5.21694 1.7618,11.37708 2.3023,12.38678 0.86,1.60674 1.7092,1.70918 13.9604,1.68571 6.3566,-0.0159 11.8747,-0.15277 12.2623,-0.31084 z"
             style="fill:#000000;fill-opacity:1"
             id="path19113"
             inkscape:connector-curvature="0" />
        </g>
      </g>
    </g>
  </g>
</svg>
