<?xml version="1.0" encoding="UTF-8" standalone="no"?>
<!-- Creator: CorelDRAW -->

<svg
   xmlns:dc="http://purl.org/dc/elements/1.1/"
   xmlns:cc="http://creativecommons.org/ns#"
   xmlns:rdf="http://www.w3.org/1999/02/22-rdf-syntax-ns#"
   xmlns:svg="http://www.w3.org/2000/svg"
   xmlns="http://www.w3.org/2000/svg"
   xmlns:sodipodi="http://sodipodi.sourceforge.net/DTD/sodipodi-0.dtd"
   xmlns:inkscape="http://www.inkscape.org/namespaces/inkscape"
   xml:space="preserve"
   width="205"
   height="270"
   style="fill-rule:evenodd"
   viewBox="0 0 125.62496 165.4573"
   id="svg2"
   version="1.1"
   inkscape:version="0.48.4 r9939"
   sodipodi:docname="rene_simpson.svg"><metadata
     id="metadata228"><rdf:RDF><cc:Work
         rdf:about=""><dc:format>image/svg+xml</dc:format><dc:type
           rdf:resource="http://purl.org/dc/dcmitype/StillImage" /><dc:title /></cc:Work></rdf:RDF></metadata><sodipodi:namedview
     pagecolor="#ffffff"
     bordercolor="#666666"
     borderopacity="1"
     objecttolerance="10"
     gridtolerance="10"
     guidetolerance="10"
     inkscape:pageopacity="0"
     inkscape:pageshadow="2"
     inkscape:window-width="1209"
     inkscape:window-height="758"
     id="namedview226"
     showgrid="false"
     inkscape:zoom="1.7346896"
     inkscape:cx="151.23628"
     inkscape:cy="124.49318"
     inkscape:window-x="0"
     inkscape:window-y="0"
     inkscape:window-maximized="0"
     inkscape:current-layer="svg2"
     fit-margin-top="0"
     fit-margin-left="0"
     fit-margin-right="0"
     fit-margin-bottom="0" /><defs
     id="defs4"><style
       type="text/css"
       id="style6">
    .fil14 {fill:none}
    .fil8 {fill:black}
    .fil13 {fill:#1C1C1C}
    .fil2 {fill:#333333}
    .fil11 {fill:#4D4D4D}
    .fil9 {fill:#990000}
    .fil0 {fill:#C2DEFC}
    .fil16 {fill:#C4A00E}
    .fil6 {fill:#D1B204}
    .fil1 {fill:#EBF5FF}
    .fil12 {fill:red}
    .fil15 {fill:#FF6666}
    .fil4 {fill:#FFE100}
    .fil5 {fill:#FFFF66}
    .fil7 {fill:white}
    .fil3 {fill:#23201D;fill-rule:nonzero}
    .fil10 {fill:#666666;fill-rule:nonzero}
   </style></defs><g
     id="Ebene_x0020_1"
     transform="translate(-1.3170057e-5,-1.1068102)"><metadata
       id="CorelCorpID_0Corel-Layer" /><rect
       class="fil0"
       x="0.40029499"
       y="0.681804"
       width="124.781"
       height="165.39999"
       id="rect10"
       style="fill:#c2defc" /><path
       class="fil1"
       d="m 0.40018,115.898 c 40.5498,16.996 114.009,-3.37406 124.781,-71.1943 0.33178,40.4601 0.66378,80.9202 0.99578,121.38 -41.925498,-6.5e-4 -83.851098,-0.001 -125.776998,-0.002 0,-13.8465 0,-36.3378 0,-50.1841 z"
       id="path14"
       inkscape:connector-curvature="0"
       style="fill:#ebf5ff" /><path
       class="fil2"
       d="m 45.3189,123.991 c -10.4401,2.97671 -28.1173,11.2841 -40.1466,20.4266 -1.71841,1.30585 -3.32152,11.4962 -4.77198,12.8234 0.0649234,7.80557 -0.0649234,1.0353 0,8.84087 42.0723,-0.34937 83.9451,0.34915 126.018,0 -0.4536,-9.72179 -0.78408,-24.3369 -1.23724,-34.0587 -18.1462,-10.0675 -21.0662,-12.1294 -36.2967,-14.4549 -14.5218,2.14095 -29.0436,4.28191 -43.5653,6.42286 z"
       id="path18"
       inkscape:connector-curvature="0"
       style="fill:#333333" /><path
       class="fil3"
       d="m 45.401,124.366 c -5.52609,1.57814 -13.0874,4.65494 -20.7612,8.55925 -6.77331,3.44615 -13.627,7.53285 -19.2371,11.7965 -0.803617,0.6108 -1.66174,3.7154 -2.48272,6.68624 -0.72154,2.61083 -1.41594,5.12287 -2.13704,5.98207 0.0308332,3.78032 0.0147652,4.03741 -0.001086,4.29406 l 0,0.002 c -0.0154166,0.24818 -0.0312675,0.49811 -0.003257,4.01201 20.9121,-0.17067 41.7755,-0.0838 62.6385,0.003 20.8504,0.0864 41.701703,0.17327 62.601403,0.003 -0.21844,-4.78588 -0.40952,-10.7165 -0.6006,-16.6462 -0.19281,-5.98576 -0.38585,-11.9713 -0.60841,-16.8039 -1.13475,-0.62948 -2.21,-1.22812 -3.23162,-1.79658 -15.0994,-8.40291 -18.5881,-10.3441 -32.695602,-12.5018 l -43.4813,6.41048 z m -21.1081,7.87701 c 7.72675,-3.93123 15.3486,-7.03062 20.9214,-8.61961 l 0.104659,0.36804 -0.05537,-0.37846 43.5653,-6.42286 0.05711,-0.008 0.05515,0.008 c 14.286401,2.18134 17.787101,4.12948 33.007601,12.5997 1.07742,0.59951 2.21434,1.23246 3.41771,1.89993 l 0.18608,0.10314 0.01,0.21409 c 0.22582,4.84863 0.42211,10.9377 0.6184,17.0269 0.19564,6.07892 0.39171,12.1591 0.61884,17.0319 l 0.0182,0.39454 -0.39671,0.003 c -21.0358,0.17458 -42.021698,0.0873 -63.007198,0 -20.9868,-0.0871 -41.9742,-0.17458 -63.01090008,0 l -0.381289,0.003 -0.003257,-0.38151 c -0.0323531,-3.9258 -0.016068,-4.18723 2.1714e-4,-4.44736 0.0158509,-0.25665 0.032136,-0.52025 -2.1714e-4,-4.39351 l -0.0013028,-0.16936 0.125504,-0.11486 c 0.60255,-0.55109 1.30714998,-3.10047 2.04106998,-5.75582 0.85421,-3.09114 1.74729,-6.32189 2.75805,-7.09011 5.6570199,-4.29928 12.5492999,-8.41073 19.3508999,-11.8712 z"
       id="path20"
       inkscape:connector-curvature="0"
       style="fill:#23201d;fill-rule:nonzero" /><path
       class="fil4"
       d="m 31.9857,30.2613 c -4.19961,6.93052 -7.07144,16.7003 -8.55947,24.7158 0.452727,3.66676 -0.07578,7.29596 0.376947,10.9627 -4.41544,12.9478 -2.57023,19.7326 3.02165,28.8316 -0.57302,3.28591 2.15507,4.32099 5.56821,4.88923 1.53927,3.89323 1.85607,4.89488 3.39534,8.78811 -2.80061,3.21251 -1.89516,5.89522 2.71614,7.11899 0.860072,0.27164 0.250574,-0.1153 1.11065,0.15634 2.12771,3.6216 3.20643,7.83185 5.33414,11.4534 8.93511,14.8147 26.9278,8.90819 43.8402,-7.0988 0.407346,-12.3135 1.73035,-25.488403 2.13791,-37.801903 6.7136,-0.96864 9.147903,-23.2243 -0.678982,-21.5939 -7.33396,-10.9102 -14.6677,-21.8203 -22.0014,-32.7303 -12.087,0.769527 -24.1743,1.53905 -36.2614,2.30858 z"
       id="path22"
       inkscape:connector-curvature="0"
       style="fill:#ffe100" /><path
       class="fil5"
       d="m 39.8406,115.809 c 1.97007,-0.048 3.94035,-0.096 5.91064,-0.14396 1.58378,8.17514 4.83994,14.4918 9.56198,19.1806 -5.97035,-1.36643 -9.67511,-5.20972 -11.8884,-10.6828 -1.19489,-2.78476 -2.38957,-5.5693 -3.58425,-8.35384 z"
       id="path24"
       inkscape:connector-curvature="0"
       style="fill:#ffff66" /><path
       class="fil5"
       d="m 35.7884,108.449 c 0.310069,0.51439 0.620138,1.029 0.930207,1.54361 1.74772,0.0556 3.49544,0.11117 5.24338,0.16698 -0.946926,1.93858 0.162851,3.81094 1.84891,5.66484 -5.15913,0.39692 -8.61636,-0.60451 -9.58673,-3.65004 0.227992,-1.65674 0.730443,-2.92546 1.56424,-3.72539 z"
       id="path26"
       inkscape:connector-curvature="0"
       style="fill:#ffff66" /><path
       class="fil5"
       d="m 39.3308,68.0289 c -1.437,11.7689 -6.33275,21.839 3.46005,22.0781 -3.09483,0.784509 -6.10345,1.20445 -8.80787,0.323097 -1.05875,-0.600379 -1.30607,-1.80526 -0.881134,-3.51108 2.07646,-6.2967 4.15271,-12.5934 6.22896,-18.8901 z"
       id="path28"
       inkscape:connector-curvature="0"
       style="fill:#ffff66" /><path
       class="fil6"
       d="m 81.9488,73.2308 c 2.45667,17.5128 1.09067,35.2988 -1.20293,53.1512 2.68118,-2.101 5.36237,-4.202 8.04377,-6.303 0.712638,-12.6008 1.42528,-25.2016 2.13791,-37.8021 4.1108,-1.80092 5.98511,-9.06018 5.37757,-13.6207 -0.485514,-3.6444 -1.5282,-6.97634 -5.07097,-7.24841 -4.03719,0.707861 -5.59622,4.49709 -6.02897,9.68705 -1.08546,0.711986 -2.17092,1.42397 -3.25638,2.13596 z"
       id="path30"
       inkscape:connector-curvature="0"
       style="fill:#d1b204" /><path
       class="fil5"
       d="m 35.2858,32.2824 c -3.07094,6.82564 -5.2436,13.7045 -5.43989,20.6995 0.05602,3.21425 0.112042,6.4285 0.167845,9.64297 0.03843,1.10934 0.07665,2.21869 0.114864,3.32803 -0.616664,1.39401 -1.23333,2.78802 -1.85021,4.18202 -3.0071,6.65997 -2.54786,13.3199 -0.144178,19.9801 0.425368,-1.53145 0.850518,-3.06291 1.27567,-4.59415 0.07448,5.0447 0.277499,10.0414 4.44888,13.5499 -4.04762,0.201719 -7.49095,-0.164371 -6.70774,-4.49969 -5.66701,-7.38889 -8.19077,-16.1998 -2.98561,-28.5085 -0.117253,-3.69217 -0.234723,-7.38412 -0.352193,-11.0761 1.11238,-7.29878 3.00537,-14.6017 6.61437,-21.9128 1.61939,-0.263819 3.23879,-0.527638 4.85818,-0.79124 z"
       id="path32"
       inkscape:connector-curvature="0"
       style="fill:#ffff66" /><path
       class="fil3"
       d="m 32.209,30.6304 c -1.86975,3.12305 -3.47351,6.81652 -4.80433,10.6594 -1.58965,4.59067 -2.79019,9.39457 -3.59142,13.6967 0.220826,1.82936 0.201719,3.65178 0.183045,5.47376 -0.01889,1.807 -0.03756,3.61465 0.186953,5.43316 l 0.01064,0.08598 -0.02845,0.08316 c -2.18742,6.41504 -2.82558,11.2941 -2.22564,15.6856 0.599076,4.38656 2.44082,8.31497 5.21124,12.8229 l 0.07556,0.122681 -0.02475,0.142006 c -0.256436,1.47196 0.218005,2.43452 1.133881,3.08831 0.979714,0.699609 2.463619,1.08416 4.12014,1.3597 l 0.214095,0.03561 0.07925,0.200633 c 0.749985,1.89646 1.22486,3.14933 1.6993,4.40003 0.453378,1.1962 0.908059,2.39435 1.69604,4.38808 l 0.08533,0.2154 -0.154166,0.17674 c -0.732397,0.8401 -1.19576,1.63438 -1.38923,2.36352 -0.138532,0.52156 -0.136795,1.01055 0.0052,1.45785 l -0.0013,4.4e-4 c 0.142441,0.4486 0.430362,0.86572 0.862895,1.24266 0.67225,0.58605 1.68866,1.07265 3.04858,1.43353 l 0.01802,0.005 c 0.289441,0.0914 0.275327,0.0981 0.279887,0.096 0.130064,-0.0597 0.260345,-0.11942 0.830759,0.0604 l 0.138532,0.0436 0.07534,0.12833 c 1.07569,1.83088 1.88365,3.80356 2.69052,5.77514 l 4.35e-4,-2.2e-4 c 0.796017,1.94401 1.59225,3.88867 2.6408,5.67461 l 8.68e-4,-4.3e-4 c 0.807091,1.33799 1.68519,2.50053 2.62668,3.49522 3.34388,3.53301 7.53502,5.01778 12.2282,4.81302 4.73615,-0.2065 9.99191,-2.12858 15.4168,-5.40037 4.24738,-2.56198 8.59052,-5.94581 12.8646,-9.97801 0.206496,-6.13342 0.635337,-12.4455 1.06375,-18.7574 0.43275,-6.378562 0.866369,-12.757602 1.06896,-18.887902 l 0.01042,-0.320926 0.317234,-0.0456 c 2.75697,-0.397574 4.76156,-4.76807 5.36606,-9.41954 l 2.17e-4,0 c 0.201067,-1.54839 0.244277,-3.12588 0.105962,-4.59979 -0.136795,-1.45828 -0.452075,-2.81385 -0.967989,-3.93362 -0.944104,-2.04889 -2.58413,-3.29741 -5.06793,-2.88529 l -0.241237,0.04017 -0.137447,-0.204758 -21.8783,-32.5473 -35.844,2.28231 z m -5.52566,10.411 c 1.37143,-3.96033 3.03229,-7.7691 4.9763,-10.9775 l 0.326137,0.197593 -0.02388,-0.381506 36.2614,-2.3088 0.218004,-0.01368 0.123116,0.182828 21.8666,32.5297 c 2.75762,-0.36153 4.58372,1.06005 5.64139,3.35517 0.552175,1.19859 0.888734,2.63993 1.03356,4.18506 0.143309,1.52928 0.0988,3.16366 -0.109219,4.76547 l 0,0.0015 c -0.622092,4.78609 -2.73221,9.30663 -5.69784,10.0167 -0.20845,6.08717 -0.634035,12.3487 -1.05875,18.609605 -0.432967,6.37856 -0.866369,12.7573 -1.06896,18.8875 l -0.0052,0.15655 -0.11443,0.10835 c -4.3566,4.12318 -8.78333,7.57932 -13.1076,10.1875 -5.53043,3.33541 -10.9082,5.29571 -15.779,5.50807 -4.91355,0.21453 -9.30533,-1.34428 -12.8149,-5.0523 -0.985142,-1.04095 -1.89754,-2.24626 -2.7283,-3.62377 l -0.0015,-0.005 c -1.07764,-1.83457 -1.88452,-3.80508 -2.69096,-5.77471 l 0,-0.001 c -0.776692,-1.89776 -1.55404,-3.79617 -2.56936,-5.55106 -0.144612,-0.0482 -0.136361,-0.0523 -0.140052,-0.0506 -0.12963,0.0597 -0.260128,0.11986 -0.830542,-0.0604 l 0,-2.2e-4 c -1.46675,-0.39106 -2.58043,-0.93216 -3.33889,-1.59334 -0.538929,-0.46966 -0.901545,-1.0023 -1.0872,-1.58704 l -0.0015,0 c -0.186085,-0.5867 -0.190862,-1.21791 -0.01433,-1.883 0.209318,-0.78841 0.676593,-1.62526 1.40096,-2.49271 -0.702432,-1.78051 -1.15907,-2.98365 -1.61505,-4.18723 -0.438396,-1.15559 -0.876575,-2.31054 -1.61744,-4.1881 -1.67042,-0.290523 -3.17386,-0.705468 -4.22306,-1.454806 -1.12715,-0.804486 -1.72818,-1.9616 -1.46805,-3.69521 -2.7802,-4.54073 -4.63041,-8.52451 -5.24186,-13.0014 -0.613841,-4.49296 0.0254,-9.45797 2.22998,-15.9494 -0.217135,-1.82003 -0.198462,-3.63354 -0.179571,-5.44618 0.01867,-1.80613 0.03756,-3.61291 -0.186736,-5.43055 l -0.0067,-0.05515 0.01107,-0.06015 c 0.807091,-4.34835 2.02109,-9.2137 3.63245,-13.8669 z"
       id="path34"
       inkscape:connector-curvature="0"
       style="fill:#23201d;fill-rule:nonzero" /><path
       class="fil3"
       d="M 39.3308,68.0289 33.10184,86.919 c -0.19173,1.25222 -0.09141,2.14486 0.23342,2.7676 0.311589,0.597556 0.849216,0.959086 1.54405,1.16493 1.20011,0.355667 2.92742,0.05363 4.85796,-0.283579 1.38011,-0.241454 2.86206,-0.500714 4.37549,-0.558037 1.34537,-0.05124 2.87378,-0.210187 3.83678,-0.781252 0.860507,-0.510485 1.24462,-1.41507 0.511788,-3.00906 -0.199764,-0.434705 -0.509399,-0.828588 -0.903717,-1.1443 -0.381072,-0.305292 -0.841182,-0.536975 -1.35753,-0.661177 l 0.176748,-0.742168 c 0.631212,0.151777 1.19381,0.434922 1.65935,0.80796 0.485948,0.389106 0.869626,0.878746 1.11955,1.42267 0.948012,2.06213 0.385849,3.27071 -0.81708,3.98443 -1.10088,0.652925 -2.75436,0.830976 -4.19896,0.885911 -1.44655,0.05494 -2.90896,0.31072 -4.27083,0.548918 -2.02218,0.353279 -3.832,0.669645 -5.20495,0.262734 -0.889386,-0.263602 -1.58596,-0.741951 -2.00481,-1.54492 -0.402569,-0.771698 -0.531981,-1.83088 -0.305292,-3.2757 l 0.0063,-0.03908 0.0072,-0.02215 6.23656,-18.9131 0.726968,0.239283 z"
       id="path36"
       inkscape:connector-curvature="0"
       style="fill:#23201d;fill-rule:nonzero" /><path
       class="fil3"
       d="m 65.4534,89.6201 c 1.70234,0.975371 2.9906,2.23085 3.92906,3.72148 0.933464,1.4826 1.51734,3.19536 1.81655,5.09377 l -0.753893,0.116819 c -0.282927,-1.79592 -0.832279,-3.41163 -1.70885,-4.80368 -0.871581,-1.38424 -2.07234,-2.55264 -3.66285,-3.46396 l 0.379987,-0.664434 z"
       id="path38"
       inkscape:connector-curvature="0"
       style="fill:#23201d;fill-rule:nonzero" /><path
       class="fil7"
       d="m 31.4846,99.3771 c 7.63643,0.246014 14.8488,0.64837 25.1586,-4.46582 6.80198,-4.06542 12.621,2.32226 4.937,8.52581 -7.7337,5.99488 -14.9589,7.24819 -24.8615,6.55531 0,0 -3.44941,-6.35272 -5.23404,-10.6153 z"
       id="path40"
       inkscape:connector-curvature="0"
       style="fill:#ffffff" /><path
       class="fil3"
       d="m 31.4965,98.9956 0.672902,0.02193 c 7.33873,0.241237 14.3789,0.472486 24.2957,-4.44454 2.48772,-1.48043 4.86774,-1.62026 6.56921,-0.89742 0.767138,0.325703 1.39922,0.827068 1.84543,1.46045 0.447516,0.63512 0.706992,1.40248 0.727837,2.25755 0.0456,1.8526 -1.04051,4.12296 -3.78814,6.34121 l -0.0059,0.005 c -3.91082,3.03142 -7.69766,4.86556 -11.7611,5.8544 -4.05456,0.98645 -8.37273,1.1291 -13.3592,0.78017 l -0.210621,-0.0148 -0.100534,-0.18565 c -0.0098,-0.0182 -3.45831,-6.36923 -5.25055,-10.6498 l -0.229078,-0.547615 0.594082,0.01954 z m 0.649017,0.784944 -0.07448,-0.0024 c 1.63655,3.779456 4.33315,8.825466 4.88359,9.847306 4.82626,0.32526 9.00829,0.17761 12.9185,-0.77387 3.95599,-0.96256 7.64815,-2.75241 11.4686,-5.71283 2.53831,-2.04976 3.54299,-4.091696 3.50282,-5.727376 -0.01715,-0.697004 -0.227558,-1.32062 -0.590173,-1.83544 -0.363919,-0.516782 -0.884391,-0.927601 -1.51929,-1.19728 -1.49975,-0.637075 -3.63137,-0.493114 -5.89587,0.860289 l -0.02692,0.01498 c -10.0909,5.005627 -17.2273,4.771117 -24.6668,4.52662 z m 29.1953,3.358856 8.69e-4,-6.5e-4"
       id="path42"
       inkscape:connector-curvature="0"
       style="fill:#23201d;fill-rule:nonzero" /><path
       class="fil3"
       d="m 39.0924,115.33 c 1.64002,0.16828 3.28591,0.2243 4.93982,0.0853 1.64393,-0.13788 3.29437,-0.46988 4.9509,-1.07656 l 0.263168,0.71829 c -1.72666,0.63251 -3.44333,0.97797 -5.1511,1.12129 -1.69843,0.14266 -3.39187,0.0849 -5.08053,-0.0884 l 0.07773,-0.75997 z"
       id="path44"
       inkscape:connector-curvature="0"
       style="fill:#23201d;fill-rule:nonzero" /><polygon
       class="fil3"
       points="26.4903,94.6075 29.0418,85.419 29.7779,85.6227 27.2264,94.8112 "
       id="polygon46"
       style="fill:#23201d;fill-rule:nonzero" /><path
       class="fil3"
       d="m 47.0449,66.0823 c -0.0041,0.407997 0.02671,0.824896 0.07687,1.24657 0.05059,0.426888 0.120727,0.852255 0.193685,1.27893 0.599076,3.49978 3.39686,3.5076 6.44305,3.51542 0.334171,0.0011 0.672468,0.0022 1.00577,0.0069 1.95291,0.02975 3.72864,-0.02866 5.0434,-0.626001 1.25743,-0.571283 2.11424,-1.67237 2.33008,-3.74406 0.03214,-0.31072 0.0532,-0.631646 0.06123,-0.960606 0.0078,-0.322229 0.0037,-0.659874 -0.01281,-1.01098 -0.127675,-2.67272 -0.450555,-2.68097 -2.6827,-2.73482 -0.301166,-0.0069 -0.632732,-0.0152 -0.982754,-0.02823 -1.52125,-0.05667 -3.05661,-0.06449 -4.54985,-0.0152 -1.40052,0.04647 -2.77195,0.144612 -4.06759,0.301601 -1.28522,0.155469 -2.0326,0.251225 -2.39891,0.575625 -0.353279,0.313109 -0.44643,0.943452 -0.459458,2.1948 z m -0.683107,1.33647 c -0.05255,-0.440784 -0.08468,-0.88678 -0.07991,-1.34255 0.01542,-1.48781 0.159811,-2.26711 0.716546,-2.76022 0.543489,-0.481606 1.38033,-0.590608 2.81494,-0.764099 1.30216,-0.15764 2.6966,-0.257088 4.1336,-0.304641 1.51148,-0.04994 3.06399,-0.04212 4.60066,0.0152 0.364787,0.01368 0.684193,0.0215 0.973634,0.02823 2.85381,0.06883 3.26615,0.07904 3.42791,3.46179 0.01715,0.363484 0.02128,0.719152 0.01281,1.06483 -0.0087,0.356319 -0.03062,0.697221 -0.06427,1.02054 -0.249488,2.39348 -1.27111,3.68022 -2.77564,4.36377 -1.44677,0.657268 -3.31869,0.722843 -5.36693,0.691575 -0.335908,-0.005 -0.668125,-0.0061 -0.99665,-0.0069 -3.38275,-0.0089 -6.48952,-0.01737 -7.19694,-4.14989 -0.07556,-0.44187 -0.148086,-0.881569 -0.199764,-1.31758 z"
       id="path48"
       inkscape:connector-curvature="0"
       style="fill:#23201d;fill-rule:nonzero" /><path
       class="fil3"
       d="m 22.9573,66.4853 c -0.0039,0.417334 0.01715,0.837056 0.05819,1.25765 0.04082,0.417768 0.103139,0.839662 0.181525,1.26329 0.320491,1.73296 0.581922,2.60606 1.12997,3.0147 l -4.34e-4,6.51e-4 c 0.55174,0.410385 1.50714,0.436659 3.18972,0.459458 2.2315,0.0304 4.39026,0.0393 6.01117,-0.525467 1.54123,-0.536975 2.61431,-1.62395 2.81624,-3.78792 0.02866,-0.307463 0.04712,-0.628389 0.0545,-0.960606 0.0072,-0.325051 0.0035,-0.665302 -0.01129,-1.01858 -0.113779,-2.67098 -0.396923,-2.6788 -2.35396,-2.73156 -0.271853,-0.0074 -0.571934,-0.01563 -0.878963,-0.02823 -1.35557,-0.05667 -2.72374,-0.06471 -4.05413,-0.0152 -1.25287,0.04625 -2.47447,0.144178 -3.62225,0.299864 -1.13279,0.153515 -1.79115,0.247751 -2.10773,0.562163 -0.317234,0.314846 -0.400831,0.949749 -0.412557,2.20978 z m -0.701781,1.3293 c -0.04343,-0.44339 -0.06536,-0.888734 -0.06123,-1.33538 0.01368,-1.47912 0.142006,-2.25386 0.637075,-2.74524 0.495285,-0.492028 1.25026,-0.602116 2.54461,-0.777561 1.17079,-0.158943 2.4178,-0.258608 3.69694,-0.305943 1.3508,-0.05016 2.73807,-0.04212 4.11102,0.0152 0.330263,0.01368 0.611453,0.0215 0.866804,0.02823 2.5813,0.06948 2.95478,0.07991 3.09917,3.46461 0.0152,0.363701 0.01867,0.718717 0.01129,1.06331 -0.0076,0.351108 -0.02736,0.689838 -0.05754,1.01446 -0.236026,2.53071 -1.50344,3.80594 -3.32477,4.44063 -1.74164,0.606893 -3.97053,0.598642 -6.27173,0.567157 -1.84413,-0.02519 -2.89506,-0.05711 -3.63636,-0.609498 l -0.0015,0 c -0.744774,-0.555215 -1.06505,-1.55252 -1.42354,-3.49066 -0.08143,-0.439916 -0.146566,-0.883306 -0.19021,-1.3293 z"
       id="path50"
       inkscape:connector-curvature="0"
       style="fill:#23201d;fill-rule:nonzero" /><path
       class="fil3"
       d="m 36.2763,67.8843 c 0.728923,-0.256002 1.25808,-0.851604 1.79614,-1.45741 0.877226,-0.987531 1.7779,-2.00112 3.62985,-1.98983 1.37186,0.0085 2.24757,0.895248 3.1439,1.80309 0.640549,0.6488 1.29369,1.31041 2.11511,1.57532 l -0.233203,0.726968 c -1.00099,-0.32288 -1.7208,-1.05202 -2.42649,-1.76683 -0.783641,-0.793629 -1.54926,-1.56902 -2.60236,-1.57553 -1.5054,-0.0093 -2.29056,0.874403 -3.05531,1.73534 -0.603419,0.679416 -1.19685,1.34732 -2.1162,1.6702 l -0.251443,-0.721323 z"
       id="path52"
       inkscape:connector-curvature="0"
       style="fill:#23201d;fill-rule:nonzero" /><path
       class="fil3"
       d="m 62.227,66.17 2.57913,-0.67377 0.05059,-0.01303 0.05407,0.0011 c 3.36277,0.07969 6.6908,0.471835 9.99256,1.09045 3.30415,0.619052 6.57963,1.46393 9.83601,2.44972 l -0.221478,0.733048 c -3.23987,-0.980799 -6.48995,-1.81959 -9.75523,-2.43148 -3.2503,-0.609064 -6.51992,-0.995999 -9.81581,-1.07742 l -2.52832,0.660525 -0.191513,-0.739128 z"
       id="path54"
       inkscape:connector-curvature="0"
       style="fill:#23201d;fill-rule:nonzero" /><path
       class="fil3"
       d="m 92.541,66.3693 c -1.90601,1.70017 -2.79366,3.63571 -3.02904,5.72064 -0.238849,2.11837 0.186519,4.40394 0.902848,6.76267 L 89.6848,79.074088 c -0.743905,-2.44994 -1.18469,-4.8343 -0.932813,-7.06797 0.256002,-2.26711 1.21726,-4.36789 3.28048,-6.20833 l 0.508531,0.5715 z"
       id="path56"
       inkscape:connector-curvature="0"
       style="fill:#23201d;fill-rule:nonzero" /><path
       class="fil3"
       d="m 89.0706,74.9383 c 0.270985,-1.20184 0.758453,-2.19545 1.51083,-2.93046 0.75715,-0.739562 1.77161,-1.20879 3.09048,-1.35514 l 0.08381,0.759973 c -1.13953,0.12659 -2.00589,0.521993 -2.64145,1.14278 -0.640332,0.625566 -1.05962,1.49107 -1.29847,2.55047 l -0.745208,-0.167628 z"
       id="path58"
       inkscape:connector-curvature="0"
       style="fill:#23201d;fill-rule:nonzero" /><path
       class="fil7"
       d="m 30.5455,65.9457 c 2.95434,0 5.35043,1.0733 5.35043,2.39652 0,1.32322 -2.39609,1.93229 -5.35043,1.93229 -2.95456,0 -5.35064,-0.609064 -5.35064,-1.93229 0,-1.32322 2.39609,-2.39652 5.35064,-2.39652 z"
       id="path60"
       inkscape:connector-curvature="0"
       style="fill:#ffffff" /><path
       class="fil3"
       d="m 30.5455,65.5627 c 1.52972,0 2.92351,0.281624 3.93883,0.736305 1.10847,0.496371 1.79462,1.21726 1.79462,2.04324 0,0.81252 -0.6336,1.39509 -1.67042,1.76943 -1.02227,0.36913 -2.46818,0.545878 -4.06303,0.545878 -1.59486,0 -3.04098,-0.176748 -4.06303,-0.545878 -1.03682,-0.374341 -1.67042,-0.956915 -1.67042,-1.76943 0,-0.825982 0.68593,-1.54687 1.79462,-2.04324 1.01532,-0.454681 2.4089,-0.736305 3.93883,-0.736305 z m 3.62746,1.43374 c -0.92087,-0.41234 -2.20327,-0.667691 -3.62746,-0.667691 -1.42441,0 -2.70659,0.255351 -3.62746,0.667691 -0.827936,0.37065 -1.33994,0.848998 -1.33994,1.3458 0,0.439916 0.440567,0.790806 1.16189,1.05115 0.932595,0.336777 2.28904,0.498108 3.80551,0.498108 1.51647,0 2.8727,-0.161331 3.80551,-0.498108 0.721323,-0.260345 1.16189,-0.611235 1.16189,-1.05115 0,-0.497022 -0.512222,-0.975154 -1.33994,-1.3458 z"
       id="path62"
       inkscape:connector-curvature="0"
       style="fill:#23201d;fill-rule:nonzero" /><path
       class="fil7"
       d="m 55.7382,65.1577 c 3.35105,0 6.06893,1.0733 6.06893,2.39652 0,1.32322 -2.71788,1.93229 -6.06893,1.93229 -3.35126,0 -6.06914,-0.609064 -6.06914,-1.93229 0,-1.32322 2.71766,-2.39652 6.06914,-2.39652 z"
       id="path64"
       inkscape:connector-curvature="0"
       style="fill:#ffffff" /><path
       class="fil3"
       d="m 55.7382,64.7747 c 1.72362,0 3.29155,0.278802 4.43173,0.728923 1.24788,0.492897 2.02023,1.21552 2.02023,2.05062 0,0.820337 -0.710683,1.40356 -1.87388,1.77378 -1.15038,0.36609 -2.77976,0.541535 -4.57808,0.541535 -1.79831,0 -3.42791,-0.175445 -4.57829,-0.541535 -1.16319,-0.370215 -1.87409,-0.95344 -1.87409,-1.77378 0,-0.835102 0.77235,-1.55773 2.02023,-2.05062 l 0.0015,0 c 1.14041,-0.450121 2.7077,-0.728923 4.43066,-0.728923 z m 4.15032,1.44113 c -1.05593,-0.416899 -2.52333,-0.675073 -4.15032,-0.675073 -1.62743,0 -3.09483,0.257957 -4.15097,0.674639 l 2.17e-4,4.34e-4 c -0.948663,0.374558 -1.53558,0.850736 -1.53558,1.33842 0,0.432533 0.508096,0.782338 1.33864,1.04681 1.06722,0.339599 2.61691,0.502451 4.3477,0.502451 1.73078,0 3.28026,-0.162851 4.34748,-0.502451 0.830542,-0.264471 1.33842,-0.614275 1.33842,-1.04681 0,-0.487686 -0.586916,-0.963863 -1.53558,-1.33842 z"
       id="path66"
       inkscape:connector-curvature="0"
       style="fill:#23201d;fill-rule:nonzero" /><ellipse
       class="fil8"
       cx="32.4431"
       cy="68.074097"
       rx="1.00393"
       ry="0.965316"
       id="ellipse68"
       sodipodi:cx="32.4431"
       sodipodi:cy="68.074097"
       sodipodi:rx="1.00393"
       sodipodi:ry="0.965316"
       style="fill:#000000"
       d="m 33.44703,68.074097 c 0,0.533129 -0.449475,0.965316 -1.00393,0.965316 -0.554455,0 -1.00393,-0.432187 -1.00393,-0.965316 0,-0.53313 0.449475,-0.965316 1.00393,-0.965316 0.554455,0 1.00393,0.432186 1.00393,0.965316 z" /><ellipse
       class="fil8"
       cx="56.1423"
       cy="67.321899"
       rx="1.12291"
       ry="1.07972"
       id="ellipse70"
       sodipodi:cx="56.1423"
       sodipodi:cy="67.321899"
       sodipodi:rx="1.12291"
       sodipodi:ry="1.07972"
       style="fill:#000000"
       d="m 57.26521,67.321899 c 0,0.596313 -0.502744,1.07972 -1.12291,1.07972 -0.620166,0 -1.12291,-0.483407 -1.12291,-1.07972 0,-0.596312 0.502744,-1.07972 1.12291,-1.07972 0.620166,0 1.12291,0.483408 1.12291,1.07972 z" /><path
       class="fil8"
       d="m 47.4697,56.682 c 9.76544,0.266425 14.1134,1.44851 23.0218,5.80641 -6.81978,-5.95732 -9.77803,-8.27133 -15.5647,-9.50031 -5.82118,-1.23593 -7.94042,-1.71862 -7.45707,3.6939 z"
       id="path72"
       inkscape:connector-curvature="0"
       style="fill:#000000" /><path
       class="fil8"
       d="m 23.509,59.0128 c -0.457287,0.03474 7.42537,-1.78355 7.42537,-1.78355 -0.292698,-7.21128 -2.49206,-3.87912 -7.51852,-2.14269 0.03127,1.30867 0.06232,2.61735 0.09315,3.92624 z"
       id="path74"
       inkscape:connector-curvature="0"
       style="fill:#000000" /><path
       class="fil8"
       d="M 62.5914,32.042 C 50.725,29.18255 42.5718,29.8891 30.4276,33.07361 c -0.317017,-0.426453 -0.634252,-0.853124 -0.951269,-1.27979 4.4491,-5.16174 8.25048,-12.3435 22.4735,-15.2494 -0.497891,-0.361964 -0.995999,-0.724146 -1.49389,-1.08633 6.19269,-0.60711 12.2938,-1.39835 19.9641,0.950618 -0.09033,-0.543272 -0.180874,-1.08654 -0.271419,-1.62982 4.70792,2.03716 7.84531,3.39469 12.5535,5.43185 24.194098,17.4014 18.972198,63.0256 7.30443,78.7821 0.307029,-5.57212 0.613841,-11.144 0.921087,-16.7159 7.08121,-2.18785 8.61657,-21.8303 -0.425368,-20.833 -2.51486,0.599076 -5.6757,4.6189 -5.29701,9.65101 -1.26764,0.452727 -1.83783,1.22247 -3.10525,1.6752 0.886346,-10.6659 -3.41032,-19.3902 -9.05106,-20.6281 -0.520256,-11.6128 -5.2284,-16.8186 -10.4574,-20.1 z"
       id="path76"
       inkscape:connector-curvature="0"
       style="fill:#000000" /><path
       class="fil3"
       d="M 62.44,32.3981 C 56.57127,30.98846 51.616,30.45821 46.6302,30.67274 41.62133,30.888572 36.5705,31.85765 30.5233,33.44317 l -0.248403,0.06536 -0.154166,-0.207581 -0.951269,-1.27979 -0.181959,-0.244928 0.199981,-0.232335 c 0.634252,-0.735871 1.23854,-1.49085 1.85976,-2.26711 3.80508,-4.75483 8.25917,-10.318 19.9856,-12.9263 l -0.801446,-0.582791 -0.811868,-0.59039 0.999039,-0.09923 1.02835,-0.102054 c 5.72368,-0.570848 11.4487,-1.14148 18.4958,0.893077 l -0.171102,-1.02748 -0.115299,-0.690924 0.643371,0.27815 12.5535,5.43185 0.03952,0.01715 0.03235,0.02323 c 0.136578,0.09836 0.263602,0.190862 0.376729,0.274676 11.9216,8.82806 16.6147,24.5152 16.881402,39.9974 0.26621,15.4559 -3.885202,30.7298 -9.657302,38.7554 -0.0786,0.109219 -0.149823,0.206713 -0.212575,0.291613 l -0.758453,1.023587 0.07013,-1.271767 0.921087,-16.7159 0.01455,-0.265556 0.2547,-0.0786 c 2.80734,-0.867238 4.70727,-4.70597 5.34044,-8.812 0.264036,-1.71254 0.305943,-3.46504 0.100534,-5.06598 -0.203456,-1.584 -0.647931,-3.01905 -1.35709,-4.11471 -0.939544,-1.45155 -2.362,-2.30511 -4.32664,-2.09818 -1.26568,0.309852 -2.71853,1.57423 -3.73776,3.43139 -0.870712,1.58682 -1.41485,3.5988 -1.24809,5.81401 l 0.02171,0.291178 -0.274459,0.09793 c -0.592128,0.21149 -1.03139,0.503754 -1.47044,0.7958 -0.479652,0.318754 -0.959737,0.638377 -1.63481,0.879397 l -0.559557,0.199981 0.04929,-0.592128 c 0.427973,-5.15153 -0.365438,-9.83861 -1.93771,-13.4222 -1.61853,-3.68891 -4.05456,-6.19508 -6.81262,-6.80024 l -0.287704,-0.06297 -0.01303,-0.294652 c -0.256871,-5.73563 -1.54383,-9.88204 -3.40902,-12.9947 -1.8463,-3.0805 -4.26714,-5.15739 -6.81826,-6.76571 z M 46.5972,29.90973 c 5.0751,-0.218655 10.1133,0.322663 16.0825,1.76118 l 0.06254,0.0152 0.05255,0.03279 c 2.65839,1.66825 5.18649,3.82853 7.11878,7.05277 1.89407,3.16084 3.20991,7.33765 3.50304,13.0657 2.88594,0.761927 5.40124,3.38405 7.06406,7.17371 1.55556,3.54517 2.3722,8.12607 2.04715,13.158 0.333954,-0.169583 0.623829,-0.362616 0.913488,-0.555215 0.412991,-0.274893 0.826416,-0.549786 1.36448,-0.774738 -0.113562,-2.26363 0.460544,-4.31904 1.3584,-5.95493 1.12867,-2.05649 2.78476,-3.46417 4.24955,-3.81289 l 0.01759,-0.0041 0.02888,-0.0033 c 2.31097,-0.254917 3.98009,0.740865 5.07944,2.4393 0.773436,1.19511 1.25591,2.7409 1.47348,4.4352 0.215181,1.6778 0.173057,3.50369 -0.100534,5.27834 -0.654444,4.24282 -2.6434,8.23594 -5.61772,9.33811 l -0.833582,15.1254 c 5.39603,-8.09697 9.21348,-22.6987 8.95878,-37.4949 -0.262951,-15.272 -4.87099,-30.7305 -16.5731,-39.3959 -0.12051,-0.08924 -0.232117,-0.170885 -0.335908,-0.245797 l -11.8706,-5.13633 0.156337,0.938675 0.101185,0.608196 -0.588871,-0.180439 c -7.17197,-2.19632 -12.9803,-1.61679 -18.7876,-1.03769 l -0.0291,0.0028 0.681804,0.495937 0.701564,0.510268 -0.849867,0.173491 c -12.0888,2.46991 -16.5685,8.06701 -20.3833,12.8342 -0.570631,0.713072 -1.12715,1.40856 -1.67824,2.05779 l 0.616012,0.828588 c 5.98728,-1.56033 11.0159,-2.51377 16.0168,-2.72939 z"
       id="path78"
       inkscape:connector-curvature="0"
       style="fill:#23201d;fill-rule:nonzero" /><polygon
       class="fil3"
       points="45.9512,110.023 40.7597,99.4234 41.445,99.0881 46.6365,109.687 "
       id="polygon80"
       style="fill:#23201d;fill-rule:nonzero" /><polygon
       class="fil3"
       points="54.558,107.207 50.0371,97.4952 50.7315,97.1721 55.2524,106.884 "
       id="polygon82"
       style="fill:#23201d;fill-rule:nonzero" /><polygon
       class="fil3"
       points="62.4465,102.352 58.0884,94.3726 58.7589,94.0074 63.1171,101.987 "
       id="polygon84"
       style="fill:#23201d;fill-rule:nonzero" /><path
       class="fil3"
       d="m 90.9814,82.6553 c -0.823376,0.119641 -1.61375,0.04256 -2.36764,-0.23646 -0.739128,-0.273807 -1.43982,-0.741299 -2.09774,-1.40725 l 0.544575,-0.535455 c 0.575842,0.582791 1.18252,0.989702 1.81634,1.22443 0.633818,0.234506 1.30021,0.298995 1.99677,0.19781 l 0.107699,0.756933 z"
       id="path86"
       inkscape:connector-curvature="0"
       style="fill:#23201d;fill-rule:nonzero" /><path
       class="fil9"
       d="m 52.0493,136.116 c 1.55121,3.62029 3.10243,7.24059 4.65386,10.8611 2.94262,1.03248 5.88501,0.86029 8.82785,-0.13593 1.67976,-3.67458 3.35973,-7.34916 5.03949,-11.0233 -1.05397,-0.6108 -2.10773,-1.2216 -3.16149,-1.8324 -4.36724,1.82024 -8.69952,2.0604 -12.9958,0.71981 -0.788201,0.47031 -1.57597,0.94062 -2.36395,1.41073 z"
       id="path88"
       inkscape:connector-curvature="0"
       style="fill:#990000" /><path
       class="fil3"
       d="m 52.5319,136.273 4.45561,10.3982 c 1.37381,0.46119 2.74785,0.65358 4.12057,0.61775 1.37707,-0.036 2.75935,-0.30269 4.14511,-0.7578 l 4.82583,-10.5558 -2.69856,-1.56424 c -2.16462,0.88178 -4.32338,1.3825 -6.4754,1.50149 -2.15702,0.11942 -4.3047,-0.1444 -6.4424,-0.79168 l -1.93077,1.15212 z m 3.81962,10.8542 -4.65386,-10.8611 0.351542,-0.14961 -0.196073,-0.32765 2.36395,-1.41073 0.147652,-0.0882 0.1622,0.0508 c 2.10447,0.65662 4.21698,0.9263 6.33644,0.80883 2.12184,-0.11726 4.2552,-0.62318 6.39897,-1.51669 l 0.174142,-0.0727 0.163937,0.0951 3.16149,1.8324 0.299864,0.17371 -0.144178,0.3155 -5.03949,11.0233 -0.06927,0.15091 -0.155252,0.0528 c -1.50496,0.5094 -3.01449,0.80839 -4.5277,0.84813 -1.51647,0.0395 -3.03316,-0.18218 -4.54855,-0.71372 l -0.15916,-0.056 -0.06666,-0.15504 z"
       id="path90"
       inkscape:connector-curvature="0"
       style="fill:#23201d;fill-rule:nonzero" /><path
       class="fil9"
       d="m 57.0599,146.955 -2.65144,19.0903 16.1625,-0.13441 c -1.76379,-6.52687 -3.59663,-12.5545 -5.35998,-19.0812 -2.86618,1.10326 -5.58341,1.14517 -8.15104,0.12529 z"
       id="path92"
       inkscape:connector-curvature="0"
       style="fill:#990000" /><path
       class="fil3"
       d="m 57.373,147.478 -2.72331,18.2046 15.2249,-0.12659 -4.92419,-18.2244 c -1.33668,0.47227 -2.64471,0.71828 -3.92255,0.73782 -1.24853,0.0191 -2.46709,-0.17826 -3.65482,-0.59147 z m -3.54104,18.5375 2.84946,-19.1133 0.06709,-0.48204 0.452075,0.17979 c 1.23637,0.49094 2.50943,0.72653 3.8181,0.70656 1.3128,-0.02 2.66533,-0.29791 4.05608,-0.83337 l 0.394969,-0.15221 0.110739,0.40952 5.16195,19.1042 0.128544,0.47617 -0.495068,0.004 -16.1625,0.13441 -0.442087,0.003 0.06058,-0.43731 z"
       id="path94"
       inkscape:connector-curvature="0"
       style="fill:#23201d;fill-rule:nonzero" /><path
       class="fil10"
       d="m 67.584,133.863 c 3.80117,1.95443 7.03865,4.46994 9.95282,7.30464 2.80734,2.73091 5.30982,5.75126 7.72762,8.8513 4.30753,-4.1627 8.42289,-8.44721 12.0619,-13.0322 3.71714,-4.68317 6.9379,-9.68141 9.35853,-15.1851 l 0.70004,0.30833 c -2.44885,5.568 -5.70414,10.6207 -9.460136,15.3528 -3.74754,4.72204 -7.99492,9.12467 -12.4364,13.4022 l -0.306595,0.29509 -0.260562,-0.33548 c -2.48489,-3.19905 -5.04709,-6.31733 -7.91718,-9.10925 -2.86401,-2.78606 -6.04287,-5.25662 -9.77,-7.17306 l 0.350022,-0.67919 z"
       id="path96"
       inkscape:connector-curvature="0"
       style="fill:#666666;fill-rule:nonzero" /><path
       class="fil11"
       d="m 29.9644,31.8105 c 0.232769,0.26903 0.465538,0.538061 0.698307,0.807308 1.47239,-0.357404 2.94479,-0.714809 4.41718,-1.072 7.46576,-8.85694 18.6454,-13.5981 32.3673,-15.523 -5.31243,-0.854427 -10.6218,-1.05093 -15.9256,-0.286836 0.334388,0.251443 0.668993,0.502668 1.0036,0.753893 -14.5331,3.95077 -17.9829,9.72874 -22.5608,15.3206 z"
       id="path98"
       inkscape:connector-curvature="0"
       style="fill:#4d4d4d" /><path
       class="fil4"
       d="m 90.9171,62.6995 c -1.47,-0.03952 -3.19927,2.16245 -3.94404,3.69911 -2.01501,4.16009 3.08115,-0.855078 3.12653,-0.885694 2.29707,-1.54861 4.97457,-2.70138 0.817514,-2.81342 z"
       id="path100"
       inkscape:connector-curvature="0"
       style="fill:#ffe100" /><path
       class="fil11"
       d="m 43.378,124.981 c -13.0995,4.4124 -25.7535,11.0122 -37.9752,19.7406 -1.14387,1.35232 -2.93067,7.36522 -4.61977,12.6683 0.005863,1.14409 0.0115082,2.28839 0.0171537,3.43269 2.28057,-5.08248 4.23652,-10.8596 7.30443,-14.2658 11.8912003,-8.01294 24.6316003,-13.6348 38.3039003,-16.6302 -1.01033,-1.64871 -2.02044,-3.2972 -3.03056,-4.94569 z"
       id="path102"
       inkscape:connector-curvature="0"
       style="fill:#4d4d4d" /><path
       class="fil10"
       d="m 54.5973,135.258 c -3.40012,1.87062 -6.46715,4.24152 -9.35245,6.8834 -2.89593,2.651 -5.61577,5.58016 -8.30737,8.55209 l -0.464452,0.51287 -0.186302,-0.66682 -5.76103,-20.6298 0.736088,-0.20367 5.57495,19.9636 c 2.55286,-2.80929 5.14002,-5.57017 7.89351,-8.09067 2.93111,-2.68379 6.04613,-5.09204 9.49879,-6.99153 l 0.368261,0.67051 z"
       id="path104"
       inkscape:connector-curvature="0"
       style="fill:#666666;fill-rule:nonzero" /><path
       class="fil1"
       d="m 0.40018,90.7165 c 0,6.81696 0,13.6339 0,20.4509 10.2021,5.46247 21.1029,7.19846 32.3219,7.24037 -15.8962,-3.49566 -28.0589,-13.2361 -32.3219,-27.6912 z"
       id="path106"
       inkscape:connector-curvature="0"
       style="fill:#ebf5ff" /><path
       class="fil12"
       d="m 54.9751,136.424 c 1.17687,2.99733 2.35375,5.99467 3.53062,8.99222 1.7918,0.64554 3.58338,0.53394 5.37518,-0.0955 0.943669,-3.02947 1.88734,-6.05872 2.83101,-9.08797 -3.95338,1.54665 -7.86854,1.70625 -11.7368,0.1913 z"
       id="path110"
       inkscape:connector-curvature="0"
       style="fill:#ff0000" /><path
       class="fil12"
       d="m 58.7639,148.903 c -0.802966,5.00887 -1.60615,10.0177 -2.40933,15.0266 1.61918,-5.78253 3.43747,-11.3926 7.60842,-14.9632 -1.73296,0.4879 -3.46613,0.80622 -5.19908,-0.0634 z"
       id="path112"
       inkscape:connector-curvature="0"
       style="fill:#ff0000" /><polygon
       class="fil4"
       points="88.4133,119.91 87.1835,121.031 89.7984,82.6325 90.5213,82.7018 "
       id="polygon114"
       style="fill:#ffe100" /></g></svg>