<?xml version="1.0" encoding="UTF-8" standalone="no"?>
<!-- Creator: CorelDRAW -->

<svg
   xmlns:dc="http://purl.org/dc/elements/1.1/"
   xmlns:cc="http://creativecommons.org/ns#"
   xmlns:rdf="http://www.w3.org/1999/02/22-rdf-syntax-ns#"
   xmlns:svg="http://www.w3.org/2000/svg"
   xmlns="http://www.w3.org/2000/svg"
   xmlns:xlink="http://www.w3.org/1999/xlink"
   xmlns:sodipodi="http://sodipodi.sourceforge.net/DTD/sodipodi-0.dtd"
   xmlns:inkscape="http://www.inkscape.org/namespaces/inkscape"
   xml:space="preserve"
   width="610"
   height="900"
   style="fill-rule:evenodd"
   viewBox="0 0 227.12318 335.0998"
   id="svg2"
   version="1.1"
   inkscape:version="0.48.4 r9939"
   sodipodi:docname="rene.svg"><metadata
     id="metadata731"><rdf:RDF><cc:Work
         rdf:about=""><dc:format>image/svg+xml</dc:format><dc:type
           rdf:resource="http://purl.org/dc/dcmitype/StillImage" /><dc:title /></cc:Work></rdf:RDF></metadata><sodipodi:namedview
     pagecolor="#ffffff"
     bordercolor="#666666"
     borderopacity="1"
     objecttolerance="10"
     gridtolerance="10"
     guidetolerance="10"
     inkscape:pageopacity="0"
     inkscape:pageshadow="2"
     inkscape:window-width="1366"
     inkscape:window-height="713"
     id="namedview729"
     showgrid="false"
     inkscape:zoom="0.32649145"
     inkscape:cx="-248.87494"
     inkscape:cy="631.12263"
     inkscape:window-x="-2"
     inkscape:window-y="-3"
     inkscape:window-maximized="1"
     inkscape:current-layer="svg2"
     borderlayer="true" /><defs
     id="defs4"><linearGradient
       inkscape:collect="always"
       id="linearGradient4030"><stop
         style="stop-color:#a3d963;stop-opacity:1;"
         offset="0"
         id="stop4032" /><stop
         style="stop-color:#a3d963;stop-opacity:0;"
         offset="1"
         id="stop4034" /></linearGradient><linearGradient
       inkscape:collect="always"
       id="linearGradient3226"><stop
         style="stop-color:#ffff00;stop-opacity:1;"
         offset="0"
         id="stop3228" /><stop
         style="stop-color:#a3d963;stop-opacity:0"
         offset="1"
         id="stop3230" /></linearGradient><style
       type="text/css"
       id="style6">
    .str1 {stroke:#744644;stroke-width:0.10053}
    .str2 {stroke:#CC66CC;stroke-width:0.10053}
    .str3 {stroke:#1D1A1F;stroke-width:0.10053}
    .str0 {stroke:#23201D;stroke-width:0.263858}
    .fil50 {fill:none}
    .fil48 {fill:#0C0D10}
    .fil12 {fill:black}
    .fil14 {fill:#003333}
    .fil42 {fill:#333333}
    .fil36 {fill:#423120}
    .fil54 {fill:#4D0000}
    .fil53 {fill:#542C2C}
    .fil64 {fill:#660066}
    .fil44 {fill:#6E0000}
    .fil19 {fill:#744644}
    .fil52 {fill:#915E5A}
    .fil31 {fill:#94605A}
    .fil15 {fill:#990099}
    .fil6 {fill:#9F695A}
    .fil20 {fill:#A77260}
    .fil41 {fill:#AA7462}
    .fil30 {fill:#C28E72}
    .fil7 {fill:#CC66CC}
    .fil51 {fill:#E0A57B}
    .fil8 {fill:#ECB988}
    .fil69 {fill:#FF6600}
    .fil18 {fill:#FF99FF}
    .fil68 {fill:#FFCC00}
    .fil5 {fill:#FFCCCB}
    .fil13 {fill:white}
    .fil55 {fill:#1D1A1F}
    .fil70 {fill:#6E4671}
    .fil17 {fill:#D89480}
    .fil46 {fill:url(#id0)}
    .fil35 {fill:url(#id1)}
    .fil43 {fill:url(#id2)}
    .fil34 {fill:url(#id3)}
    .fil23 {fill:url(#id4)}
    .fil25 {fill:url(#id5)}
    .fil24 {fill:url(#id6)}
    .fil26 {fill:url(#id7)}
    .fil66 {fill:url(#id8)}
    .fil3 {fill:url(#id9)}
    .fil65 {fill:url(#id10)}
    .fil32 {fill:url(#id11)}
    .fil11 {fill:url(#id12)}
    .fil1 {fill:url(#id13)}
    .fil0 {fill:url(#id14)}
    .fil29 {fill:url(#id15)}
    .fil33 {fill:url(#id16)}
    .fil4 {fill:url(#id17)}
    .fil10 {fill:url(#id18)}
    .fil62 {fill:url(#id19)}
    .fil57 {fill:url(#id20)}
    .fil63 {fill:url(#id21)}
    .fil59 {fill:url(#id22)}
    .fil38 {fill:url(#id23)}
    .fil27 {fill:url(#id24)}
    .fil2 {fill:url(#id25)}
    .fil60 {fill:url(#id26)}
    .fil67 {fill:url(#id27)}
    .fil47 {fill:url(#id28)}
    .fil61 {fill:url(#id29)}
    .fil40 {fill:url(#id30)}
    .fil49 {fill:url(#id31)}
    .fil45 {fill:url(#id32)}
    .fil28 {fill:url(#id33)}
    .fil58 {fill:url(#id34)}
    .fil9 {fill:url(#id35)}
    .fil56 {fill:url(#id36)}
    .fil16 {fill:url(#id37)}
    .fil37 {fill:url(#id38)}
    .fil39 {fill:url(#id39)}
    .fil71 {fill:url(#id40)}
    .fil21 {fill:url(#id41)}
    .fil22 {fill:url(#id42)}
   </style><linearGradient
       id="id0"
       gradientUnits="userSpaceOnUse"
       x1="534.987"
       y1="224.785"
       x2="567.89301"
       y2="224.785"><stop
         offset="0"
         style="stop-color:#0C0D10"
         id="stop9" /><stop
         offset="1"
         style="stop-color:#360707"
         id="stop11" /></linearGradient><linearGradient
       id="id1"
       gradientUnits="userSpaceOnUse"
       x1="621.90399"
       y1="106.221"
       x2="582.44702"
       y2="106.221"><stop
         offset="0"
         style="stop-color:#E8C391"
         id="stop14" /><stop
         offset="0.501961"
         style="stop-color:#0C0D10"
         id="stop16" /><stop
         offset="1"
         style="stop-color:#E8C391"
         id="stop18" /></linearGradient><linearGradient
       id="id2"
       gradientUnits="userSpaceOnUse"
       x1="528.72803"
       y1="285.39401"
       x2="588.677"
       y2="285.39401"><stop
         offset="0"
         style="stop-color:#990000"
         id="stop21" /><stop
         offset="0.658824"
         style="stop-color:#990000"
         id="stop23" /><stop
         offset="1"
         style="stop-color:#C21E0F"
         id="stop25" /></linearGradient><linearGradient
       id="id3"
       gradientUnits="userSpaceOnUse"
       x1="531.547"
       y1="107.179"
       x2="564.125"
       y2="107.179"><stop
         offset="0"
         style="stop-color:#E8C391"
         id="stop28" /><stop
         offset="0.490196"
         style="stop-color:#0C0D10"
         id="stop30" /><stop
         offset="1"
         style="stop-color:#E8C391"
         id="stop32" /></linearGradient><linearGradient
       id="id4"
       gradientUnits="userSpaceOnUse"
       xlink:href="#id3"
       x1="95.452103"
       y1="115.577"
       x2="135.405"
       y2="115.577" /><linearGradient
       id="id5"
       gradientUnits="userSpaceOnUse"
       xlink:href="#id3"
       x1="150.681"
       y1="119.072"
       x2="190.116"
       y2="119.072" /><linearGradient
       id="id6"
       gradientUnits="userSpaceOnUse"
       x1="328.95599"
       y1="115.286"
       x2="368.909"
       y2="115.286"><stop
         offset="0"
         style="stop-color:#FFD1D1"
         id="stop37" /><stop
         offset="0.490196"
         style="stop-color:#0C0D10"
         id="stop39" /><stop
         offset="1"
         style="stop-color:#FFD4DC"
         id="stop41" /></linearGradient><linearGradient
       id="id7"
       gradientUnits="userSpaceOnUse"
       xlink:href="#id6"
       x1="384.185"
       y1="118.782"
       x2="423.62"
       y2="118.782" /><linearGradient
       id="id8"
       gradientUnits="userSpaceOnUse"
       x1="810.61401"
       y1="41.807701"
       x2="821.02698"
       y2="229.239"><stop
         offset="0"
         style="stop-color:#FFCCCC"
         id="stop45" /><stop
         offset="0.74902"
         style="stop-color:#FFCCC7"
         id="stop47" /><stop
         offset="1"
         style="stop-color:#EAC200"
         id="stop49" /></linearGradient><linearGradient
       id="id9"
       gradientUnits="userSpaceOnUse"
       x1="346.70401"
       y1="341.84201"
       x2="349.39099"
       y2="207.495"><stop
         offset="0"
         style="stop-color:#0C0D10"
         id="stop52" /><stop
         offset="1"
         style="stop-color:#A11D9D"
         id="stop54" /></linearGradient><linearGradient
       id="id10"
       gradientUnits="userSpaceOnUse"
       xlink:href="#id9"
       x1="814.43597"
       y1="344.345"
       x2="817.94702"
       y2="168.8" /><linearGradient
       id="id11"
       gradientUnits="userSpaceOnUse"
       x1="584.81897"
       y1="344.103"
       x2="579.896"
       y2="166.881"><stop
         offset="0"
         style="stop-color:#0C0D10"
         id="stop58" /><stop
         offset="1"
         style="stop-color:#380909"
         id="stop60" /></linearGradient><linearGradient
       id="id12"
       gradientUnits="userSpaceOnUse"
       x1="416.57501"
       y1="146.194"
       x2="309.94501"
       y2="143.655"><stop
         offset="0"
         style="stop-color:#FFCCCB"
         id="stop63" /><stop
         offset="1"
         style="stop-color:#FFB8B8"
         id="stop65" /></linearGradient><linearGradient
       id="id13"
       gradientUnits="userSpaceOnUse"
       x1="366.84799"
       y1="-3.1044199"
       x2="327.89099"
       y2="345.74701"><stop
         offset="0"
         style="stop-color:#FFCC00"
         id="stop68" /><stop
         offset="1"
         style="stop-color:#ED62AA"
         id="stop70" /></linearGradient><linearGradient
       id="id14"
       gradientUnits="userSpaceOnUse"
       x1="100.291"
       y1="-0.34024501"
       x2="127.441"
       y2="343.564"><stop
         offset="0"
         style="stop-color:#9999FF"
         id="stop73" /><stop
         offset="1"
         style="stop-color:white"
         id="stop75" /></linearGradient><linearGradient
       id="id15"
       gradientUnits="userSpaceOnUse"
       x1="568.41803"
       y1="-0.209503"
       x2="595.69098"
       y2="345.24899"><stop
         offset="0"
         style="stop-color:#9999FF"
         id="stop78" /><stop
         offset="1"
         style="stop-color:white"
         id="stop80" /></linearGradient><linearGradient
       id="id16"
       gradientUnits="userSpaceOnUse"
       x1="571.52399"
       y1="40.527699"
       x2="591.83099"
       y2="228.36"><stop
         offset="0"
         style="stop-color:#FFCC99"
         id="stop83" /><stop
         offset="0.360784"
         style="stop-color:#ECBF8E"
         id="stop85" /><stop
         offset="1"
         style="stop-color:#F29766"
         id="stop87" /></linearGradient><linearGradient
       id="id17"
       gradientUnits="userSpaceOnUse"
       xlink:href="#id16"
       x1="112.803"
       y1="63.629902"
       x2="138.558"
       y2="301.871" /><linearGradient
       id="id18"
       gradientUnits="userSpaceOnUse"
       x1="182.698"
       y1="147.045"
       x2="76.814102"
       y2="143.384"><stop
         offset="0"
         style="stop-color:#FFCC99"
         id="stop91" /><stop
         offset="0.701961"
         style="stop-color:#ECBF8E"
         id="stop93" /><stop
         offset="1"
         style="stop-color:#F29766"
         id="stop95" /></linearGradient><linearGradient
       id="id19"
       gradientUnits="userSpaceOnUse"
       x1="207.326"
       y1="297.51099"
       x2="194.461"
       y2="340.78201"><stop
         offset="0"
         style="stop-color:#760804"
         id="stop98" /><stop
         offset="0.768627"
         style="stop-color:#500101"
         id="stop100" /><stop
         offset="1"
         style="stop-color:#2E0404"
         id="stop102" /></linearGradient><linearGradient
       id="id20"
       gradientUnits="userSpaceOnUse"
       x1="8.01931"
       y1="342.58099"
       x2="42.356998"
       y2="285.35199"><stop
         offset="0"
         style="stop-color:#760804"
         id="stop105" /><stop
         offset="1"
         style="stop-color:#4D0000"
         id="stop107" /></linearGradient><linearGradient
       id="id21"
       gradientUnits="userSpaceOnUse"
       x1="182.576"
       y1="286.24301"
       x2="190.688"
       y2="233.515"><stop
         offset="0"
         style="stop-color:#9C0500"
         id="stop110" /><stop
         offset="0.309804"
         style="stop-color:#740804"
         id="stop112" /><stop
         offset="0.831373"
         style="stop-color:#500101"
         id="stop114" /><stop
         offset="1"
         style="stop-color:#2E0404"
         id="stop116" /></linearGradient><linearGradient
       id="id22"
       gradientUnits="userSpaceOnUse"
       x1="75.437798"
       y1="341.617"
       x2="87.482201"
       y2="263.328"><stop
         offset="0"
         style="stop-color:#760804"
         id="stop119" /><stop
         offset="0.580392"
         style="stop-color:#500101"
         id="stop121" /><stop
         offset="1"
         style="stop-color:#2E0404"
         id="stop123" /></linearGradient><linearGradient
       id="id23"
       gradientUnits="userSpaceOnUse"
       x1="576.76703"
       y1="186.841"
       x2="577.43799"
       y2="166.694"><stop
         offset="0"
         style="stop-color:#CB6C6E"
         id="stop126" /><stop
         offset="1"
         style="stop-color:#E8C391"
         id="stop128" /></linearGradient><linearGradient
       id="id24"
       gradientUnits="userSpaceOnUse"
       x1="133.12399"
       y1="299.526"
       x2="121.325"
       y2="185.489"><stop
         offset="0"
         style="stop-color:#E6BF9C"
         id="stop131" /><stop
         offset="0.54902"
         style="stop-color:#AA7462"
         id="stop133" /><stop
         offset="0.701961"
         style="stop-color:#8E5B58"
         id="stop135" /><stop
         offset="0.780392"
         style="stop-color:#542C2C"
         id="stop137" /><stop
         offset="1"
         style="stop-color:#542C2C"
         id="stop139" /></linearGradient><linearGradient
       id="id25"
       gradientUnits="userSpaceOnUse"
       x1="119.821"
       y1="206.35699"
       x2="109.267"
       y2="343.561"><stop
         offset="0"
         style="stop-color:black"
         id="stop142" /><stop
         offset="0.188235"
         style="stop-color:#950100"
         id="stop144" /><stop
         offset="1"
         style="stop-color:#610E07"
         id="stop146" /></linearGradient><linearGradient
       id="id26"
       gradientUnits="userSpaceOnUse"
       xlink:href="#id22"
       x1="163.159"
       y1="328.74701"
       x2="169.658"
       y2="286.508" /><linearGradient
       id="id27"
       gradientUnits="userSpaceOnUse"
       x1="814.91901"
       y1="121.828"
       x2="832.18103"
       y2="225.401"><stop
         offset="0"
         style="stop-color:#CC66CC"
         id="stop150" /><stop
         offset="0.658824"
         style="stop-color:#AE5FB0"
         id="stop152" /><stop
         offset="0.831373"
         style="stop-color:#7C5282"
         id="stop154" /><stop
         offset="1"
         style="stop-color:#6D4E75"
         id="stop156" /></linearGradient><linearGradient
       id="id28"
       gradientUnits="userSpaceOnUse"
       x1="639.49597"
       y1="129.717"
       x2="648.35602"
       y2="129.967"><stop
         offset="0"
         style="stop-color:#622E2F"
         id="stop159" /><stop
         offset="1"
         style="stop-color:#C7948B"
         id="stop161" /></linearGradient><linearGradient
       id="id29"
       gradientUnits="userSpaceOnUse"
       xlink:href="#id22"
       x1="126.41"
       y1="336.82901"
       x2="131.064"
       y2="306.582" /><linearGradient
       id="id30"
       gradientUnits="userSpaceOnUse"
       xlink:href="#id24"
       x1="572.65601"
       y1="119.4"
       x2="603.01801"
       y2="225.67" /><linearGradient
       id="id31"
       gradientUnits="userSpaceOnUse"
       xlink:href="#id24"
       x1="71.775497"
       y1="136.19901"
       x2="79.131599"
       y2="156.118" /><linearGradient
       id="id32"
       gradientUnits="userSpaceOnUse"
       x1="593.78699"
       y1="172.666"
       x2="630.96503"
       y2="266.85001"><stop
         offset="0"
         style="stop-color:black"
         id="stop167" /><stop
         offset="0.509804"
         style="stop-color:#290606"
         id="stop169" /><stop
         offset="1"
         style="stop-color:#300808"
         id="stop171" /></linearGradient><linearGradient
       id="id33"
       gradientUnits="userSpaceOnUse"
       x1="72.770401"
       y1="145.646"
       x2="64.133202"
       y2="132.244"><stop
         offset="0"
         style="stop-color:#E6BF9C"
         id="stop174" /><stop
         offset="0.0117647"
         style="stop-color:#AA7462"
         id="stop176" /><stop
         offset="0.368627"
         style="stop-color:#8E5B58"
         id="stop178" /><stop
         offset="0.780392"
         style="stop-color:#542C2C"
         id="stop180" /><stop
         offset="1"
         style="stop-color:#542C2C"
         id="stop182" /></linearGradient><linearGradient
       id="id34"
       gradientUnits="userSpaceOnUse"
       xlink:href="#id20"
       x1="74.623802"
       y1="306.017"
       x2="62.176601"
       y2="340.86899" /><linearGradient
       id="id35"
       gradientUnits="userSpaceOnUse"
       x1="87.885597"
       y1="155.601"
       x2="61.210899"
       y2="143.005"><stop
         offset="0"
         style="stop-color:#FFCC99"
         id="stop186" /><stop
         offset="0.360784"
         style="stop-color:#ECBF8E"
         id="stop188" /><stop
         offset="1"
         style="stop-color:#C47347"
         id="stop190" /></linearGradient><linearGradient
       id="id36"
       gradientUnits="userSpaceOnUse"
       x1="153.033"
       y1="270.30301"
       x2="148.336"
       y2="286.74399"><stop
         offset="0"
         style="stop-color:#0C0D10"
         id="stop193" /><stop
         offset="0.45098"
         style="stop-color:#7B4443"
         id="stop195" /><stop
         offset="1"
         style="stop-color:#C28E72"
         id="stop197" /></linearGradient><linearGradient
       id="id37"
       gradientUnits="userSpaceOnUse"
       x1="146.161"
       y1="155.412"
       x2="141.355"
       y2="140.325"><stop
         offset="0"
         style="stop-color:#7A4242"
         id="stop200" /><stop
         offset="1"
         style="stop-color:#C28E72"
         id="stop202" /></linearGradient><linearGradient
       id="id38"
       gradientUnits="userSpaceOnUse"
       xlink:href="#id37"
       x1="581.45898"
       y1="145.03101"
       x2="576.56"
       y2="129.65199" /><radialGradient
       id="id39"
       gradientUnits="userSpaceOnUse"
       cx="576.302"
       cy="170.44"
       r="23.307899"
       fx="576.302"
       fy="170.44"><stop
         offset="0"
         style="stop-color:white"
         id="stop206" /><stop
         offset="0.521569"
         style="stop-color:#E6E6E6"
         id="stop208" /><stop
         offset="1"
         style="stop-color:#636363"
         id="stop210" /></radialGradient><radialGradient
       id="id40"
       gradientUnits="userSpaceOnUse"
       cx="810.13599"
       cy="171.52"
       r="23.307899"
       fx="810.13599"
       fy="171.52"><stop
         offset="0"
         style="stop-color:white"
         id="stop213" /><stop
         offset="0.521569"
         style="stop-color:#EDEDED"
         id="stop215" /><stop
         offset="1"
         style="stop-color:gray"
         id="stop217" /></radialGradient><radialGradient
       id="id41"
       gradientUnits="userSpaceOnUse"
       cx="141.65401"
       cy="180.188"
       r="16.931"
       fx="141.65401"
       fy="180.188"><stop
         offset="0"
         style="stop-color:white"
         id="stop220" /><stop
         offset="0.439216"
         style="stop-color:#FEFEFE"
         id="stop222" /><stop
         offset="1"
         style="stop-color:#D9D9D9"
         id="stop224" /></radialGradient><radialGradient
       id="id42"
       gradientUnits="userSpaceOnUse"
       cx="375.15799"
       cy="179.897"
       r="16.931"
       fx="375.15799"
       fy="179.897"><stop
         offset="0"
         style="stop-color:white"
         id="stop227" /><stop
         offset="0.439216"
         style="stop-color:#FEFEFE"
         id="stop229" /><stop
         offset="1"
         style="stop-color:#E0E0E0"
         id="stop231" /></radialGradient><linearGradient
       inkscape:collect="always"
       xlink:href="#id16"
       id="linearGradient3176"
       gradientUnits="userSpaceOnUse"
       x1="571.52399"
       y1="40.527699"
       x2="591.83099"
       y2="228.36" /><linearGradient
       inkscape:collect="always"
       xlink:href="#id3"
       id="linearGradient3178"
       gradientUnits="userSpaceOnUse"
       x1="531.547"
       y1="107.179"
       x2="564.125"
       y2="107.179" /><linearGradient
       inkscape:collect="always"
       xlink:href="#linearGradient3226"
       id="linearGradient3232"
       x1="42.880142"
       y1="118.96883"
       x2="99.54319"
       y2="149.5975"
       gradientUnits="userSpaceOnUse" /><linearGradient
       inkscape:collect="always"
       xlink:href="#linearGradient4030"
       id="linearGradient4036"
       x1="116.1701"
       y1="340.17407"
       x2="116.00054"
       y2="1.4904946"
       gradientUnits="userSpaceOnUse"
       gradientTransform="matrix(1.2286706,0,0,0.99410122,-29.626123,-93.251302)" /></defs><rect
     style="fill:url(#linearGradient4036);fill-opacity:1;stroke:#000080;stroke-width:3.25897336"
     id="rect4002"
     width="285.47833"
     height="339.24316"
     x="-28.743902"
     y="-93.84996" /><g
     id="Ebene_x0020_1"
     transform="matrix(1.1484081,0,0,1.1484081,-554.70996,-13.297215)"><metadata
       id="CorelCorpID_0Corel-Layer" /><path
       class="fil19"
       d="m 641.488,105.805 c 4.27134,-3.16102 7.61732,-3.1696 9.6109,1.42892 -0.0996,2.62235 -0.19921,5.24458 -0.29882,7.86693 -0.13998,4.96845 -0.68379,8.58436 -1.99833,13.3781 -0.17639,4.03848 -0.56004,9.52106 -0.24143,12.7573 0.26742,2.71602 -4.83665,9.21432 -8.67737,7.83791 -0.34658,-10.536 -0.69315,-21.072 -1.03973,-31.6078 0.88155,-3.88716 1.76323,-7.77418 2.64478,-11.6613 z"
       id="path399"
       inkscape:connector-curvature="0"
       style="fill:#744644" /><path
       class="fil19"
       d="m 533.761,176.839 c 6.1727,7.39805 10.617,16.1106 19.754,22.3415 -1.30623,-1.57128 -2.45177,-3.27065 -3.24427,-5.25262 8.16245,8.80719 15.5531,15.8788 28.426,13.595 8.65996,-1.99846 13.2958,-4.36303 20.856,-9.11485 29.8676,-24.5825 36.4929,-35.8222 37.5408,-73.8457 0.97839,0.0516 2.54623,-0.53022 3.52475,-0.47877 3.56565,43.6836 -9.33781,71.3326 -52.0005,94.8067 -1.08142,1.3904 -3.16709,3.32145 -4.24851,4.71185 -2.71259,-7.62194 -16.8293,-11.303 -26.5286,-14.9978 -1.80241,-2.47182 -3.60483,-4.94365 -5.40711,-7.41547 -10.3638,-8.61193 -14.1225,-16.9922 -18.6726,-24.3499 z"
       id="path401"
       inkscape:connector-curvature="0"
       style="fill:#744644" /><path
       class="fil30"
       d="m 522.973,109.912 c -0.74606,-1.20913 -1.49212,-2.41826 -2.23818,-3.62739 -1.18222,1.55848 -1.79028,1.79951 -1.38921,3.70457 0.12863,1.05477 0.25726,2.10955 0.38589,3.16432 0.18008,2.77843 0.36017,5.55685 0.54025,8.33528 0.64315,2.80415 1.28631,5.6083 1.92946,8.41246 0.84316,9.65299 -3.34295,16.0059 3.03674,20.9238 -0.33444,-13.532 -1.93052,-27.3811 -2.26496,-40.913 z"
       id="path403"
       inkscape:connector-curvature="0"
       style="fill:#c28e72" /><path
       class="fil31"
       d="m 587.596,96.4545 c -9.52792,1.43275 -19.0089,2.52275 -29.0789,7.09488 2.02115,-0.30027 4.0683,-0.39658 6.17362,-0.0445 -11.7654,2.40137 -21.6469,5.04444 -26.3807,17.2313 -2.78977,8.43831 -3.17672,13.628 -3.04228,22.5566 5.49577,38.2906 11.6599,49.7896 43.6093,70.4324 -0.55225,0.80938 -0.86928,2.45124 -1.42154,3.26076 -51.8109,-25.5044 -51.805,-66.2012 -53.7323,-76.6981 0,0 -1.12878,-17.0542 -1.12878,-17.0542 -0.62653,-1.64634 0.58075,-12.3623 -0.0458,-14.0085 7.92221,1.64027 17.474,-0.50357 25.6688,-6.87337 3.04835,-0.2566 6.09684,-0.51307 9.14506,-0.76954 12.742,-4.384002 21.5828,-5.060532 30.2335,-5.127692 z"
       id="path405"
       inkscape:connector-curvature="0"
       style="fill:#94605a" /><path
       class="fil30"
       d="m 641.013,106.253 c 4.27134,-3.16115 7.61732,-3.1696 9.6109,1.42892 -0.0996,2.62235 -0.19921,5.24458 -0.29882,7.86693 -0.13998,4.96845 -0.68379,8.58436 -1.99833,13.3781 -0.17639,4.03848 -0.56004,9.52106 -0.24143,12.7573 0.26742,2.71602 -4.83665,9.21432 -8.6775,7.83791 -0.34658,-10.536 -0.69302,-21.072 -1.0396,-31.6078 0.88155,-3.88716 1.76323,-7.77418 2.64478,-11.6613 z"
       id="path407"
       inkscape:connector-curvature="0"
       style="fill:#c28e72" /><polygon
       class="fil32 str0"
       points="687.782,203.834 696.738,211.25 696.738,342.804 467.977,342.804 467.977,221.137 488.027,208.623 491.735,207.387 499.923,202.289 506.875,200.126 515.218,195.183 522.015,191.166 526.65,190.548 543.489,183.905 636.482,168.18 640.354,174.018 640.199,175.563 651.013,181.279 659.201,188.076 678.049,198.427 683.147,202.135 "
       id="polygon409"
       style="fill:url(#id11);stroke:#23201d;stroke-width:0.26385799" /><path
       class="fil33 str1"
       d="m 523.538,105.295 c -0.20594,6.79751 0.0512,11.5112 -0.15489,18.3087 0.51506,4.84061 0.56677,11.765 1.08182,16.6058 2.66602,24.8618 11.554,42.7756 27.808,59.9417 5.87058,8.13633 11.7412,16.2728 17.6117,24.4092 3.19268,1.98184 6.3855,2.54847 9.57831,2.47182 2.83226,-3.14136 5.66451,-6.28259 8.49689,-9.42382 26.77211,-14.1173 43.8469,-35.5265 51.3108,-67.9114 -0.30897,-6.43708 0.752,-12.3199 0.44302,-18.7569 -0.20607,-2.31733 -0.41201,-4.63467 -0.61795,-6.952 -4.79391,-21.6328 -9.58768,-43.2657 -14.3815,-64.8987 -13.0856,-5.77005 -26.1713,-11.5401 -39.2569,-17.3101 -12.8796,3.60628 -25.7591,7.21256 -38.6387,10.8188 -7.00649,6.49131 -14.013,12.9826 -21.0195,19.4739 -0.75371,11.0744 -1.50742,22.1486 -2.26113,33.2229 z"
       id="path411"
       inkscape:connector-curvature="0"
       style="fill:url(#linearGradient3176);stroke:#744644;stroke-width:0.10053" /><path
       class="fil30"
       d="m 523.453,111.07 c 4.56699,-12.4487 7.31045,-19.6535 6.90583,-32.7955 9.56881,-12.6578 12.4013,-14.9825 28.0158,-17.288 8.18092,0.205809 16.3618,0.411619 24.5428,0.617428 -0.69461,-0.797511 -1.38921,-1.59502 -2.08382,-2.39253 8.36747,0.443677 16.4839,2.30889 24.234,6.25146 12.1187,7.86957 16.4079,7.75519 15.5129,20.9154 1.1309,6.66031 6.64421,9.86882 11.4224,14.509602 0.7669,4.19429 1.53394,8.38858 2.30097,12.5827 0.18483,-9.77673 0.36967,-19.553602 0.55463,-29.330502 -3.78175,-5.83984 -7.56349,-11.6797 -11.3452,-17.5195 -15.6762,-5.31067 -31.3524,-10.6213 -47.0286,-15.9321 -14.934,3.96526 -29.8679,7.93052 -44.8018,11.8956 -2.17709,6.33668 -4.35419,12.6732 -6.53128,19.0098 -0.56624,9.82542 -1.13248,19.650802 -1.69859,29.476102 z"
       id="path413"
       inkscape:connector-curvature="0"
       style="fill:#c28e72" /><path
       class="fil12"
       d="m 584.238,58.7431 -8.2581,-2.39253 2.08382,2.23818 -6.01992,-0.231535 1.23486,1.85228 -14.7411,-0.385892 -13.0432,2.46971 -5.32532,-0.231535 3.9361,1.92946 -7.1776,0.617428 1.69793,2.161 -4.39917,3.2415 0.0772,2.39253 -7.10042,7.25478 2.31535,-0.231535 -1.31203,1.85228 0.84896,0 -0.46307,2.23818 0.46307,2.70125 -0.61743,1.92946 1.23486,1.0805 -1.0805,0.848963 0.61743,1.62075 -3.55021,8.798346 -2.20651,10.5733 -2.96445,-5.47954 -0.84896,-15.049796 2.161,-13.1203 -1.85228,1.62075 2.08382,-8.95271 -2.93278,0.848963 2.93278,-6.17428 -1.38921,-1.85228 3.31868,-3.9361 5.47967,-8.2581 -2.23818,0 8.79835,-7.79503 -4.39917,1.23486 12.966,-10.1876 -0.61743,-1.23486 5.71121,-1.0805 3.47303,-4.55353 -0.38589,2.93278 2.62407,-2.39253 4.55353,-1.77511 -1.54357,-1.85228 3.70457,2.08382 4.70789,-2.46971 4.55353,-0.07718 2.54689,-1.46639 6.32864,0.385892 3.78175,-1.00332 3.00996,1.69793 2.161,-1.23486 2.161,1.62075 3.8113,0.884584 -0.96308,-1.73355 4.66132,2.65811 2.92777,0.539326 3.35153,1.61798 -0.26967,-1.19422 3.77528,2.50401 0.84752,-1.50241 0.69341,2.00321 1.50241,0.23114 1.88764,2.65811 3.62119,2.3114 -1.84912,-3.00482 3.50562,4.27608 3.77528,2.96629 1.61798,-2.42697 0.0385,3.65971 2.54254,2.65811 0.30818,-1.23275 2.96629,5.54735 1.50241,-1.11718 0.11557,3.92937 1.30979,-0.886036 -0.30818,2.195831 1.30979,0.192616 -1.23275,1.19422 2.8122,-0.693419 -1.19422,1.50241 c 0,0 2.27287,0.154093 2.08026,0.192616 -0.19262,0.03852 -1.6565,1.23275 -1.6565,1.23275 l 1.96469,0.693419 -2.23435,1.77207 5.16212,4.50722 -1.54093,-0.23114 2.46549,4.85393 -1.46388,-0.462279 2.46549,2.77368 -1.77207,-0.154093 2.08026,4.54575 -1.57945,-0.308187 2.50401,8.35955 -1.34831,-0.500803 1.51626,4.72979 -0.54025,1.69793 2.54689,10.4191 -0.77179,4.939426 -1.62075,3.2415 -1.85228,2.161 0.15436,3.78175 -0.84896,-1.38921 0.15435,5.40249 -1.0805,-1.77511 0.77179,9.02988 -4.30682,0.49803 -0.49803,-5.36028 -1.98685,-10.4191 -0.15436,-7.1776 -3.70457,-2.469714 2.62407,0.540249 -10.1104,-8.48963 4.93942,1.23486 -5.17096,-5.17096 -0.23153,-10.8822 -2.77843,-1.77511 -2.00664,-3.78175 -3.39585,-0.617428 -0.46308,-2.46971 -5.09378,-0.848963 2.161,-2.161 -4.01328,-0.308714 -14.6639,-3.39585 -5.78839,-2.31535 -1.0805,1.31203 z"
       id="path415"
       inkscape:connector-curvature="0"
       style="fill:#000000" /><path
       class="fil34"
       d="m 562.74,107.926 -7.82484,-2.41932 c 0,0 5.11634,3.23477 5.40368,2.49715 0.28734,-0.73775 -9.84666,-1.60333 -9.84666,-1.60333 l 3.78768,1.63091 -11.0447,-0.0631 5.37928,0.66228 -9.79019,1.18934 3.31947,0.3537 -5.76187,0.47785 -3.3167,3.73597 1.72484,-3.89428 -3.22342,1.10491 3.22989,-3.52541 -2.74874,1.29528 6.66651,-6.18483 -3.80074,1.54502 7.88975,-4.757359 8.15256,1.157019 5.28692,-0.75384 6.96889,1.94609 -2.98001,0.0957 3.61947,2.13712 -2.79967,-0.077 3.09347,3.07197 -2.74531,-1.16361 1.36045,1.54185 z"
       id="path417"
       inkscape:connector-curvature="0"
       style="fill:url(#linearGradient3178)" /><path
       class="fil35"
       d="m 584.133,107.758 9.33029,-2.65943 c 0,0 -6.02916,3.38477 -6.40753,2.65943 -0.37837,-0.72535 11.8034,-1.91152 11.8034,-1.91152 l -4.49654,1.74529 13.3147,-0.41597 -6.45753,0.83155 11.8561,0.87139 -3.98703,0.45832 6.96796,0.29169 4.16091,3.61446 -2.24833,-3.82304 3.93452,0.99739 -4.04692,-3.40746 3.37039,1.20201 -8.30573,-5.94604 4.64958,1.41705 -9.71895,-4.485321 -9.78003,1.412831 -6.40753,-0.58168 -8.31852,2.16073 3.59718,0 -4.27173,2.24398 3.37237,-0.16623 -3.59718,3.15812 3.25997,-1.2466 -1.57378,1.57906 z"
       id="path419"
       inkscape:connector-curvature="0"
       style="fill:url(#id1)" /><path
       class="fil13"
       d="m 542.418,119.219 c 1.75809,0.89976 4.20168,1.50043 8.33132,1.36626 3.19308,-0.40766 6.27666,-1.03485 9.05746,-2.26971 -2.55942,-1.70175 -5.69683,-2.36232 -9.0188,-2.69017 -3.26683,0.63022 -5.9281,1.98157 -8.36998,3.59362 z"
       id="path421"
       inkscape:connector-curvature="0"
       style="fill:#ffffff" /><path
       class="fil12"
       d="m 537.318,120.939 c 0.86163,-0.28721 2.91761,-0.61307 3.77924,-0.90028 4.29231,-2.71114 6.96651,-4.0493 11.5113,-4.18492 2.59597,-0.0772 4.85182,1.42668 7.19818,2.46166 -2.53502,-1.8631 -4.20695,-3.63583 -7.59041,-3.59058 -2.38673,0.0319 -4.09758,0.37481 -5.76899,1.10042 -2.81378,1.22166 -6.00198,3.76723 -9.12936,5.1137 z"
       id="path423"
       inkscape:connector-curvature="0"
       style="fill:#000000" /><path
       class="fil12"
       d="m 547.602,116.409 c -0.29763,1.32971 -0.0811,2.65929 0.48721,3.98914 2.70441,0.0103 5.10803,-0.18364 7.75875,-0.82495 0.43299,-1.08538 0.55846,-2.28237 0.30133,-3.28635 -2.84901,-0.7735 -5.69828,-0.7326 -8.54729,0.12216 z"
       id="path425"
       inkscape:connector-curvature="0"
       style="fill:#000000" /><path
       class="fil12"
       d="m 543.135,119.618 c 3.12105,0.69962 5.69564,0.80094 8.43937,0.38695 2.71431,-0.40938 5.01449,-0.6421 7.68144,-1.39832 -4.99721,2.14715 -10.8703,3.07962 -16.1208,1.01137 z"
       id="path427"
       inkscape:connector-curvature="0"
       style="fill:#000000" /><path
       class="fil36"
       d="m 548.294,118.47 c -0.0208,0.8483 0.0384,1.18565 0.29103,1.64595 2.19385,0.0352 4.3753,-0.16729 6.54368,-0.63075 0.41492,-0.72627 0.47534,-1.45214 0.37495,-2.17854 -0.85675,-0.33576 -1.71349,-0.36162 -2.57024,-0.0776 -0.22085,2.161 -2.81853,1.73948 -2.87341,0.24302 -0.58867,0.33272 -1.17733,0.66531 -1.766,0.99791 z"
       id="path429"
       inkscape:connector-curvature="0"
       style="fill:#423120" /><ellipse
       class="fil13"
       cx="549.17297"
       cy="117.376"
       rx="0.91500598"
       ry="0.87073201"
       id="ellipse431"
       d="m 550.08798,117.376 c 0,0.48089 -0.40966,0.87073 -0.91501,0.87073 -0.50534,0 -0.915,-0.38984 -0.915,-0.87073 0,-0.48089 0.40966,-0.87073 0.915,-0.87073 0.50535,0 0.91501,0.38984 0.91501,0.87073 z"
       sodipodi:cx="549.17297"
       sodipodi:cy="117.376"
       sodipodi:rx="0.91500598"
       sodipodi:ry="0.87073201"
       style="fill:#ffffff" /><ellipse
       class="fil13"
       cx="548.83301"
       cy="119.014"
       rx="0.481765"
       ry="0.458453"
       id="ellipse433"
       d="m 549.31477,119.014 c 0,0.2532 -0.21569,0.45845 -0.48176,0.45845 -0.26607,0 -0.48177,-0.20525 -0.48177,-0.45845 0,-0.2532 0.2157,-0.45845 0.48177,-0.45845 0.26607,0 0.48176,0.20525 0.48176,0.45845 z"
       sodipodi:cx="548.83301"
       sodipodi:cy="119.014"
       sodipodi:rx="0.481765"
       sodipodi:ry="0.458453"
       style="fill:#ffffff" /><path
       class="fil12"
       d="m 537.797,119.262 c 2.23963,-1.94318 3.70985,-2.9027 6.63194,-3.72317 3.58992,-1.00781 7.27153,-1.31269 11.0117,-1.16929 1.92616,0.88604 3.85233,1.77207 5.77849,2.65811 -1.91337,-1.05293 -3.82673,-2.10585 -5.73997,-3.15891 -3.98505,-0.0204 -7.75901,0.3599 -11.2528,1.27232 -3.32778,0.86915 -4.27411,1.57062 -6.42943,4.12094 z"
       id="path435"
       inkscape:connector-curvature="0"
       style="fill:#000000" /><path
       class="fil37"
       d="m 561.525,150.793 c 1.7474,-4.43849 5.72862,-1.57365 8.17815,-0.18536 5.50632,3.12171 6.94567,1.76204 11.3067,-3.22184 3.77238,-4.31131 1.52774,-6.82047 0.48985,-11.9239 -0.15277,-0.75094 -0.18417,-1.52193 -0.27626,-2.28303 -0.68101,-4.65498 -1.75769,-12.0803 -2.43858,-16.7355 1.3247,1.98091 2.6494,3.9617 3.9741,5.94261 1.18855,4.71699 2.77288,12.2042 3.9613,16.9212 1.42378,1.52273 2.84742,3.04558 4.27134,4.56844 5.50223,7.7073 -1.80294,9.8989 -6.27692,10.8082 -4.61158,3.55549 -8.78331,2.74861 -13.5566,-0.85437 -1.65756,-0.0796 -3.31511,-0.15911 -4.97267,-0.23853 -2.49926,-0.69751 -4.17872,-1.59858 -4.66039,-2.79795 z"
       id="path437"
       inkscape:connector-curvature="0"
       style="fill:url(#id38)" /><path
       class="fil12"
       d="m 563.425,141.922 c -5.67981,6.77113 -4.31566,10.7645 4.09257,11.9799 -7.03485,-1.39832 -8.76471,-5.22426 -4.09257,-11.9799 z"
       id="path439"
       inkscape:connector-curvature="0"
       style="fill:#000000" /><path
       class="fil12"
       d="m 563.618,150.376 c 0.41465,-0.77376 1.16968,-1.26903 2.6742,-1.15148 2.36153,1.05794 4.64575,2.89017 6.90833,4.93982 -2.62842,-1.63196 -4.85816,-3.41353 -7.05174,-3.43794 -1.40821,-0.0157 -1.36626,0.61162 -2.5308,-0.3504 z"
       id="path441"
       inkscape:connector-curvature="0"
       style="fill:#000000" /><path
       class="fil12"
       d="m 586.105,148.893 c -2.49293,-0.61228 -4.90816,0.7954 -7.29554,2.9341 0.74685,-0.3004 1.4937,-0.60081 2.24042,-0.90108 4.27714,1.00358 4.72807,-0.47481 5.05513,-2.03302 z"
       id="path443"
       inkscape:connector-curvature="0"
       style="fill:#000000" /><path
       class="fil12"
       d="m 587.872,141.313 c 2.16324,2.55204 4.21078,5.14774 2.67407,9.09967 -1.26269,0.81717 -2.52552,1.63421 -3.78834,2.45137 1.54951,-0.49935 3.09954,-0.99343 4.64272,-1.74569 1.86891,-4.07634 -0.52547,-7.02166 -3.52844,-9.80536 z"
       id="path445"
       inkscape:connector-curvature="0"
       style="fill:#000000" /><path
       class="fil30"
       d="m 569.507,116.889 c -0.59724,0.41175 -1.19462,0.8235 -1.79186,1.23538 -0.5669,0.80622 -1.13393,1.61244 -1.70083,2.41879 1.88038,3.09294 0.20159,10.4943 -1.77893,18.2607 2.46417,-6.77469 4.42345,-13.9283 5.27162,-21.9149 z"
       id="path447"
       inkscape:connector-curvature="0"
       style="fill:#c28e72" /><path
       class="fil38"
       d="m 554.296,169.346 c 0.77179,-0.0515 1.54357,-0.10291 2.31535,-0.15436 3.50879,1.42246 6.44724,2.77711 9.64731,4.78507 2.27129,0.0668 4.27608,0.46307 6.56017,0.46307 1.10623,0.25727 2.21245,0.51453 3.31868,0.77179 3.0254,-0.98657 4.98468,-1.15768 8.18092,-1.15768 4.40287,-3.71499 10.2518,-5.15091 15.5901,-7.25478 -4.81871,8.29029 -6.52864,14.7168 -15.4357,17.9054 -19.7491,0.71083 -22.9161,2.03171 -30.1768,-15.3585 z"
       id="path449"
       inkscape:connector-curvature="0"
       style="fill:url(#id23)" /><path
       class="fil39"
       d="m 552.994,169.939 c 0.58075,-3.09783 2.85983,-1.63909 4.70789,-0.46307 1.49212,0.12863 2.98424,0.25726 4.47635,0.38589 4.4245,-2.06469 7.53104,-1.41085 12.4257,-1.15768 1.62075,-0.28299 3.2415,-0.56598 4.86225,-0.84896 5.00974,-1.20227 6.54381,-1.17483 11.4996,0.23153 2.95389,-0.24816 5.03652,-0.41214 7.10042,-2.23818 0.51452,0.25726 1.02905,0.51453 1.54357,0.77179 -0.28299,0.38589 -0.56598,0.77178 -0.84896,1.15768 -4.24482,1.62075 -8.48963,3.2415 -12.7345,4.86225 -0.72034,0.51452 -1.44067,1.02905 -2.161,1.54357 -2.95851,0.28299 -5.91702,0.56597 -8.87553,0.84896 -2.22195,-0.37032 -4.08373,-0.60621 -6.32864,-0.54025 -1.6722,-0.66888 -3.3444,-1.33776 -5.0166,-2.00664 -1.82656,-0.64315 -3.65312,-1.28631 -5.47967,-1.92946 -1.20913,-0.38589 -2.41826,-0.77178 -3.62739,-1.15768 -0.51453,0.18008 -1.02905,0.36017 -1.54357,0.54025 z"
       id="path451"
       inkscape:connector-curvature="0"
       style="fill:url(#id39)" /><path
       class="fil19"
       d="m 559.215,179.065 c 2.35058,2.35929 4.52108,4.16619 8.2767,5.31371 1.8912,0.57785 3.73214,0.34183 6.2847,0.0441 2.72697,-0.0257 5.45395,-0.0515 8.18092,-0.0772 7.95954,-2.42829 10.4505,-6.63155 15.9759,-13.0432 -5.04404,7.66138 -6.23919,11.7785 -14.8954,14.6639 -3.19004,0.0515 -6.38009,0.1029 -9.57013,0.15435 -2.49161,0.17481 -4.29429,0.24434 -6.06874,-0.40871 -4.16038,-1.53117 -6.37455,-3.83465 -8.18396,-6.64698 z"
       id="path453"
       inkscape:connector-curvature="0"
       style="fill:#744644" /><path
       class="fil31"
       d="m 566.02,169.085 c 3.21577,0.1029 6.43154,0.20581 9.64731,0.30871 3.02592,-0.52296 5.97784,-0.90872 8.79835,-2.1511 1.1834,0.10291 2.36681,0.20581 3.55021,0.30872 4.6782,1.5594 5.97454,0.4194 10.7278,-1.09039 -1.49212,-0.10291 -2.98424,-0.20581 -4.47635,-0.30872 -6.41465,-2.42327 -11.1221,-4.24455 -17.7511,-0.61742 -8.72302,-0.89 -11.131,-0.94119 -18.8316,3.39585 -0.64315,0.0257 -1.28631,0.0514 -1.92946,0.0772 4.1121,1.79239 6.0256,1.43367 10.2647,0.0772 z"
       id="path455"
       inkscape:connector-curvature="0"
       style="fill:#94605a" /><path
       class="fil30"
       d="m 565.79,168.476 c 3.21577,0.1029 6.43154,0.20581 9.64731,0.30871 3.02592,-0.52296 5.97784,-0.90872 8.79835,-2.1511 1.1834,0.10291 2.36681,0.20581 3.55021,0.30872 4.6782,1.5594 5.97454,0.4194 10.7278,-1.09039 -1.49212,-0.10291 -2.98424,-0.20581 -4.47635,-0.30872 -6.41465,-2.42327 -11.1221,-4.24455 -17.7511,-0.61742 -8.72302,-0.89 -11.131,-0.94119 -18.8316,3.39585 -0.64315,0.0257 -1.28631,0.0514 -1.92946,0.0772 4.1121,1.79239 6.0256,1.43367 10.2647,0.0772 z"
       id="path457"
       inkscape:connector-curvature="0"
       style="fill:#c28e72" /><path
       class="fil40"
       d="m 533.502,173.546 c 5.86398,7.39805 10.2187,18.1214 19.3557,24.3523 -1.30623,-1.57128 -2.45177,-3.27065 -3.24427,-5.25262 8.16245,8.80719 15.5531,15.8788 28.426,13.595 8.65996,-1.99846 13.2958,-4.36303 20.856,-9.11485 29.8676,-24.5825 36.4929,-35.8222 37.5408,-73.8457 0.97839,0.0516 2.54623,-0.53022 3.52475,-0.47877 2.21205,45.5282 -9.67502,72.264 -52.0005,94.8067 -1.08142,1.3904 -3.16709,3.32145 -4.24851,4.71185 -2.71259,-7.62194 -16.8293,-11.303 -26.5286,-14.9978 -1.80241,-2.47182 -3.60483,-4.94365 -5.40711,-7.41547 -10.3638,-8.61193 -14.3036,-19.0965 -18.2743,-26.3606 z"
       id="path459"
       inkscape:connector-curvature="0"
       style="fill:url(#id30)" /><path
       class="fil41"
       d="m 560.268,122.572 c -8.64399,5.42189 -15.487,5.66622 -20.8382,1.62075 5.55052,2.84927 12.4065,2.52763 20.8382,-1.62075 z"
       id="path461"
       inkscape:connector-curvature="0"
       style="fill:#aa7462" /><polygon
       class="fil13"
       points="603.781,114.47 611.072,117.362 605.834,118.2 600.093,118.787 595.735,118.409 591.506,117.543 595.819,114.848 "
       id="polygon463"
       style="fill:#ffffff" /><path
       class="fil12"
       d="m 586.167,119.827 c 0.72759,-0.47574 1.45518,-0.95147 2.18277,-1.42708 1.03538,-0.27995 2.07076,-0.55978 3.10614,-0.8396 0.96242,-0.52785 1.92498,-1.05543 2.88727,-1.58328 2.33739,-1.28143 4.24812,-1.34568 6.58075,-1.30544 2.40428,0.041 3.42435,0.69659 5.61226,1.67655 3.1696,1.42022 5.24088,1.70188 9.93742,1.46402 -3.57106,-0.51742 -6.07032,-1.23842 -8.90244,-2.44003 -2.66431,-1.12997 -3.85721,-1.52655 -6.78366,-1.55043 -2.42433,-0.0198 -4.58519,0.15264 -6.94804,1.59858 -0.90714,0.55529 -1.81455,1.11071 -2.7217,1.66587 -1.01981,0.27943 -2.03949,0.55885 -3.05904,0.83815 -0.63062,0.63431 -1.26111,1.26863 -1.89173,1.90268 z"
       id="path465"
       inkscape:connector-curvature="0"
       style="fill:#000000" /><path
       class="fil12"
       d="m 596.626,114.854 c -0.29763,1.32971 -0.0811,2.65929 0.48721,3.98914 2.70441,0.0103 5.07083,0.10053 7.72141,-0.54078 0.43299,-1.08551 0.5958,-2.56655 0.33867,-3.57053 -2.84901,-0.7735 -5.69828,-0.7326 -8.54729,0.12217 z"
       id="path467"
       inkscape:connector-curvature="0"
       style="fill:#000000" /><path
       class="fil36"
       d="m 597.318,116.915 c -0.0208,0.8483 0.0384,1.18565 0.29103,1.64595 2.19385,0.0352 4.3753,0.12335 6.54368,-0.34011 0.41492,-0.72627 0.47534,-1.74278 0.37495,-2.46918 -0.85675,-0.33576 -1.71349,-0.36162 -2.57024,-0.0776 -0.22085,2.161 -2.81853,1.73948 -2.87341,0.24302 -0.58867,0.33272 -1.17733,0.66531 -1.766,0.99791 z"
       id="path469"
       inkscape:connector-curvature="0"
       style="fill:#423120" /><ellipse
       class="fil13"
       cx="598.19702"
       cy="115.821"
       rx="0.91500598"
       ry="0.87073201"
       id="ellipse471"
       d="m 599.11203,115.821 c 0,0.48089 -0.40966,0.87073 -0.91501,0.87073 -0.50534,0 -0.915,-0.38984 -0.915,-0.87073 0,-0.48089 0.40966,-0.87073 0.915,-0.87073 0.50535,0 0.91501,0.38984 0.91501,0.87073 z"
       sodipodi:cx="598.19702"
       sodipodi:cy="115.821"
       sodipodi:rx="0.91500598"
       sodipodi:ry="0.87073201"
       style="fill:#ffffff" /><ellipse
       class="fil13"
       cx="597.85699"
       cy="117.459"
       rx="0.481765"
       ry="0.458453"
       id="ellipse473"
       d="m 598.33876,117.459 c 0,0.2532 -0.21569,0.45845 -0.48177,0.45845 -0.26607,0 -0.48176,-0.20525 -0.48176,-0.45845 0,-0.2532 0.21569,-0.45845 0.48176,-0.45845 0.26608,0 0.48177,0.20525 0.48177,0.45845 z"
       sodipodi:cx="597.85699"
       sodipodi:cy="117.459"
       sodipodi:rx="0.481765"
       sodipodi:ry="0.458453"
       style="fill:#ffffff" /><path
       class="fil12"
       d="m 592.237,117.563 c 4.86699,2.02129 10.7452,1.85162 17.4613,-0.13338 -5.62704,1.40478 -11.4414,1.49251 -17.4613,0.13338 z"
       id="path475"
       inkscape:connector-curvature="0"
       style="fill:#000000" /><path
       class="fil41"
       d="m 588.635,121.555 c 10.8535,2.9374 20.1296,3.89125 23.771,-2.23818 -6.01465,4.56422 -14.8474,3.49203 -23.771,2.23818 z"
       id="path477"
       inkscape:connector-curvature="0"
       style="fill:#aa7462" /><path
       class="fil12"
       d="m 587.51,116.788 c 1.6722,-0.79751 3.3444,-1.59502 5.0166,-2.39253 8.11364,-2.90851 14.0113,-1.13591 21.7643,1.23486 -7.87577,-2.98529 -13.5463,-5.0542 -21.999,-1.70426 l -4.7819,2.86194 z"
       id="path479"
       inkscape:connector-curvature="0"
       style="fill:#000000" /><path
       class="fil42"
       d="m 535.504,118.495 c -0.64197,0.0513 -1.28407,0.10264 -1.92616,0.15409 -0.17969,0.29526 -0.35951,0.59065 -0.53933,0.88604 -1.528,0.0128 -3.05614,0.0256 -4.58427,0.0385 -0.0447,-1.30504 -0.60819,-2.16047 -2.08026,-1.42536 -0.19261,-0.0128 -0.38523,-0.0256 -0.57784,-0.0385 -0.12837,-0.48787 -0.25674,-0.97588 -0.38524,-1.46388 -0.59064,-0.68049 -1.18129,-1.36111 -1.77207,-2.04173 -0.0128,0.53933 -0.0256,1.07865 -0.0385,1.61798 0.43668,0.53933 0.87324,1.07865 1.30979,1.61798 0.32454,2.05585 0.37283,3.03213 2.6403,3.05772 2.5895,0.0294 5.34986,0.0484 7.87762,0.0818 0.47837,1.88289 0.50133,2.99756 1.48064,4.81317 1.41652,2.62644 2.62512,3.53438 6.62561,4.13623 5.72585,0.86137 11.4755,0.76097 17.2795,-1.57207 1.18789,-0.90516 2.08672,-2.03539 2.34992,-3.6597 0.20541,-2.06746 0.41083,-4.13492 0.61637,-6.20226 0.78326,-0.0513 1.56653,-0.10264 2.34992,-0.15409 -1.29449,1.25108 -2.05163,2.36668 -1.38684,4.16051 0.21821,-0.24407 0.43655,-0.488 0.6549,-0.73194 0.48787,-0.77047 0.97588,-1.54093 1.46388,-2.3114 0.33378,-0.43669 0.66769,-0.87324 1.00161,-1.30979 3.85272,-3.05732 6.30463,-2.8407 11.0177,-0.077 0.66769,0.53933 1.33539,1.07865 2.00321,1.61798 0.56492,0.78327 1.12997,1.56653 1.69502,2.34992 0.34671,0.077 0.69342,0.1541 1.04013,0.23114 0.61637,1.0144 1.23275,2.02881 1.84912,3.04334 1.01533,1.45584 2.68858,2.44319 5.66292,2.50401 5.93311,0.37521 11.8272,0.50556 17.451,-1.07865 1.87801,-0.7384 3.12988,-2.22802 3.4671,-4.81541 0.0385,-1.32272 0.077,-2.64531 0.11557,-3.9679 2.77368,-0.3595 5.54735,-0.71901 8.32103,-1.07865 0.93735,-0.38523 1.87471,-0.77046 2.8122,-1.1557 2.27921,-1.79265 4.44126,-3.2977 6.93419,-4.77689 3.48174,-3.59784 7.14831,-6.32521 11.1718,-9.32263 0.0898,-0.5008 0.17968,-1.00161 0.26966,-1.50241 -4.37147,3.1692 -8.44689,5.67044 -11.7496,9.93901 -2.53686,1.18393 -4.06473,1.90796 -6.00963,3.89085 -2.2453,0.0541 -3.01088,-0.60252 -3.62119,1.61798 -2.86365,0.24407 -5.72717,0.48801 -8.59069,0.73195 -1.38803,-3.539 -3.69758,-4.72887 -7.55056,-5.00803 -8.78832,0.44222 -19.9254,-0.88564 -21.3804,5.08507 -1.43578,0.0562 -2.87157,0.1124 -4.30722,0.1686 -4.46725,-2.44095 -7.13063,-2.33686 -11.209,0.52323 -1.15952,0.0517 -2.31905,0.1033 -3.47857,0.15489 -0.36069,-0.95425 -0.96638,-1.69357 -1.73935,-2.2862 -1.95967,-1.33882 -4.75235,-1.69067 -7.84622,-1.68553 -4.40392,-0.029 -8.78832,0.15923 -13.1404,0.69803 -4.07199,0.45806 -5.49564,2.17577 -5.54735,4.54575 z m 54.549,-5.89406 c -3.9555,0.69962 -6.49803,2.07353 -5.93259,4.93098 0.55911,5.19391 2.23778,9.04981 7.01124,9.20706 3.86513,0.0513 7.73025,0.10264 11.5955,0.15409 3.86961,-0.41993 7.35254,-1.16229 8.12841,-4.16051 0.0256,-1.88764 0.0513,-3.77528 0.077,-5.66292 -0.89224,-3.49335 -3.55047,-4.72583 -7.01124,-4.93098 -4.62279,0.1541 -9.24559,0.30819 -13.8684,0.46228 z m -47.3451,1.84912 c -2.28092,0.12573 -3.8799,0.69856 -4.95499,1.55716 -2.55956,2.04384 -1.74212,9.17804 2.26931,11.9595 2.20176,1.52668 6.10119,1.48908 8.69518,1.54581 3.24176,0.0709 6.79567,-0.29816 9.90866,-1.23235 1.8606,-0.55846 3.30984,-1.51916 3.65747,-4.1993 0.15409,-1.88764 0.44012,-3.77528 0.59421,-5.66292 -0.15409,-0.19262 -0.17626,-0.38523 -0.33035,-0.57785 0.0513,-0.17982 0.10264,-0.35964 0.15409,-0.53932 -0.91136,-1.74661 -2.52948,-2.97935 -5.70145,-3.08186 -4.89444,-0.0871 -9.6547,0.009 -14.2921,0.23113 z"
       id="path481"
       inkscape:connector-curvature="0"
       style="fill:#333333" /><path
       class="fil43"
       d="m 565.244,231.209 c 5.64736,-1.90519 11.5247,-2.12459 17.5985,-2.54834 1.94477,3.40351 3.88953,6.80675 5.83443,10.2103 -2.28514,3.84085 -4.57042,7.68183 -6.85543,11.5228 l -5.41239,13.3887 0.16148,0.0306 c 7.87194,27.2453 3.32395,55.0678 0,78.3148 -15.9475,0 -31.8948,0 -47.8422,0 3.35245,-21.3523 8.30269,-47.8695 19.837,-70.0008 1.985,-3.69415 3.89798,-7.50135 6.32323,-10.5009 l -0.0512,-0.001 c -0.0972,-0.48642 -0.19446,-0.97245 -0.29182,-1.45861 4.56422,-9.1283 7.04963,-15.1075 7.50729,-24.4187 0.16583,-3.37699 -0.18866,-3.39862 3.1911,-4.53876 z"
       id="path483"
       inkscape:connector-curvature="0"
       style="fill:url(#id2)" /><path
       class="fil44"
       d="m 582.842,228.661 c -0.0405,0.60859 -5.44234,0.0245 -4.94206,0.34064 14.7138,9.29664 -6.40001,34.3849 -23.3547,31.1652 0.0972,0.48616 0.19446,0.97232 0.2917,1.45861 7.14711,0.82641 14.2942,1.65307 21.4415,2.47961 3.66829,-9.07421 7.397,-16.8279 12.398,-25.2338 -1.9449,-3.40351 -3.88966,-6.80688 -5.83443,-10.2103 z"
       id="path485"
       inkscape:connector-curvature="0"
       style="fill:#6e0000" /><path
       class="fil44"
       d="m 564.721,261.835 c 2.18791,0.48616 5.98021,1.1181 8.16812,1.60439 -4.14693,23.4818 -10.0497,42.4474 -16.9198,58.9276 0.62587,-17.6945 15.4674,-56.1593 8.75165,-60.532 z"
       id="path487"
       inkscape:connector-curvature="0"
       style="fill:#6e0000" /><path
       class="fil45"
       d="m 581.465,226.442 c 9.17026,14.3221 18.3405,28.6442 27.5108,42.9663 19.3729,-27.5616 33.0771,-57.4418 34.3112,-92.4238 -1.33948,-2.78199 -4.18756,-4.09534 -5.52704,-6.87733 -8.60164,22.3603 -25.331,36.4499 -47.949,48.9163 -2.78199,2.47288 -5.56398,4.94576 -8.34596,7.41863 z"
       id="path489"
       inkscape:connector-curvature="0"
       style="fill:url(#id32)" /><polygon
       class="fil46"
       points="536.841,243.886 536.995,219.168 542.322,191.008 552.135,200.629 567.893,224.111 553.062,236.161 545.956,244.967 542.402,251.765 534.987,258.562 "
       id="polygon491"
       style="fill:url(#id0)" /><path
       class="fil44"
       d="m 571.536,264.017 c 0.13272,15.0201 -1.7974,27.0949 -4.78916,41.8665 0.25753,4.22265 0.51505,8.44531 0.77244,12.6681 3.52396,-19.8321 7.052,-34.7133 4.01671,-54.5346 z"
       id="path493"
       inkscape:connector-curvature="0"
       style="fill:#6e0000" /><path
       class="fil44"
       d="m 556.949,261.699 c -2.26852,5.49445 -4.53717,10.9893 -6.80596,16.484 3.3225,-6.5388 6.59276,-13.3174 10.7665,-16.0262 -1.32021,-0.15264 -2.64056,-0.30542 -3.96051,-0.45779 z"
       id="path495"
       inkscape:connector-curvature="0"
       style="fill:#6e0000" /><path
       class="fil47"
       d="m 640.356,119.046 c -0.065,12.8273 -0.37639,17.2506 -0.44143,30.0781 4.70842,-0.28009 4.85459,-2.25084 8.08567,-9.22237 -0.51796,-14.0454 0.3913,-26.8708 -2.40784,-30.0996 -1.48895,-1.71758 -3.75022,5.37176 -5.2364,9.24387 z"
       id="path497"
       inkscape:connector-curvature="0"
       style="fill:url(#id28)" /><path
       class="fil19 str1"
       d="m 647.134,108.318 c -0.83313,0.31003 -1.62616,0.75424 -2.31799,1.29053 0.1413,0.46729 1.06216,1.01401 1.20346,1.48117 -0.1343,2.97342 0.15739,5.12769 0.76268,7.54014 0.89224,3.55536 1.08195,5.71187 0.30436,9.43754 -0.64843,3.10693 -1.32773,5.2678 -3.23068,7.74555 2.93357,-2.299 3.11168,-3.86407 3.8022,-7.60452 0.52825,-2.86075 0.80226,-5.66939 1.00108,-8.95059 -0.0838,-2.44834 -0.33642,-5.14893 -0.23035,-7.54278 0.10555,-2.38646 1.90136,-4.58704 -1.29475,-3.39704 z"
       id="path499"
       inkscape:connector-curvature="0"
       style="fill:#744644;stroke:#744644;stroke-width:0.10053" /><path
       class="fil19"
       d="m 643.378,111.313 c -0.91242,2.2391 -1.82471,4.4782 -2.73713,6.7173 1.49014,-2.64373 2.83779,-1.61771 4.2274,-0.69355 -0.0716,-2.09174 0.40674,-5.46569 -1.49027,-6.02375 z"
       id="path501"
       inkscape:connector-curvature="0"
       style="fill:#744644" /><path
       class="fil19"
       d="m 640.673,117.529 c -0.43326,1.50623 -0.86651,3.01247 -1.29977,4.5187 0.80873,3.28741 1.5317,4.25656 0.67389,7.50821 0.0128,0.36069 0.0256,0.72139 0.0384,1.08208 2.19609,-0.63498 1.69872,-0.38233 3.49506,1.17931 3.88716,-5.78403 3.56525,-10.6832 -2.90758,-14.2883 z"
       id="path503"
       inkscape:connector-curvature="0"
       style="fill:#744644" /><polygon
       class="fil48"
       points="575.13,263.972 555.673,261.265 555.75,262.577 "
       id="polygon505"
       style="fill:#0c0d10" /><path
       class="fil48"
       d="m 582.842,228.661 c 6.76638,10.1791 19.3673,30.5686 26.1338,40.7479 19.5204,-24.5007 30.3689,-55.6917 34.3037,-92.2175 -1.87841,33.8155 -11.3852,66.7801 -34.2754,95.6517 -4.22147,-6.83656 -20.2175,-30.3041 -26.6394,-42.3895 -0.80094,-1.50729 -19.9119,2.17023 -19.9119,2.17023 3.31749,-1.9788 10.9794,-3.73452 20.3892,-3.96288 z"
       id="path507"
       inkscape:connector-curvature="0"
       style="fill:#0c0d10" /><polygon
       class="fil48"
       points="547.331,245.653 554.283,237.157 563.942,227.107 552.798,236.161 545.692,244.967 542.138,251.765 534.723,258.562 535.281,260.948 543.005,253.841 "
       id="polygon509"
       style="fill:#0c0d10" /><path
       class="fil53"
       d="m 635.722,169.414 c -4.30049,12.8082 -13.6826,24.8611 -23.5764,32.1776 -14.4396,10.6782 -42.1483,17.0851 -53.7507,3.3667 6.61149,6.77443 26.4059,5.59538 34.8086,-0.26571 0.46795,-0.32639 0.85886,-0.80793 1.397,-0.95767 12.473,-3.47145 35.3575,-18.5114 43.6751,-43.8205 0.50001,-1.52141 -3.36406,10.9617 -2.55362,9.49955 z"
       id="path567"
       inkscape:connector-curvature="0"
       style="fill:#542c2c" /></g></svg>