<?xml version="1.0" encoding="UTF-8" standalone="no"?>
<!-- Creator: CorelDRAW -->

<svg
   xmlns:dc="http://purl.org/dc/elements/1.1/"
   xmlns:cc="http://creativecommons.org/ns#"
   xmlns:rdf="http://www.w3.org/1999/02/22-rdf-syntax-ns#"
   xmlns:svg="http://www.w3.org/2000/svg"
   xmlns="http://www.w3.org/2000/svg"
   xmlns:xlink="http://www.w3.org/1999/xlink"
   xmlns:sodipodi="http://sodipodi.sourceforge.net/DTD/sodipodi-0.dtd"
   xmlns:inkscape="http://www.inkscape.org/namespaces/inkscape"
   xml:space="preserve"
   width="610"
   height="900"
   style="fill-rule:evenodd"
   viewBox="0 0 227.12322 335.09993"
   id="svg2"
   version="1.1"
   inkscape:version="0.48.4 r9939"
   sodipodi:docname="steffi.svg"><metadata
     id="metadata731"><rdf:RDF><cc:Work
         rdf:about=""><dc:format>image/svg+xml</dc:format><dc:type
           rdf:resource="http://purl.org/dc/dcmitype/StillImage" /><dc:title /></cc:Work></rdf:RDF></metadata><sodipodi:namedview
     pagecolor="#ffffff"
     bordercolor="#666666"
     borderopacity="1"
     objecttolerance="10"
     gridtolerance="10"
     guidetolerance="10"
     inkscape:pageopacity="0"
     inkscape:pageshadow="2"
     inkscape:window-width="1366"
     inkscape:window-height="713"
     id="namedview729"
     showgrid="false"
     inkscape:zoom="0.23086432"
     inkscape:cx="-128.14167"
     inkscape:cy="800.38241"
     inkscape:window-x="-2"
     inkscape:window-y="-3"
     inkscape:window-maximized="1"
     inkscape:current-layer="svg2"
     fit-margin-top="0"
     fit-margin-left="0"
     fit-margin-right="0"
     fit-margin-bottom="0"
     borderlayer="true" /><defs
     id="defs4"><linearGradient
       inkscape:collect="always"
       id="linearGradient3196"><stop
         style="stop-color:#a3d963;stop-opacity:1;"
         offset="0"
         id="stop3198" /><stop
         style="stop-color:#a3d963;stop-opacity:0;"
         offset="1"
         id="stop3200" /></linearGradient><style
       type="text/css"
       id="style6">
    .str1 {stroke:#744644;stroke-width:0.10053}
    .str2 {stroke:#CC66CC;stroke-width:0.10053}
    .str3 {stroke:#1D1A1F;stroke-width:0.10053}
    .str0 {stroke:#23201D;stroke-width:0.263858}
    .fil50 {fill:none}
    .fil48 {fill:#0C0D10}
    .fil12 {fill:black}
    .fil14 {fill:#003333}
    .fil42 {fill:#333333}
    .fil36 {fill:#423120}
    .fil54 {fill:#4D0000}
    .fil53 {fill:#542C2C}
    .fil64 {fill:#660066}
    .fil44 {fill:#6E0000}
    .fil19 {fill:#744644}
    .fil52 {fill:#915E5A}
    .fil31 {fill:#94605A}
    .fil15 {fill:#990099}
    .fil6 {fill:#9F695A}
    .fil20 {fill:#A77260}
    .fil41 {fill:#AA7462}
    .fil30 {fill:#C28E72}
    .fil7 {fill:#CC66CC}
    .fil51 {fill:#E0A57B}
    .fil8 {fill:#ECB988}
    .fil69 {fill:#FF6600}
    .fil18 {fill:#FF99FF}
    .fil68 {fill:#FFCC00}
    .fil5 {fill:#FFCCCB}
    .fil13 {fill:white}
    .fil55 {fill:#1D1A1F}
    .fil70 {fill:#6E4671}
    .fil17 {fill:#D89480}
    .fil46 {fill:url(#id0)}
    .fil35 {fill:url(#id1)}
    .fil43 {fill:url(#id2)}
    .fil34 {fill:url(#id3)}
    .fil23 {fill:url(#id4)}
    .fil25 {fill:url(#id5)}
    .fil24 {fill:url(#id6)}
    .fil26 {fill:url(#id7)}
    .fil66 {fill:url(#id8)}
    .fil3 {fill:url(#id9)}
    .fil65 {fill:url(#id10)}
    .fil32 {fill:url(#id11)}
    .fil11 {fill:url(#id12)}
    .fil1 {fill:url(#id13)}
    .fil0 {fill:url(#id14)}
    .fil29 {fill:url(#id15)}
    .fil33 {fill:url(#id16)}
    .fil4 {fill:url(#id17)}
    .fil10 {fill:url(#id18)}
    .fil62 {fill:url(#id19)}
    .fil57 {fill:url(#id20)}
    .fil63 {fill:url(#id21)}
    .fil59 {fill:url(#id22)}
    .fil38 {fill:url(#id23)}
    .fil27 {fill:url(#id24)}
    .fil2 {fill:url(#id25)}
    .fil60 {fill:url(#id26)}
    .fil67 {fill:url(#id27)}
    .fil47 {fill:url(#id28)}
    .fil61 {fill:url(#id29)}
    .fil40 {fill:url(#id30)}
    .fil49 {fill:url(#id31)}
    .fil45 {fill:url(#id32)}
    .fil28 {fill:url(#id33)}
    .fil58 {fill:url(#id34)}
    .fil9 {fill:url(#id35)}
    .fil56 {fill:url(#id36)}
    .fil16 {fill:url(#id37)}
    .fil37 {fill:url(#id38)}
    .fil39 {fill:url(#id39)}
    .fil71 {fill:url(#id40)}
    .fil21 {fill:url(#id41)}
    .fil22 {fill:url(#id42)}
   </style><linearGradient
       id="id0"
       gradientUnits="userSpaceOnUse"
       x1="534.987"
       y1="224.785"
       x2="567.89301"
       y2="224.785"><stop
         offset="0"
         style="stop-color:#0C0D10"
         id="stop9" /><stop
         offset="1"
         style="stop-color:#360707"
         id="stop11" /></linearGradient><linearGradient
       id="id1"
       gradientUnits="userSpaceOnUse"
       x1="621.90399"
       y1="106.221"
       x2="582.44702"
       y2="106.221"><stop
         offset="0"
         style="stop-color:#E8C391"
         id="stop14" /><stop
         offset="0.501961"
         style="stop-color:#0C0D10"
         id="stop16" /><stop
         offset="1"
         style="stop-color:#E8C391"
         id="stop18" /></linearGradient><linearGradient
       id="id2"
       gradientUnits="userSpaceOnUse"
       x1="528.72803"
       y1="285.39401"
       x2="588.677"
       y2="285.39401"><stop
         offset="0"
         style="stop-color:#990000"
         id="stop21" /><stop
         offset="0.658824"
         style="stop-color:#990000"
         id="stop23" /><stop
         offset="1"
         style="stop-color:#C21E0F"
         id="stop25" /></linearGradient><linearGradient
       id="id3"
       gradientUnits="userSpaceOnUse"
       x1="531.547"
       y1="107.179"
       x2="564.125"
       y2="107.179"><stop
         offset="0"
         style="stop-color:#E8C391"
         id="stop28" /><stop
         offset="0.490196"
         style="stop-color:#0C0D10"
         id="stop30" /><stop
         offset="1"
         style="stop-color:#E8C391"
         id="stop32" /></linearGradient><linearGradient
       id="id4"
       gradientUnits="userSpaceOnUse"
       xlink:href="#id3"
       x1="95.452103"
       y1="115.577"
       x2="135.405"
       y2="115.577" /><linearGradient
       id="id5"
       gradientUnits="userSpaceOnUse"
       xlink:href="#id3"
       x1="150.681"
       y1="119.072"
       x2="190.116"
       y2="119.072" /><linearGradient
       id="id6"
       gradientUnits="userSpaceOnUse"
       x1="328.95599"
       y1="115.286"
       x2="368.909"
       y2="115.286"><stop
         offset="0"
         style="stop-color:#FFD1D1"
         id="stop37" /><stop
         offset="0.490196"
         style="stop-color:#0C0D10"
         id="stop39" /><stop
         offset="1"
         style="stop-color:#FFD4DC"
         id="stop41" /></linearGradient><linearGradient
       id="id7"
       gradientUnits="userSpaceOnUse"
       xlink:href="#id6"
       x1="384.185"
       y1="118.782"
       x2="423.62"
       y2="118.782" /><linearGradient
       id="id8"
       gradientUnits="userSpaceOnUse"
       x1="810.61401"
       y1="41.807701"
       x2="821.02698"
       y2="229.239"><stop
         offset="0"
         style="stop-color:#FFCCCC"
         id="stop45" /><stop
         offset="0.74902"
         style="stop-color:#FFCCC7"
         id="stop47" /><stop
         offset="1"
         style="stop-color:#EAC200"
         id="stop49" /></linearGradient><linearGradient
       id="id9"
       gradientUnits="userSpaceOnUse"
       x1="346.70401"
       y1="341.84201"
       x2="349.39099"
       y2="207.495"><stop
         offset="0"
         style="stop-color:#0C0D10"
         id="stop52" /><stop
         offset="1"
         style="stop-color:#A11D9D"
         id="stop54" /></linearGradient><linearGradient
       id="id10"
       gradientUnits="userSpaceOnUse"
       xlink:href="#id9"
       x1="814.43597"
       y1="344.345"
       x2="817.94702"
       y2="168.8" /><linearGradient
       id="id11"
       gradientUnits="userSpaceOnUse"
       x1="584.81897"
       y1="344.103"
       x2="579.896"
       y2="166.881"><stop
         offset="0"
         style="stop-color:#0C0D10"
         id="stop58" /><stop
         offset="1"
         style="stop-color:#380909"
         id="stop60" /></linearGradient><linearGradient
       id="id12"
       gradientUnits="userSpaceOnUse"
       x1="416.57501"
       y1="146.194"
       x2="309.94501"
       y2="143.655"><stop
         offset="0"
         style="stop-color:#FFCCCB"
         id="stop63" /><stop
         offset="1"
         style="stop-color:#FFB8B8"
         id="stop65" /></linearGradient><linearGradient
       id="id13"
       gradientUnits="userSpaceOnUse"
       x1="366.84799"
       y1="-3.1044199"
       x2="327.89099"
       y2="345.74701"><stop
         offset="0"
         style="stop-color:#FFCC00"
         id="stop68" /><stop
         offset="1"
         style="stop-color:#ED62AA"
         id="stop70" /></linearGradient><linearGradient
       id="id14"
       gradientUnits="userSpaceOnUse"
       x1="100.291"
       y1="-0.34024501"
       x2="127.441"
       y2="343.564"><stop
         offset="0"
         style="stop-color:#9999FF"
         id="stop73" /><stop
         offset="1"
         style="stop-color:white"
         id="stop75" /></linearGradient><linearGradient
       id="id15"
       gradientUnits="userSpaceOnUse"
       x1="568.41803"
       y1="-0.209503"
       x2="595.69098"
       y2="345.24899"><stop
         offset="0"
         style="stop-color:#9999FF"
         id="stop78" /><stop
         offset="1"
         style="stop-color:white"
         id="stop80" /></linearGradient><linearGradient
       id="id16"
       gradientUnits="userSpaceOnUse"
       x1="571.52399"
       y1="40.527699"
       x2="591.83099"
       y2="228.36"><stop
         offset="0"
         style="stop-color:#FFCC99"
         id="stop83" /><stop
         offset="0.360784"
         style="stop-color:#ECBF8E"
         id="stop85" /><stop
         offset="1"
         style="stop-color:#F29766"
         id="stop87" /></linearGradient><linearGradient
       id="id17"
       gradientUnits="userSpaceOnUse"
       xlink:href="#id16"
       x1="112.803"
       y1="63.629902"
       x2="138.558"
       y2="301.871" /><linearGradient
       id="id18"
       gradientUnits="userSpaceOnUse"
       x1="182.698"
       y1="147.045"
       x2="76.814102"
       y2="143.384"><stop
         offset="0"
         style="stop-color:#FFCC99"
         id="stop91" /><stop
         offset="0.701961"
         style="stop-color:#ECBF8E"
         id="stop93" /><stop
         offset="1"
         style="stop-color:#F29766"
         id="stop95" /></linearGradient><linearGradient
       id="id19"
       gradientUnits="userSpaceOnUse"
       x1="207.326"
       y1="297.51099"
       x2="194.461"
       y2="340.78201"><stop
         offset="0"
         style="stop-color:#760804"
         id="stop98" /><stop
         offset="0.768627"
         style="stop-color:#500101"
         id="stop100" /><stop
         offset="1"
         style="stop-color:#2E0404"
         id="stop102" /></linearGradient><linearGradient
       id="id20"
       gradientUnits="userSpaceOnUse"
       x1="8.01931"
       y1="342.58099"
       x2="42.356998"
       y2="285.35199"><stop
         offset="0"
         style="stop-color:#760804"
         id="stop105" /><stop
         offset="1"
         style="stop-color:#4D0000"
         id="stop107" /></linearGradient><linearGradient
       id="id21"
       gradientUnits="userSpaceOnUse"
       x1="182.576"
       y1="286.24301"
       x2="190.688"
       y2="233.515"><stop
         offset="0"
         style="stop-color:#9C0500"
         id="stop110" /><stop
         offset="0.309804"
         style="stop-color:#740804"
         id="stop112" /><stop
         offset="0.831373"
         style="stop-color:#500101"
         id="stop114" /><stop
         offset="1"
         style="stop-color:#2E0404"
         id="stop116" /></linearGradient><linearGradient
       id="id22"
       gradientUnits="userSpaceOnUse"
       x1="75.437798"
       y1="341.617"
       x2="87.482201"
       y2="263.328"><stop
         offset="0"
         style="stop-color:#760804"
         id="stop119" /><stop
         offset="0.580392"
         style="stop-color:#500101"
         id="stop121" /><stop
         offset="1"
         style="stop-color:#2E0404"
         id="stop123" /></linearGradient><linearGradient
       id="id23"
       gradientUnits="userSpaceOnUse"
       x1="576.76703"
       y1="186.841"
       x2="577.43799"
       y2="166.694"><stop
         offset="0"
         style="stop-color:#CB6C6E"
         id="stop126" /><stop
         offset="1"
         style="stop-color:#E8C391"
         id="stop128" /></linearGradient><linearGradient
       id="id24"
       gradientUnits="userSpaceOnUse"
       x1="133.12399"
       y1="299.526"
       x2="121.325"
       y2="185.489"><stop
         offset="0"
         style="stop-color:#E6BF9C"
         id="stop131" /><stop
         offset="0.54902"
         style="stop-color:#AA7462"
         id="stop133" /><stop
         offset="0.701961"
         style="stop-color:#8E5B58"
         id="stop135" /><stop
         offset="0.780392"
         style="stop-color:#542C2C"
         id="stop137" /><stop
         offset="1"
         style="stop-color:#542C2C"
         id="stop139" /></linearGradient><linearGradient
       id="id25"
       gradientUnits="userSpaceOnUse"
       x1="119.821"
       y1="206.35699"
       x2="109.267"
       y2="343.561"><stop
         offset="0"
         style="stop-color:black"
         id="stop142" /><stop
         offset="0.188235"
         style="stop-color:#950100"
         id="stop144" /><stop
         offset="1"
         style="stop-color:#610E07"
         id="stop146" /></linearGradient><linearGradient
       id="id26"
       gradientUnits="userSpaceOnUse"
       xlink:href="#id22"
       x1="163.159"
       y1="328.74701"
       x2="169.658"
       y2="286.508" /><linearGradient
       id="id27"
       gradientUnits="userSpaceOnUse"
       x1="814.91901"
       y1="121.828"
       x2="832.18103"
       y2="225.401"><stop
         offset="0"
         style="stop-color:#CC66CC"
         id="stop150" /><stop
         offset="0.658824"
         style="stop-color:#AE5FB0"
         id="stop152" /><stop
         offset="0.831373"
         style="stop-color:#7C5282"
         id="stop154" /><stop
         offset="1"
         style="stop-color:#6D4E75"
         id="stop156" /></linearGradient><linearGradient
       id="id28"
       gradientUnits="userSpaceOnUse"
       x1="639.49597"
       y1="129.717"
       x2="648.35602"
       y2="129.967"><stop
         offset="0"
         style="stop-color:#622E2F"
         id="stop159" /><stop
         offset="1"
         style="stop-color:#C7948B"
         id="stop161" /></linearGradient><linearGradient
       id="id29"
       gradientUnits="userSpaceOnUse"
       xlink:href="#id22"
       x1="126.41"
       y1="336.82901"
       x2="131.064"
       y2="306.582" /><linearGradient
       id="id30"
       gradientUnits="userSpaceOnUse"
       xlink:href="#id24"
       x1="572.65601"
       y1="119.4"
       x2="603.01801"
       y2="225.67" /><linearGradient
       id="id31"
       gradientUnits="userSpaceOnUse"
       xlink:href="#id24"
       x1="71.775497"
       y1="136.19901"
       x2="79.131599"
       y2="156.118" /><linearGradient
       id="id32"
       gradientUnits="userSpaceOnUse"
       x1="593.78699"
       y1="172.666"
       x2="630.96503"
       y2="266.85001"><stop
         offset="0"
         style="stop-color:black"
         id="stop167" /><stop
         offset="0.509804"
         style="stop-color:#290606"
         id="stop169" /><stop
         offset="1"
         style="stop-color:#300808"
         id="stop171" /></linearGradient><linearGradient
       id="id33"
       gradientUnits="userSpaceOnUse"
       x1="72.770401"
       y1="145.646"
       x2="64.133202"
       y2="132.244"><stop
         offset="0"
         style="stop-color:#E6BF9C"
         id="stop174" /><stop
         offset="0.0117647"
         style="stop-color:#AA7462"
         id="stop176" /><stop
         offset="0.368627"
         style="stop-color:#8E5B58"
         id="stop178" /><stop
         offset="0.780392"
         style="stop-color:#542C2C"
         id="stop180" /><stop
         offset="1"
         style="stop-color:#542C2C"
         id="stop182" /></linearGradient><linearGradient
       id="id34"
       gradientUnits="userSpaceOnUse"
       xlink:href="#id20"
       x1="74.623802"
       y1="306.017"
       x2="62.176601"
       y2="340.86899" /><linearGradient
       id="id35"
       gradientUnits="userSpaceOnUse"
       x1="87.885597"
       y1="155.601"
       x2="61.210899"
       y2="143.005"><stop
         offset="0"
         style="stop-color:#FFCC99"
         id="stop186" /><stop
         offset="0.360784"
         style="stop-color:#ECBF8E"
         id="stop188" /><stop
         offset="1"
         style="stop-color:#C47347"
         id="stop190" /></linearGradient><linearGradient
       id="id36"
       gradientUnits="userSpaceOnUse"
       x1="153.033"
       y1="270.30301"
       x2="148.336"
       y2="286.74399"><stop
         offset="0"
         style="stop-color:#0C0D10"
         id="stop193" /><stop
         offset="0.45098"
         style="stop-color:#7B4443"
         id="stop195" /><stop
         offset="1"
         style="stop-color:#C28E72"
         id="stop197" /></linearGradient><linearGradient
       id="id37"
       gradientUnits="userSpaceOnUse"
       x1="146.161"
       y1="155.412"
       x2="141.355"
       y2="140.325"><stop
         offset="0"
         style="stop-color:#7A4242"
         id="stop200" /><stop
         offset="1"
         style="stop-color:#C28E72"
         id="stop202" /></linearGradient><linearGradient
       id="id38"
       gradientUnits="userSpaceOnUse"
       xlink:href="#id37"
       x1="581.45898"
       y1="145.03101"
       x2="576.56"
       y2="129.65199" /><radialGradient
       id="id39"
       gradientUnits="userSpaceOnUse"
       cx="576.302"
       cy="170.44"
       r="23.307899"
       fx="576.302"
       fy="170.44"><stop
         offset="0"
         style="stop-color:white"
         id="stop206" /><stop
         offset="0.521569"
         style="stop-color:#E6E6E6"
         id="stop208" /><stop
         offset="1"
         style="stop-color:#636363"
         id="stop210" /></radialGradient><radialGradient
       id="id40"
       gradientUnits="userSpaceOnUse"
       cx="810.13599"
       cy="171.52"
       r="23.307899"
       fx="810.13599"
       fy="171.52"><stop
         offset="0"
         style="stop-color:white"
         id="stop213" /><stop
         offset="0.521569"
         style="stop-color:#EDEDED"
         id="stop215" /><stop
         offset="1"
         style="stop-color:gray"
         id="stop217" /></radialGradient><radialGradient
       id="id41"
       gradientUnits="userSpaceOnUse"
       cx="141.65401"
       cy="180.188"
       r="16.931"
       fx="141.65401"
       fy="180.188"><stop
         offset="0"
         style="stop-color:white"
         id="stop220" /><stop
         offset="0.439216"
         style="stop-color:#FEFEFE"
         id="stop222" /><stop
         offset="1"
         style="stop-color:#D9D9D9"
         id="stop224" /></radialGradient><radialGradient
       id="id42"
       gradientUnits="userSpaceOnUse"
       cx="375.15799"
       cy="179.897"
       r="16.931"
       fx="375.15799"
       fy="179.897"><stop
         offset="0"
         style="stop-color:white"
         id="stop227" /><stop
         offset="0.439216"
         style="stop-color:#FEFEFE"
         id="stop229" /><stop
         offset="1"
         style="stop-color:#E0E0E0"
         id="stop231" /></radialGradient><linearGradient
       inkscape:collect="always"
       xlink:href="#id37"
       id="linearGradient3831"
       gradientUnits="userSpaceOnUse"
       x1="146.161"
       y1="155.412"
       x2="141.355"
       y2="140.325" /><linearGradient
       inkscape:collect="always"
       xlink:href="#id24"
       id="linearGradient3833"
       gradientUnits="userSpaceOnUse"
       x1="133.12399"
       y1="299.526"
       x2="121.325"
       y2="185.489" /><linearGradient
       inkscape:collect="always"
       xlink:href="#id20"
       id="linearGradient3835"
       gradientUnits="userSpaceOnUse"
       x1="8.01931"
       y1="342.58099"
       x2="42.356998"
       y2="285.35199" /><linearGradient
       inkscape:collect="always"
       xlink:href="#id22"
       id="linearGradient3837"
       gradientUnits="userSpaceOnUse"
       x1="75.437798"
       y1="341.617"
       x2="87.482201"
       y2="263.328" /><linearGradient
       inkscape:collect="always"
       xlink:href="#linearGradient3196"
       id="linearGradient3202"
       x1="205.74855"
       y1="748.39581"
       x2="212.24588"
       y2="-20.454058"
       gradientUnits="userSpaceOnUse"
       gradientTransform="matrix(0.4122195,0,0,0.49172353,-20.524228,-90.755509)" /></defs><rect
     style="fill:url(#linearGradient3202);fill-opacity:1;stroke:#000080;stroke-width:0.45022002"
     id="rect3194"
     width="306.22162"
     height="386.5813"
     x="-33.023067"
     y="-105.07309" /><g
     id="Ebene_x0020_1"
     transform="matrix(1.1124284,0,0,1.1072623,-22.104269,-34.453719)"><metadata
       id="CorelCorpID_0Corel-Layer" /><path
       class="fil2"
       d="m 88.1091,213.854 c -5.06014,-1.73487 -10.1201,-3.46973 -15.1804,-5.20473 -2.16865,1.30122 -4.33717,2.60243 -6.50582,3.90352 0.07243,3.39744 -1.33697,6.79501 -1.26467,10.1926 -6.86717,4.19257 -12.253,9.68161 -19.1203,13.8743 -0.216891,1.51811 -0.433783,1.73975 -0.650674,3.25772 -14.641,9.25271 -29.282,18.5056 -43.9233,27.7584 0,24.5445 0,49.0892 0,73.6338 75.3865,0 150.773004,0 226.160004,0 0,-19.9184 0,-39.8365 0,-59.7546 -4.42319,-25.1095 -20.6032,-39.2497 -42.7938,-49.2277 -11.3493,-2.6023 -22.6984,-5.2046 -34.0473,-7.80703 -20.8912,-3.54216 -41.7822,-7.08419 -62.673204,-10.6262 z"
       id="path241"
       inkscape:connector-curvature="0"
       style="fill:url(#id25)" /><path
       class="fil4"
       d="m 145.206,71.8466 c 22.2304,-4.23215 33.7236,8.63568 40.3363,29.2764 1.87933,10.1926 3.75892,20.3851 5.63838,30.5776 2.05308,6.38035 3.24057,12.7719 2.92051,19.1634 -0.39658,7.92392 -2.88687,17.0828 -5.5963,26.7279 -1.42972,5.09022 -2.92078,11.5683 -4.85604,15.3453 -3.83148,7.47813 -9.38477,12.8048 -15.4555,17.4844 -5.93417,24.8575 -14.0938,49.4532 -24.9391,73.733 -1.30122,5.56609 -2.60243,11.1322 -3.90352,16.6984 -20.9209,-12.7019 -28.8761,-25.5738 -41.7785,-46.7694 -5.59063,-9.18398 -10.8022,-18.3139 -15.6901,-27.3974 2.64689,-13.126 3.14928,-25.9837 3.46987,-38.8183 -1.84899,-4.79008 -3.06854,-9.73768 -3.46987,-14.9635 -5.34431,-2.40942 -9.9927,-6.08457 -12.1553,-14.2788 -2.4804,-6.5826 -12.787,-27.9705 -1.73342,-31.4181 1.58895,0.50555 3.17791,1.0111 4.76686,1.51666 8.02854,-15.1279 16.0571,-30.2558 24.0854,-45.3837 16.852,-11.8805 33.2431,-18.6926 48.3603,-11.4938 z"
       id="path245"
       inkscape:connector-curvature="0"
       style="fill:url(#id17)" /><path
       class="fil6"
       d="m 116.721,78.3408 c 6.48207,-4.77121 13.8395,-7.2995 23.6166,-3.62739 24.231,-4.70578 39.5703,7.86416 49.3944,31.1496 -7.10649,-14.4191 -14.213,-28.8378 -21.3195,-43.2569 -13.3376,-0.36043 -26.6751,-0.72086 -40.0126,-1.08142 -3.89296,5.6054 -7.78593,11.2108 -11.6789,16.8161 z"
       id="path249"
       inkscape:connector-curvature="0"
       style="fill:#9f695a" /><ellipse
       class="fil8"
       cx="76.854103"
       cy="147.28"
       rx="19.0839"
       ry="28.3004"
       id="ellipse253"
       d="m 95.938004,147.28 c 0,15.62988 -8.544154,28.3004 -19.083901,28.3004 -10.539747,0 -19.0839,-12.67052 -19.0839,-28.3004 0,-15.62988 8.544153,-28.3004 19.0839,-28.3004 10.539747,0 19.083901,12.67052 19.083901,28.3004 z"
       sodipodi:cx="76.854103"
       sodipodi:cy="147.28"
       sodipodi:rx="19.0839"
       sodipodi:ry="28.3004"
       style="fill:#ecb988" /><path
       class="fil9"
       d="m 68.8907,131.476 c 3.19875,-1.01506 8.32617,6.14486 11.4504,15.9889 3.12408,9.84415 3.06352,18.6505 -0.135095,19.6657 -3.19862,1.01506 -8.32617,-6.14499 -11.4503,-15.989 -3.12408,-9.84402 -3.06366,-18.6504 0.134963,-19.6656 z"
       id="path257"
       inkscape:connector-curvature="0"
       style="fill:url(#id35)" /><path
       class="fil10"
       d="m 130.378,72.7911 c 28.7838,0 52.0878,31.4754 52.0878,71.8075 0,40.332 -23.3429,73.0401 -52.1264,73.0401 -22.3333,0 -41.7409,-17.5158 -48.0549,-44.5224 -2.00968,-8.59597 -2.05638,-14.0041 -2.11812,-22.2351 -0.03074,-4.09613 -3.12025,-14.2892 -2.65771,-18.2009 4.09323,-34.6117 27.0092,-59.8893 52.8692,-59.8893 z"
       id="path261"
       inkscape:connector-curvature="0"
       style="fill:url(#id18)" /><path
       class="fil12"
       d="m 142.205,73.1655 c -2.12234,-0.215176 -8.40692,-3.54111 -6.79685,-0.824029 0.73485,1.24013 -2.58304,-1.65624 -3.8737,-1.81825 -1.78394,-0.224016 -3.14268,1.11282 -4.93019,0.914928 -6.78946,3.60285 -10.6173,12.5541 -12.7839,24.5061 0.61664,2.37565 1.23314,4.751161 1.84965,7.126941 -0.82904,-1.27536 -1.65822,-2.55072 -2.48752,-3.825811 -0.0541,1.365071 -0.10818,2.730011 -0.16214,4.095341 -0.48669,-0.61083 -0.97337,-1.22153 -1.46019,-1.83223 -4.43625,5.7335 -10.1843,9.80154 -16.277001,15.2498 0.306471,-1.18551 0.612942,-2.37103 0.919282,-3.55654 -0.61281,0.0718 -1.22562,0.14367 -1.83856,0.21557 0.144198,-0.952 0.288529,-1.90413 0.432595,-2.856 -1.65822,2.33501 -3.3167,4.67002 -4.97504,7.00517 0,-1.02377 0,-2.04767 0,-3.07144 -0.775083,0.23338 -1.55003,0.4669 -2.32525,0.70054 0.05409,-0.66479 0.10805,-1.32932 0.162141,-1.99384 -3.24506,3.03833 -6.25542,9.23451 -8.92263,20.0456 -1.78447,1.58064 -3.56908,3.16115 -5.35355,4.74193 0.378504,-1.25742 0.757009,-2.5147 1.13565,-3.77198 -0.720992,0.3413 -1.44198,0.68247 -2.16311,1.0239 0.306471,-1.68856 0.612942,-3.37699 0.919282,-5.06528 -0.171244,-0.32705 -0.34262,-0.6541 -0.513864,-0.98102 -1.58895,-0.50384 -3.17791,-1.00767 -4.76686,-1.51138 -5.31674,1.35095 -6.13826,7.66996 -3.23516,18.1058 1.61719,4.29851 3.23437,8.59702 4.85143,12.8957 1.85941,6.71097 6.02296,11.8045 12.6429,14.5342 0.720201,4.85011 2.01113,9.43913 4.02529,14.9108 0.215572,13.0812 -2.13738,25.9379 -4.39574,38.6813 -3.78122,-5.05658 -7.25293,-10.2981 -10.3136,-15.7856 -4.84457,0.77086 -6.54038,5.05499 -5.95871,13.1706 -3.10561,2.66299 -6.21135,5.32584 -9.31709,7.98883 -2.65811,0.66835 -4.8881,0.22784 -6.82522,-0.97166 2.94558,-1.08987 4.95869,-2.7994 5.30856,-5.61371 -4.08057,2.44517 -8.1614,3.8485 -12.2422,3.99442 2.78872,-1.54779 5.08164,-3.27527 6.28352,-5.39788 -2.92513,0.74672 -5.85026,1.30425 -8.77539,1.18763 -2.92513,-0.11662 -7.60307,10.0052 -7.04198,8.85231 0.561094,-1.1528 3.12052,-13.6351 2.38343,-12.9546 -0.737088,0.68036 -8.67579,4.09138 -12.7839,4.53414 3.65575,-1.81772 6.95992,-3.86895 9.75048,-6.26148 -5.00658,2.15796 -10.2699,3.63346 -15.7091,4.64206 5.77453,-2.72803 11.5245,-5.47875 14.084,-11.1194 -1.30003,-0.036 -2.60006,-0.072 -3.90022,-0.10805 1.04738,-1.15148 2.09464,-2.30309 3.14189,-3.45456 0.462279,-1.5098 0.924427,-3.01933 1.38671,-4.52886 -5.1112,-23.6183 21.8101,-61.5285 28.8427,-89.0319 14.7586,-41.222897 35.9727,-70.957597 75.034295,-68.934997 5.98575,-6.5698 16.9429,-2.78106 29.2926,3.908 12.1248,7.27127 20.9546,20.6176 27.3013,38.5404 4.12265,14.159297 8.24543,28.318397 12.3682,42.477697 5.58271,17.2178 4.51131,34.5861 -2.61774,52.0919 2.97487,10.9122 5.82045,21.8613 10.8586,32.1859 -3.39665,-3.51208 -5.20421,-8.01403 -6.28906,-12.9659 0.89039,6.86744 2.12155,13.6664 7.37338,19.6649 -3.89362,-1.12681 -6.58643,-4.13413 -8.45771,-8.42789 1.14105,9.17355 4.86396,16.8266 12.3612,22.258 -2.09648,0.28814 -4.19284,0.57614 -6.28906,0.8644 1.22879,0.79224 2.45771,1.58473 3.68663,2.3771 -8.16271,0.90015 -16.0533,-3.21432 -23.638,-12.9659 -2.74689,3.0973 -5.49392,6.19473 -8.24068,9.29216 -10.2046,8.61206 -20.4092,17.224 -30.6137,25.8361 5.28904,-17.1838 10.5779,-34.3677 15.8671,-51.5515 9.42119,-6.64685 17.3397,-15.3139 19.8915,-31.1953 6.79659,-19.083 8.20058,-35.0475 3.09585,-47.248 -1.87946,-10.1566 -3.75905,-20.3131 -5.63838,-30.4697 -7.12826,-20.498998 -18.2339,-34.213698 -40.3363,-29.173098 -1.00029,0.215836 -6.38075,-1.88527 -3.00073,0.647508 z M 34.224,197.3415 c 0.705425,3.54058 0.430485,6.62561 -1.02746,9.16063 0.34262,-3.05363 0.685108,-6.10713 1.02746,-9.16063 z m 11.5856,-42.3781 c -9.44216,18.8942 -15.7356,35.9517 -13.3256,47.9326 0.864795,-15.9777 6.66506,-31.9552 13.3256,-47.9326 z"
       id="path265"
       inkscape:connector-curvature="0"
       style="fill:#000000" /><polygon
       class="fil13"
       points="173.385,134.916 167.483,135.972 162.967,135.5 157.075,132.759 161.748,129.694 167.897,128.57 172.221,128.944 179.037,133.222 "
       id="polygon269"
       style="fill:#ffffff" /><polygon
       class="fil13"
       points="406.889,134.626 400.987,135.681 396.471,135.209 390.579,132.469 395.252,129.404 401.401,128.279 405.725,128.654 412.541,132.931 "
       id="polygon271"
       style="fill:#ffffff" /><polygon
       class="fil13"
       points="123.087,128.605 125.513,130.578 126.306,131.461 120.01,133.118 113.971,133.203 108.9,132.175 104.285,129.433 110.353,125.834 117.845,125.578 "
       id="polygon273"
       style="fill:#ffffff" /><polygon
       class="fil13"
       points="356.591,128.314 359.017,130.287 359.81,131.17 353.514,132.827 347.475,132.913 342.404,131.884 337.788,129.143 343.856,125.544 351.349,125.287 "
       id="polygon275"
       style="fill:#ffffff" /><path
       class="fil12"
       d="m 101.572,130.761 c 4.56105,-1.21111 7.09792,-4.49575 11.8183,-5.17822 2.29174,-0.42574 4.96594,0.40687 7.61495,2.01033 1.50254,0.99514 3.00521,1.99015 4.50802,2.98503 -2.62961,-2.77843 -5.43838,-5.41635 -10.3563,-6.39645 -4.61066,0.1256 -8.06073,1.70241 -10.7217,4.26434 -0.95451,0.77165 -1.90901,1.54344 -2.86326,2.31496 z"
       id="path277"
       inkscape:connector-curvature="0"
       style="fill:#000000" /><ellipse
       class="fil12"
       cx="114.325"
       cy="129.162"
       rx="5.0866599"
       ry="4.6690998"
       id="ellipse281"
       d="m 119.41166,129.162 c 0,2.57868 -2.27738,4.6691 -5.08666,4.6691 -2.80929,0 -5.08666,-2.09042 -5.08666,-4.6691 0,-2.57867 2.27737,-4.6691 5.08666,-4.6691 2.80928,0 5.08666,2.09043 5.08666,4.6691 z"
       sodipodi:cx="114.325"
       sodipodi:cy="129.162"
       sodipodi:rx="5.0866599"
       sodipodi:ry="4.6690998"
       style="fill:#000000" /><ellipse
       class="fil13"
       cx="112.241"
       cy="127.597"
       rx="1.42285"
       ry="1.3060499"
       id="ellipse285"
       d="m 113.66385,127.597 c 0,0.72131 -0.63703,1.30605 -1.42285,1.30605 -0.78582,0 -1.42285,-0.58474 -1.42285,-1.30605 0,-0.72131 0.63703,-1.30605 1.42285,-1.30605 0.78582,0 1.42285,0.58474 1.42285,1.30605 z"
       sodipodi:cx="112.241"
       sodipodi:cy="127.597"
       sodipodi:rx="1.42285"
       sodipodi:ry="1.3060499"
       style="fill:#ffffff" /><path
       class="fil14"
       d="m 110.171,128.311 c -0.15145,1.47642 0.27771,2.84162 1.20873,4.11117 1.56178,0.18193 3.12355,0.36386 4.68533,0.54592 1.58473,-1.03578 2.42209,-2.33 2.51259,-3.88214 -2.85138,0.45568 -5.65844,0.26755 -8.40665,-0.77495 z"
       id="path289"
       inkscape:connector-curvature="0"
       style="fill:#003333" /><ellipse
       class="fil12"
       cx="114.563"
       cy="129.48"
       rx="1.66395"
       ry="1.52736"
       id="ellipse293"
       d="m 116.22695,129.48 c 0,0.84353 -0.74497,1.52736 -1.66395,1.52736 -0.91897,0 -1.66395,-0.68383 -1.66395,-1.52736 0,-0.84354 0.74498,-1.52736 1.66395,-1.52736 0.91898,0 1.66395,0.68382 1.66395,1.52736 z"
       sodipodi:cx="114.563"
       sodipodi:cy="129.48"
       sodipodi:rx="1.66395"
       sodipodi:ry="1.52736"
       style="fill:#000000" /><ellipse
       class="fil13"
       cx="111.225"
       cy="130.15199"
       rx="0.711371"
       ry="0.65297699"
       id="ellipse297"
       d="m 111.93637,130.15199 c 0,0.36063 -0.31849,0.65298 -0.71137,0.65298 -0.39288,0 -0.71137,-0.29235 -0.71137,-0.65298 0,-0.36063 0.31849,-0.65297 0.71137,-0.65297 0.39288,0 0.71137,0.29234 0.71137,0.65297 z"
       sodipodi:cx="111.225"
       sodipodi:cy="130.15199"
       sodipodi:rx="0.711371"
       sodipodi:ry="0.65297699"
       style="fill:#ffffff" /><ellipse
       class="fil12"
       cx="167.21201"
       cy="131.948"
       rx="4.9471202"
       ry="4.5410199"
       id="ellipse301"
       d="m 172.15913,131.948 c 0,2.50793 -2.21491,4.54102 -4.94712,4.54102 -2.73222,0 -4.94712,-2.03309 -4.94712,-4.54102 0,-2.50794 2.2149,-4.54102 4.94712,-4.54102 2.73221,0 4.94712,2.03308 4.94712,4.54102 z"
       sodipodi:cx="167.21201"
       sodipodi:cy="131.948"
       sodipodi:rx="4.9471202"
       sodipodi:ry="4.5410199"
       style="fill:#000000" /><path
       class="fil16"
       d="m 130.626,148.432 c -1.77233,1.90083 -2.2953,4.46514 -1.90479,7.08736 0.614,0.4694 1.22786,0.93894 1.84173,1.40834 3.19136,-0.319 5.48548,-0.26016 7.77405,0.14354 4.0402,0.71268 5.88997,1.37971 8.11575,1.07206 3.63306,-0.50226 4.82174,-1.22523 5.40408,-3.36788 0.8396,-3.09242 0.21148,-5.71029 -0.61809,-8.50797 -0.95332,-3.21498 -1.32193,-6.53669 -1.60201,-9.87568 -0.30172,-3.59256 -0.33972,-5.59762 0.64382,-9.04044 0.61399,3.93637 1.22786,7.8726 1.84186,11.809 1.67998,5.95673 3.03846,9.41578 6.50028,14.5173 1.40043,1.89727 2.24253,2.91101 2.22736,4.30999 -0.10001,9.12778 -15.9584,10.3968 -20.392,5.81372 -0.69725,-0.7206 -1.52352,-1.33209 -2.77196,-1.42061 -7.92366,-0.56215 -11.0347,-3.37923 -10.4815,-6.31967 -0.0384,-3.49229 1.00847,-6.15607 3.42145,-7.62906 z"
       id="path305"
       inkscape:connector-curvature="0"
       style="fill:url(#linearGradient3831)" /><path
       class="fil14"
       d="m 163.072,131.369 c -0.0379,1.48367 0.49487,2.81194 1.52048,4.00642 1.57114,0.0616 3.14229,0.12309 4.71343,0.18483 1.50056,-1.15425 2.2362,-2.50889 2.20744,-4.06341 -2.80811,0.6731 -5.62137,0.70081 -8.44135,-0.12784 z"
       id="path309"
       inkscape:connector-curvature="0"
       style="fill:#003333" /><ellipse
       class="fil12"
       cx="167.283"
       cy="131.996"
       rx="1.66395"
       ry="1.52736"
       id="ellipse313"
       d="m 168.94695,131.996 c 0,0.84354 -0.74497,1.52736 -1.66395,1.52736 -0.91897,0 -1.66395,-0.68382 -1.66395,-1.52736 0,-0.84354 0.74498,-1.52736 1.66395,-1.52736 0.91898,0 1.66395,0.68382 1.66395,1.52736 z"
       sodipodi:cx="167.283"
       sodipodi:cy="131.996"
       sodipodi:rx="1.66395"
       sodipodi:ry="1.52736"
       style="fill:#000000" /><path
       class="fil12"
       d="m 106.034,130.638 c 4.7633,3.60932 10.6179,4.03294 17.3773,1.81719 -6.36017,1.02694 -12.2286,0.63893 -17.3773,-1.81719 z"
       id="path317"
       inkscape:connector-curvature="0"
       style="fill:#000000" /><path
       class="fil17"
       d="m 140.971,171.393 c -8.34095,1.02667 -16.2746,2.89215 -23.9557,5.27795 7.49845,-0.35594 14.9969,-0.71163 22.4955,-1.06744 1.61019,0.0987 3.22065,0.19737 4.83111,0.29618 2.64267,-0.019 5.28547,-0.0379 7.92814,-0.0566 4.38361,0.55635 8.76708,1.11295 13.1507,1.66943 0.72086,-0.39671 1.44185,-0.79315 2.16298,-1.18974 -5.58047,-2.19622 -11.4381,-3.75813 -17.5247,-4.79391 -1.54634,0.55305 -3.09281,1.10596 -4.63889,1.65901 -1.48301,-0.59843 -2.96616,-1.19673 -4.44918,-1.79489 z"
       id="path321"
       inkscape:connector-curvature="0"
       style="fill:#d89480" /><path
       class="fil17"
       d="m 116.75,176.633 c 5.3298,6.41901 8.78212,9.16709 13.9222,11.0578 4.39614,1.61705 8.35282,2.07828 12.3532,2.02564 6.40146,-0.084 11.9586,0.0463 16.9488,-4.1526 3.12289,-2.62816 5.58759,-5.6678 7.69489,-8.93081 -16.9729,0 -33.946,0 -50.9191,0 z"
       id="path325"
       inkscape:connector-curvature="0"
       style="fill:#d89480" /><path
       class="fil12"
       d="m 159.868,134.43 c 5.08652,2.81246 10.781,2.40678 16.9797,-0.66532 -5.97955,1.87221 -11.6823,2.31417 -16.9797,0.66532 z"
       id="path329"
       inkscape:connector-curvature="0"
       style="fill:#000000" /><path
       class="fil12"
       d="m 156.906,132.933 c 3.45733,-2.01258 6.75741,-4.45181 10.9909,-4.36329 5.47255,0.98894 8.99426,3.99864 13.4763,6.35159 -1.10464,-0.99422 -2.20928,-1.9883 -3.31379,-2.98252 -6.85754,-6.82073 -14.7072,-5.67018 -21.1534,0.99422 z"
       id="path333"
       inkscape:connector-curvature="0"
       style="fill:#000000" /><path
       class="fil12"
       d="m 130.974,160.1 c 2.39715,0.88551 2.49399,0.66835 4.88072,0.12309 1.40214,-0.32006 2.30981,-0.0698 4.58269,0.68801 -4.27556,-2.57591 -5.06212,-3.05891 -9.4634,-0.8111 z"
       id="path337"
       inkscape:connector-curvature="0"
       style="fill:#000000" /><path
       class="fil12"
       d="m 154.876,160.911 c -1.20662,-1.46745 -2.68383,-2.02841 -4.75881,-0.59487 -1.42391,1.13565 -2.84782,2.27129 -4.27199,3.4068 3.02698,-1.89054 6.06847,-3.36432 9.03081,-2.81194 z"
       id="path341"
       inkscape:connector-curvature="0"
       style="fill:#000000" /><path
       class="fil12"
       d="m 130.487,148.365 c -5.562,5.48007 -4.87663,8.97672 -1.35201,11.5724 -2.7217,-2.99215 -2.27116,-6.84976 1.35201,-11.5724 z"
       id="path345"
       inkscape:connector-curvature="0"
       style="fill:#000000" /><path
       class="fil12"
       d="m 157.471,151.88 c 3.78518,5.6682 3.6762,8.87619 -0.75714,9.78795 3.31696,-2.03698 3.20865,-5.44405 0.75714,-9.78795 z"
       id="path349"
       inkscape:connector-curvature="0"
       style="fill:#000000" /><path
       class="fil19"
       d="m 129.638,188.094 c 7.97722,2.94637 16.326,3.30509 25.0262,1.19172 -8.46576,3.93874 -16.8126,3.56631 -25.0262,-1.19172 z"
       id="path353"
       inkscape:connector-curvature="0"
       style="fill:#744644" /><path
       class="fil20"
       d="m 118.644,175.89 c 7.21111,-1.72154 14.3235,-3.62053 22.2797,-4.00167 1.478,0.57693 2.956,1.15372 4.43427,1.73051 1.58618,-0.59487 3.17237,-1.18974 4.75868,-1.7846 6.00792,0.93841 11.7485,2.67961 17.4667,4.48836 -5.68047,-2.19121 -11.4055,-4.25023 -17.5208,-5.13732 -1.6222,0.55898 -3.24453,1.1177 -4.86686,1.67642 -1.37008,-0.64896 -2.7399,-1.29779 -4.10985,-1.94675 -8.07881,0.66176 -15.2432,2.84716 -22.4418,4.97504 z"
       id="path357"
       inkscape:connector-curvature="0"
       style="fill:#a77260" /><path
       class="fil21"
       d="m 117.887,176.863 c 0.92192,1.83144 3.07144,3.57831 6.17599,5.25909 3.92106,2.123 6.44051,2.19504 10.8508,2.3643 5.28429,0.20277 10.6554,0.38075 15.9116,0.6388 3.55707,0.17454 4.6881,0.29117 7.72788,-1.70254 2.94189,-1.92946 4.81607,-3.84375 6.86717,-5.91069 -7.39027,-1.86033 -12.9966,-1.79252 -20.6573,-1.56824 -8.96339,-0.98525 -17.891,0.28576 -26.8761,0.91928 z"
       id="path361"
       inkscape:connector-curvature="0"
       style="fill:url(#id41)" /><path
       class="fil12"
       d="m 100.629,129.464 c 2.25414,-1.94912 4.52569,-3.877 7.27747,-5.2364 3.19849,-1.58025 7.60597,-0.93234 11.1286,-1.03169 0.77667,0.18998 1.5342,0.43774 2.27789,0.7264 1.82933,0.71004 3.57594,1.66996 5.31846,2.64188 -2.2581,-1.72471 -4.56527,-3.36894 -7.45017,-4.07133 -3.58544,0.1508 -8.2767,-0.49025 -11.4762,1.2243 -2.92632,1.56798 -5.00526,3.65509 -7.07601,5.74683 z"
       id="path365"
       inkscape:connector-curvature="0"
       style="fill:#000000" /><path
       class="fil12"
       d="m 154.708,132.238 c 3.17461,-2.6498 6.35793,-5.25249 9.83096,-6.40674 8.22116,0.61888 12.3191,0.0957 16.8454,7.2904 -3.54982,-8.28277 -8.75705,-7.42365 -17.1215,-7.89793 -4.11236,1.40874 -6.92654,4.11856 -9.55483,7.01427 z"
       id="path369"
       inkscape:connector-curvature="0"
       style="fill:#000000" /><path
       class="fil23"
       d="m 135.405,118.984 -5.30065,-2.10902 0.72878,1.13565 -2.91524,-1.46006 0.19881,0.8111 -4.2406,-1.02746 0.53009,0.97337 -8.34834,-1.29779 0.46374,0.97338 -7.28829,-0.8652 -4.90301,-0.27045 4.37292,1.40597 -7.22206,-1.40597 1.92155,1.46006 -7.950975,-0.21623 c 0,0 4.571745,-0.48669 4.17424,-0.59487 -0.397502,-0.10818 -1.78896,-1.24383 -1.78896,-1.24383 l 1.98778,0.16227 -0.795136,-0.86519 4.505511,-0.32454 -0.0662,-0.97338 10.5349,-0.10818 -0.59632,-0.97337 10.6012,1.29792 -0.3975,-1.29792 7.35452,3.35284 -2.65032,-2.70389 5.0356,2.92012 -0.59632,-1.02746 2.65032,4.27213 z"
       id="path373"
       inkscape:connector-curvature="0"
       style="fill:url(#id4)" /><path
       class="fil25"
       d="m 150.681,120.451 4.42002,-3.78544 -1.72656,2.5957 9.11643,-3.8394 -2.4172,1.78447 11.4645,-1.51415 -2.27907,0.97337 11.2572,0.91942 -4.76528,0.21623 c 0,0 10.981,0.91928 10.5666,0.91928 -0.41439,0 -6.56096,0.10818 -6.56096,0.10818 l 10.3595,1.7846 -7.52787,-0.21636 7.25161,1.2437 -6.00844,-0.27032 5.11067,1.35188 -10.9811,-2.21707 0.41439,0.757 -7.87326,-1.29779 -0.55252,0.64896 -8.90917,0.54065 2.14108,-1.51415 -6.97548,1.67642 c 0,0 1.31217,-1.08155 0.96691,-1.08155 -0.34526,0 -6.2847,1.51415 -6.2847,1.51415 l 1.38117,-1.08155 -1.58843,-0.21623 z"
       id="path377"
       inkscape:connector-curvature="0"
       style="fill:url(#id5)" /><ellipse
       class="fil13"
       cx="165.02"
       cy="130.627"
       rx="1.3838201"
       ry="1.27022"
       id="ellipse381"
       d="m 166.40382,130.627 c 0,0.70152 -0.61955,1.27022 -1.38382,1.27022 -0.76426,0 -1.38382,-0.5687 -1.38382,-1.27022 0,-0.70152 0.61956,-1.27022 1.38382,-1.27022 0.76427,0 1.38382,0.5687 1.38382,1.27022 z"
       sodipodi:cx="165.02"
       sodipodi:cy="130.627"
       sodipodi:rx="1.3838201"
       sodipodi:ry="1.27022"
       style="fill:#ffffff" /><ellipse
       class="fil13"
       cx="165.07401"
       cy="133.422"
       rx="0.69185698"
       ry="0.63506401"
       id="ellipse385"
       d="m 165.76586,133.422 c 0,0.35073 -0.30975,0.63506 -0.69185,0.63506 -0.38211,0 -0.69186,-0.28433 -0.69186,-0.63506 0,-0.35074 0.30975,-0.63507 0.69186,-0.63507 0.3821,0 0.69185,0.28433 0.69185,0.63507 z"
       sodipodi:cx="165.07401"
       sodipodi:cy="133.422"
       sodipodi:rx="0.69185698"
       sodipodi:ry="0.63506401"
       style="fill:#ffffff" /><path
       class="fil27"
       d="m 85.5953,186.677 c 15.9225,32.2869 51.7773,40.7749 83.2581,23.2716 -5.67493,23.2931 -14.1902,46.8908 -23.0386,69.5818 -2.57882,6.26914 -5.15763,12.5384 -7.73632,18.8075 1.3528,-6.64025 2.70547,-13.2804 4.05827,-19.9204 3.21722,-15.272 15.4907,-39.8377 8.17195,-46.9971 -9.6861,-0.0767 -19.358,-2.03158 -29.0149,-5.86385 -18.949,-7.86482 -30.9866,-20.7247 -35.6984,-38.8796 z"
       id="path389"
       inkscape:connector-curvature="0"
       style="fill:url(#linearGradient3833)" /><path
       class="fil28"
       d="m 72.0494,132.858 c -7.19515,-1.4371 -4.02107,11.3909 -3.68346,15.059 -1.7069,-6.87403 -3.3043,-13.6023 -1.51679,-15.8174 2.03026,-2.12722 3.71301,-1.46639 5.20025,0.75833 z"
       id="path393"
       inkscape:connector-curvature="0"
       style="fill:url(#id33)" /><path
       class="fil13"
       d="m 542.418,119.219 c 1.75809,0.89976 4.20168,1.50043 8.33132,1.36626 3.19308,-0.40766 6.27666,-1.03485 9.05746,-2.26971 -2.55942,-1.70175 -5.69683,-2.36232 -9.0188,-2.69017 -3.26683,0.63022 -5.9281,1.98157 -8.36998,3.59362 z"
       id="path421"
       inkscape:connector-curvature="0"
       style="fill:#ffffff" /><polygon
       class="fil13"
       points="595.735,118.409 591.506,117.543 595.819,114.848 603.781,114.47 611.072,117.362 605.834,118.2 600.093,118.787 "
       id="polygon463"
       style="fill:#ffffff" /><path
       class="fil49"
       d="m 77.2128,143.712 c -0.345258,-1.36111 -1.01203,-5.90831 -1.24765,-6.7615 -2.1486,-7.78329 0.272038,7.31467 -0.09459,7.54661 -7.04264,4.45379 -2.34438,7.75901 3.46657,12.8963 -2.58858,-4.32503 -3.53187,-8.85534 -2.12432,-13.6814 z"
       id="path511"
       inkscape:connector-curvature="0"
       style="fill:url(#id31)" /><path
       class="fil50 str0"
       d="m 137.24,46.0217 c 5.97546,-2.71352 12.05,-1.75809 18.1698,0.865191 C 149.41639,46.478966 143.354,46.201124 137.24,46.0217 z"
       id="path515"
       inkscape:connector-curvature="0"
       style="fill:none;stroke:#23201d;stroke-width:0.26385799" /><path
       class="fil51"
       d="m 127.964,151.113 c -4.89101,6.57772 -9.77067,12.9185 -15.0274,19.1469 -2.24807,2.66365 -1.74898,3.2411 -1.33169,6.74606 -1.33288,-4.0493 -2.13369,-4.26685 0.62086,-7.48777 5.24695,-6.13391 10.493,-12.2697 15.7382,-18.4052 z"
       id="path519"
       inkscape:connector-curvature="0"
       style="fill:#e0a57b" /><path
       class="fil51"
       d="m 158.928,153.487 c 5.98866,9.13464 14.5287,18.6313 10.3129,26.3163 1.66785,-9.11221 -5.3798,-17.6439 -10.3129,-26.3163 z"
       id="path523"
       inkscape:connector-curvature="0"
       style="fill:#e0a57b" /><polygon
       class="fil20"
       points="144.776,175.418 140.531,175.051 118.04,176.499 116.911,176.826 118.068,176.851 140.564,175.668 144.763,175.944 150.249,175.833 165.421,177.512 167.529,176.633 165.339,177.09 150.215,175.214 "
       id="polygon527"
       style="fill:#a77260" /><path
       class="fil19"
       d="m 128.695,133.841 c -6.43933,4.722 -14.7383,5.17835 -23.6315,4.27199 8.22894,-0.0749 16.269,-0.87654 23.6315,-4.27199 z"
       id="path531"
       inkscape:connector-curvature="0"
       style="fill:#744644" /><path
       class="fil19"
       d="m 155.808,136.205 c 3.61644,2.01337 6.78801,4.21315 13.2487,5.02914 1.06177,-0.0108 2.11931,0.11069 3.10798,-0.1095 3.40878,-0.75991 6.68696,-1.35715 10.0327,-1.45874 -2.01456,-0.26214 -4.97623,-0.20924 -10.0194,0.53814 -1.01282,0.15 -2.0449,0.10976 -3.06722,0.16478 -5.6178,-0.4198 -9.33174,-2.39728 -13.3028,-4.16381 z"
       id="path535"
       inkscape:connector-curvature="0"
       style="fill:#744644" /><path
       class="fil19"
       d="m 120.178,210.979 c 9.16907,10.7078 26.4412,11.993 41.2712,-0.0297 -15.3262,9.12223 -31.5792,7.26481 -41.2712,0.0297 z"
       id="path539"
       inkscape:connector-curvature="0"
       style="fill:#744644" /><path
       class="fil51"
       d="m 117.738,176.782 c 2.51338,3.97423 6.78775,6.40423 12.5561,7.52431 -5.93008,-1.74503 -9.91249,-4.2398 -11.7555,-7.55808 -0.26689,0.0115 -0.53365,0.0226 -0.80055,0.0338 z"
       id="path543"
       inkscape:connector-curvature="0"
       style="fill:#e0a57b" /><path
       class="fil51"
       d="m 164.756,177.349 c -0.70859,0.86941 -1.4842,1.63618 -2.25084,2.38581 -3.35839,3.28385 -6.68616,5.54709 -10.9506,5.42677 4.384,0.79857 7.83593,-1.89754 11.4777,-5.22175 0.8264,-0.7545 1.62814,-1.55689 2.38844,-2.42749 -0.22177,-0.0545 -0.44328,-0.10897 -0.66466,-0.16333 z"
       id="path547"
       inkscape:connector-curvature="0"
       style="fill:#e0a57b" /><path
       class="fil30"
       d="m 69.3674,150.486 c 1.80677,5.73997 4.2625,10.3985 7.36705,13.9758 -2.50533,-3.76394 -4.92861,-8.50876 -7.36705,-13.9758 z"
       id="path551"
       inkscape:connector-curvature="0"
       style="fill:#c28e72" /><path
       class="fil52"
       d="m 72.7932,134.475 c 2.08276,5.38983 1.21493,9.34915 -2.09635,12.1234 1.24871,-3.08199 1.9478,-7.12311 2.09635,-12.1234 z"
       id="path555"
       inkscape:connector-curvature="0"
       style="fill:#915e5a" /><path
       class="fil52"
       d="m 96.9714,130.898 c 2.22907,0.0467 4.34376,0.63801 6.32072,1.88685 -0.8644,-0.79223 -1.66745,-1.66719 -2.92447,-1.93395 -1.40214,0.06 -2.33989,0.0441 -3.39625,0.0471 z"
       id="path559"
       inkscape:connector-curvature="0"
       style="fill:#915e5a" /><path
       class="fil52"
       d="m 185.382,135.41 c -2.15269,0.0451 -4.19508,0.61611 -6.10423,1.8222 0.83471,-0.76519 1.5755,-1.60637 2.4523,-1.98197 1.35412,0.0581 2.63185,0.15673 3.65193,0.15977 z"
       id="path563"
       inkscape:connector-curvature="0"
       style="fill:#915e5a" /><path
       class="fil54"
       d="m 144.992,302.122 c -5.4141,8.2362 -12.9451,14.0497 -21.2423,18.9871 -7.42378,4.35511 -12.7375,10.7 -17.0921,17.9499 C 93.1328,323.3469 81.3552,306.8551 71.168,289.6533 65.89097,279.4064 60.6138,269.1593 55.3366,258.9122 c -2.68172,-4.89826 -5.36344,-9.79639 -8.0453,-14.6948 2.35876,4.99919 4.71726,9.99838 7.07575,14.9974 5.13019,10.4662 10.2603,20.9324 15.3904,31.3987 10.3671,17.635 22.5117,34.4595 36.6082,50.3937 5.4244,-7.39792 11.0831,-14.4782 18.379,-19.335 9.85339,-5.58218 17.0163,-11.9744 20.2472,-19.5503 z"
       id="path569"
       inkscape:connector-curvature="0"
       style="fill:#4d0000" /><path
       class="fil54"
       d="m 147.28,305.571 c 3.35007,-3.81684 8.55415,-3.4762 15.2944,0.30898 1.14198,5.29313 6.16425,8.51088 11.7412,11.4322 8.31654,-22.3686 8.52249,-45.8638 2.00836,-70.2925 7.80123,23.5733 8.7403,47.6488 -0.34935,72.4581 -6.10449,-3.52976 -13.3916,-6.56743 -14.278,-12.2714 -5.05829,-3.17448 -9.87186,-3.80286 -14.4165,-1.63539 z"
       id="path573"
       inkscape:connector-curvature="0"
       style="fill:#4d0000" /><path
       class="fil54"
       d="m 1.82405,284.346 c 23.573,8.13646 38.7006,23.4822 45.3828,46.0377 -10.0585,-22.8869 -25.0252,-37.7245 -45.3828,-43.7204 0,-0.77245 0,-1.54489 0,-2.31733 z"
       id="path577"
       inkscape:connector-curvature="0"
       style="fill:#4d0000" /><path
       class="fil54"
       d="m 44.2031,298.32 c 8.25718,14.0048 14.6542,28.195 16.9595,42.7946 1.71072,0 3.42158,0 5.13244,0 -5.40777,-16.8731 -13.1136,-30.6823 -22.0919,-42.7946 z"
       id="path581"
       inkscape:connector-curvature="0"
       style="fill:#4d0000" /><path
       class="fil54"
       d="m 186.099,271.801 c 6.56242,19.5647 8.45362,42.1697 1.85466,69.4682 1.03037,0 2.06073,0 3.0911,0 5.3579,-23.1562 3.70932,-46.3122 -4.94576,-69.4682 z"
       id="path585"
       inkscape:connector-curvature="0"
       style="fill:#4d0000" /><path
       class="fil56"
       d="m 152.756,261.259 c 3.08754,-2.42776 6.17507,-4.85565 9.26274,-7.28354 -0.95609,13.931 -7.0082,33.7146 -12.914,47.2334 -4.58902,1.86218 -5.16476,-2.21839 -9.75391,-0.35621 1.01216,-4.32978 2.02432,-8.65956 3.03635,-12.9892 3.45628,-8.86814 6.91255,-17.7363 10.3688,-26.6044 z"
       id="path589"
       inkscape:connector-curvature="0"
       style="fill:url(#id36)" /><path
       class="fil54"
       d="m 145.817,307.561 c -2.09503,5.79696 -1.45768,13.1868 0.77178,19.6033 1.72365,0.36017 3.60166,-0.28299 4.86225,-1.54357 -4.42503,-4.53414 -6.14842,-10.6443 -5.63403,-18.0598 z"
       id="path593"
       inkscape:connector-curvature="0"
       style="fill:#4d0000" /><path
       class="fil57"
       d="m 1.82405,286.663 c 20.4275,6.74157 35.897,20.8097 45.3828,43.7204 0.492095,3.62844 0.984191,7.25702 1.47642,10.8856 l -11.384,0 c 0.07691,-0.89065 0.11834,-1.7908 0.11834,-2.70046 0,-17.7516 -14.9495,-32.1474 -33.3839,-32.1474 -0.786957,0 -1.56719,0.0284 -2.34055,0.0799 l 0.130874,-19.838 z"
       id="path595"
       inkscape:connector-curvature="0"
       style="fill:url(#linearGradient3835)" /><path
       class="fil58"
       d="m 49.3523,305.685 c 6.92245,10.3827 12.7399,22.0021 16.9427,35.4297 12.6165,0.0514 8.53647,0.0347 21.1531,0.0863 C 69.9307,322.432 68.5176,309.2097 49.3523,305.685 z"
       id="path597"
       inkscape:connector-curvature="0"
       style="fill:url(#id34)" /><path
       class="fil59"
       d="m 56.5542,263.676 c 6.05686,26.3297 14.0263,52.5042 35.386,77.5934 4.80855,-0.0875 9.6171,-0.17494 14.4258,-0.26227 -22.2556,-25.0579 -37.7453,-50.977 -49.8118,-77.3311 z"
       id="path599"
       inkscape:connector-curvature="0"
       style="fill:url(#linearGradient3837)" /><path
       class="fil60"
       d="m 148.213,305.167 c 3.07672,1.48895 6.15343,2.9779 9.23028,4.46699 2.00836,3.03819 4.01671,6.07652 6.02507,9.11485 4.89206,3.19268 9.78425,6.3855 14.6764,9.57831 6.0624,-13.3364 6.45885,-27.239 4.28004,-41.3993 -1.16137,11.7642 -2.85547,23.0357 -6.4508,32.5505 -6.53933,-3.30324 -12.4854,-6.86902 -14.278,-12.2714 -6.32534,-3.61037 -10.4128,-3.639 -13.483,-2.03989 z"
       id="path601"
       inkscape:connector-curvature="0"
       style="fill:url(#id26)" /><path
       class="fil61"
       d="m 144.65,306.952 c -3.91368,4.06816 -7.82735,8.13633 -11.7412,12.2046 -9.38847,5.0327 -15.2321,11.0323 -20.0836,17.3028 22.3324,-1.77867 24.2,-7.43104 31.8247,-29.5074 z"
       id="path603"
       inkscape:connector-curvature="0"
       style="fill:url(#id29)" /><path
       class="fil62"
       d="m 192.756,297.023 c 2.24016,14.9646 1.41824,29.6937 -1.71072,44.2458 6.56558,0 13.1313,0 19.697,0 -1.57431,-18.1649 -7.34871,-33.0845 -17.9863,-44.2458 z"
       id="path605"
       inkscape:connector-curvature="0"
       style="fill:url(#id19)" /><path
       class="fil63"
       d="m 175.802,242.344 c 10.0517,14.1103 14.8164,29.2072 18.1011,44.5805 3.02131,-16.2558 3.55852,-33.2923 -7.87194,-54.0901 -3.40971,3.16986 -6.81941,6.33972 -10.2291,9.50958 z"
       id="path607"
       inkscape:connector-curvature="0"
       style="fill:url(#id21)" /></g></svg>