<?xml version="1.0" encoding="UTF-8" standalone="no"?>
<!-- Creator: CorelDRAW -->

<svg
   xmlns:dc="http://purl.org/dc/elements/1.1/"
   xmlns:cc="http://creativecommons.org/ns#"
   xmlns:rdf="http://www.w3.org/1999/02/22-rdf-syntax-ns#"
   xmlns:svg="http://www.w3.org/2000/svg"
   xmlns="http://www.w3.org/2000/svg"
   xmlns:sodipodi="http://sodipodi.sourceforge.net/DTD/sodipodi-0.dtd"
   xmlns:inkscape="http://www.inkscape.org/namespaces/inkscape"
   xml:space="preserve"
   width="200"
   height="270"
   style="fill-rule:evenodd"
   viewBox="0 0 122.56094 165.45732"
   id="svg2"
   version="1.1"
   inkscape:version="0.48.4 r9939"
   sodipodi:docname="steffi_simpson.svg"><metadata
     id="metadata228"><rdf:RDF><cc:Work
         rdf:about=""><dc:format>image/svg+xml</dc:format><dc:type
           rdf:resource="http://purl.org/dc/dcmitype/StillImage" /><dc:title /></cc:Work></rdf:RDF></metadata><sodipodi:namedview
     pagecolor="#ffffff"
     bordercolor="#666666"
     borderopacity="1"
     objecttolerance="10"
     gridtolerance="10"
     guidetolerance="10"
     inkscape:pageopacity="0"
     inkscape:pageshadow="2"
     inkscape:window-width="1138"
     inkscape:window-height="810"
     id="namedview226"
     showgrid="false"
     inkscape:zoom="1.7346896"
     inkscape:cx="141.01465"
     inkscape:cy="130.82178"
     inkscape:window-x="22"
     inkscape:window-y="79"
     inkscape:window-maximized="0"
     inkscape:current-layer="svg2"
     fit-margin-top="0"
     fit-margin-left="0"
     fit-margin-right="0"
     fit-margin-bottom="0" /><defs
     id="defs4"><style
       type="text/css"
       id="style6">
    .fil14 {fill:none}
    .fil8 {fill:black}
    .fil13 {fill:#1C1C1C}
    .fil2 {fill:#333333}
    .fil11 {fill:#4D4D4D}
    .fil9 {fill:#990000}
    .fil0 {fill:#C2DEFC}
    .fil16 {fill:#C4A00E}
    .fil6 {fill:#D1B204}
    .fil1 {fill:#EBF5FF}
    .fil12 {fill:red}
    .fil15 {fill:#FF6666}
    .fil4 {fill:#FFE100}
    .fil5 {fill:#FFFF66}
    .fil7 {fill:white}
    .fil3 {fill:#23201D;fill-rule:nonzero}
    .fil10 {fill:#666666;fill-rule:nonzero}
   </style></defs><g
     id="Ebene_x0020_1"
     transform="translate(-134.3738,-1.2826114)"><metadata
       id="CorelCorpID_0Corel-Layer" /><rect
       class="fil0"
       x="134.37399"
       width="124.781"
       height="165.39999"
       id="rect12"
       y="0"
       style="fill:#c2defc" /><path
       class="fil1"
       d="m 134.374,115.216 c 40.5498,16.996 114.009,-3.37406 124.781,-71.1943 0.33178,40.4601 0.66378,80.9202 0.99578,121.38 -41.9255,-6.5e-4 -83.8511,-0.001 -125.777,-0.002 0,-13.8465 0,-36.3378 0,-50.1841 z"
       id="path16"
       inkscape:connector-curvature="0"
       style="fill:#ebf5ff" /><path
       class="fil1"
       d="m 134.374,90.0347 c 0,6.81696 0,13.6339 0,20.4509 10.2021,5.46247 21.1029,7.19846 32.3219,7.24037 -15.8962,-3.49566 -28.0589,-13.2361 -32.3219,-27.6912 z"
       id="path108"
       inkscape:connector-curvature="0"
       style="fill:#ebf5ff" /><path
       class="fil9"
       d="m 187.159,119.085 c -5.45595,2.98365 -9.46579,6.93117 -12.0304,11.8428 0.24102,1.16471 0.48204,2.32943 0.72306,3.49414 -18.1362,8.3875 -19.6036,21.1018 -21.4467,31.771 34.8617,0.62643 69.6027,-0.75672 104.465,-0.13028 0.2458,-7.17328 0.49138,-14.3466 0.73717,-21.5198 -9.00155,-6.26543 -18.0031,-12.5309 -27.0044,-18.7961 -0.4017,-1.92794 -0.80318,-3.85589 -1.20488,-5.78361 -5.32394,-3.46613 -10.427,-6.26934 -15.4296,-8.77183 -9.60324,2.63124 -19.206,5.26249 -28.8091,7.89373 z"
       id="path116"
       inkscape:connector-curvature="0"
       style="fill:#990000" /><path
       class="fil3"
       d="m 187.304,119.44 c -2.6801,1.46979 -5.00627,3.17452 -6.97699,5.11462 -1.94401,1.91383 -3.54365,4.05717 -4.79738,6.42829 l 0.6957,3.3619 0.0612,0.29595 -0.27532,0.12746 c -17.2292,7.96799 -19.2588,19.902 -21.01,30.1992 l -0.14483,0.85074 c 17.2792,0.30203 34.5301,0.11465 51.7802,-0.0727 17.2777,-0.18782 34.556,-0.37543 51.864,-0.0717 l 0.71719,-20.9362 -26.8342,-18.6777 -0.12463,-0.0866 -0.031,-0.14983 -1.17275,-5.62771 c -2.6028,-1.69018 -5.15891,-3.22554 -7.68029,-4.64713 -2.52984,-1.42614 -5.00605,-2.72852 -7.4473,-3.95186 l -28.6236,7.84336 z m -7.51244,4.57004 c 2.03,-1.99829 4.425,-3.7521 7.18435,-5.26097 l 0.18261,0.33526 -0.10031,-0.36805 28.8091,-7.89417 0.14026,-0.0386 0.13072,0.0656 c 2.51877,1.25982 5.05295,2.59021 7.61059,4.03198 2.56827,1.44786 5.18193,3.01992 7.85617,4.76091 l 0.13354,0.0868 0.0326,0.15569 1.17383,5.63357 26.88,18.7097 0.17001,0.11834 -0.007,0.20779 -0.73718,21.5198 -0.013,0.37608 -0.37455,-0.007 c -17.4264,-0.31289 -34.8239,-0.12377 -52.2206,0.0651 -17.4045,0.18912 -34.8094,0.37825 -52.2445,0.0649 l -0.44665,-0.008 0.0758,-0.43775 c 0.0877,-0.50853 0.1546,-0.90024 0.21996,-1.28566 1.77334,-10.4268 3.82961,-22.5019 21.1689,-30.6382 l -0.66226,-3.20057 -0.0274,-0.13158 0.0634,-0.12116 c 1.30107,-2.49184 2.96889,-4.73941 5.00149,-6.74031 z"
       id="path118"
       inkscape:connector-curvature="0"
       style="fill:#23201d;fill-rule:nonzero" /><path
       class="fil13"
       d="m 153.079,70.96 c 4.25824,18.8352 4.31925,38.1005 2.47187,57.5621 5.15327,-3.95447 10.2251,-8.1265 12.783,-19.0345 1.25461,5.4831 1.07352,10.9662 -1.20597,16.4497 5.03341,-2.60562 8.63091,-6.48366 10.1298,-12.2199 1.36665,1.48824 2.73351,2.97649 4.10016,4.46495 7.70808,-9.93654 17.7777,-11.1319 28.7014,-9.16484 3.93927,1.87996 7.87853,3.75991 11.818,5.63987 0.32158,-1.80157 0.64315,-3.60336 0.96473,-5.40471 2.80517,5.32524 7.32723,9.16354 13.0242,11.9848 -2.86466,-3.76968 -5.09594,-7.74521 -5.06489,-12.4549 3.8092,8.79332 11.6191,12.13 20.2596,14.3348 -18.0748,-17.7108 -17.4757,-39.7216 -17.5786,-61.5708 -15.5256,-7.51917 -31.0514,-15.0383 -46.577,-22.5575 0,0 -26.6557,11.1972 -25.0835,11.5147 1.57249,0.317452 -8.74273,20.4563 -8.74273,20.4563 z"
       id="path120"
       inkscape:connector-curvature="0"
       style="fill:#1c1c1c" /><path
       class="fil3"
       d="m 153.481,71.0101 c 2.11446,9.39739 3.18885,18.9025 3.50478,28.484 0.30746,9.33247 -0.10401,18.7383 -0.97342,28.1896 2.319,-1.79853 4.59762,-3.70129 6.60069,-6.30474 2.20045,-2.85989 4.08301,-6.58354 5.34782,-11.9783 l 0.37695,-1.60789 0.36826,1.60941 c 0.63512,2.77629 0.90697,5.55453 0.73131,8.33386 -0.15525,2.45493 -0.65966,4.91008 -1.5701,7.36436 2.08363,-1.18881 3.88911,-2.62212 5.3602,-4.3477 1.67889,-1.96876 2.92633,-4.32229 3.66046,-7.13115 l 0.17718,-0.67876 0.47358,0.51569 3.79704,4.1349 c 3.84568,-4.81888 8.26156,-7.54284 13.0678,-8.82698 4.90573,-1.31084 10.209,-1.11738 15.7225,-0.12463 l 0.0554,0.01 0.0419,0.0202 11.3653,5.42382 0.87593,-4.90877 0.19585,-1.09805 0.51917,0.98579 c 1.38033,2.62082 3.18494,4.87686 5.34543,6.82521 1.78919,1.61353 3.82397,3.01731 6.06502,4.24282 -1.05028,-1.48933 -1.97854,-3.02078 -2.69139,-4.62606 -0.93259,-2.10013 -1.49498,-4.32273 -1.47934,-6.73532 l 0.0117,-1.81091 0.7198,1.6613 c 1.86997,4.31686 4.72421,7.29574 8.17166,9.46601 3.09808,1.95053 6.68559,3.25377 10.4748,4.28994 -16.5377,-16.9963 -16.6143,-37.730295 -16.6877,-58.464895 l -0.008,-2.13574 -46.2083,-22.379 c -1.88821,0.794063 -20.1019,8.45763 -24.1869,10.3163 4.93765,-3.06291 23.985,-11.0589 24.0508,-11.0867 l 0.15981,-0.0671 0.15439,0.07448 46.577,22.5575 0.21431,0.104008 0.001,0.238632 0.009,2.37459 0,0.0015 c 0.0743,20.9824 0.14874,41.965505 17.4557,58.923705 l 1.01511,0.99469 -1.37707,-0.35132 c -4.35182,-1.11043 -8.49954,-2.50878 -12.0508,-4.7444 -3.08462,-1.94184 -5.71131,-4.51098 -7.61927,-8.06158 0.20128,1.58292 0.65944,3.08375 1.29977,4.52597 0.89785,2.02218 2.1568,3.93471 3.57339,5.79859 l 0.98341,1.29391 -1.45633,-0.72089 c -2.87965,-1.42571 -5.46377,-3.11024 -7.68311,-5.11158 -1.96138,-1.76857 -3.63853,-3.78553 -4.98412,-6.08999 l -0.77539,4.34509 -0.0886,0.49594 -0.45294,-0.21605 -11.7761,-5.61989 c -5.38995,-0.96539 -10.5651,-1.15234 -15.3352,0.12224 -4.76872,1.27415 -9.14421,4.0157 -12.9413,8.91036 l -0.27793,0.35806 -0.30551,-0.33265 -3.63593,-3.95968 c -0.78212,2.6345 -2.01523,4.87121 -3.63245,6.76789 -1.74881,2.05128 -3.94578,3.70215 -6.50537,5.02733 l -0.93064,0.48161 0.40257,-0.96778 c 1.12281,-2.70116 1.72905,-5.40254 1.89972,-8.1024 0.13636,-2.15897 -0.005,-4.31947 -0.38325,-6.48062 -1.27523,4.64843 -3.04141,7.99687 -5.07358,10.6381 -2.26081,2.93806 -4.83799,4.98716 -7.43492,6.98003 l -0.69483,0.53307 0.083,-0.87266 c 0.92217,-9.7155 1.36795,-19.3819 1.05202,-28.968207 -0.31594,-9.57935 -1.39314,-19.0808 -3.51694,-28.4742 l -0.0304,-0.133538 0.0634,-0.123767 c 0.0287,-0.05624 10.0807,-19.6922 9.00763,-19.9087 -0.30942,-0.06253 -0.24493,-0.260345 0.11269,-0.562814 l 0.0371,-0.185433 c -0.0391,-0.0078 0.25796,-0.154383 0.8097,-0.405391 -0.27663,0.171537 -0.50962,0.328091 -0.69179,0.466406 1.42093,1.20923 -7.69158,19.1691 -8.53319,20.8196 z m 8.37816,-20.6952 c 0.0471,-0.03974 0.0982,-0.08121 0.15503,-0.124418 -0.0339,-0.02888 -0.0717,-0.05168 -0.1179,-0.06102 l -0.0371,0.185433 z"
       id="path122"
       inkscape:connector-curvature="0"
       style="fill:#23201d;fill-rule:nonzero" /><path
       class="fil4"
       d="m 162.357,55.6982 c 0.36131,2.89593 0.72284,5.79165 1.08437,8.68758 -2.13574,7.90524 -1.14604,14.7483 3.61465,20.3097 0.32136,2.54352 0.64272,5.08704 0.96386,7.63078 0.59669,2.52767 4.76916,3.30697 6.72511,3.47764 4.14402,0.361964 2.80647,6.6033 2.67315,6.03158 -3.61617,3.75448 -2.49988,6.29562 3.44593,6.33752 5.22731,7.8388 9.39783,17.6774 11.7359,25.8293 8.50974,4.31925 15.7892,2.64623 22.0496,-3.9916 1.20488,-16.4356 2.40998,-32.8712 3.61487,-49.3068 7.89916,2.00242 8.11933,-18.4971 -0.24102,-16.6703 -6.90815,-12.4051 -13.8163,-24.8101 -20.7245,-37.215 -5.14089,-0.665302 -10.2818,-1.3306 -15.4227,-1.99569 -4.89987,2.73916 -9.79996,5.47854 -14.6998,8.2177 -1.60658,7.55261 -3.21295,15.1052 -4.81953,22.6576 z"
       id="path124"
       inkscape:connector-curvature="0"
       style="fill:#ffe100" /><path
       class="fil5"
       d="m 181.502,108.446 c 2.57023,-0.85573 3.42661,-0.84618 5.4362,-2.25538 5.27269,9.97063 7.5993,18.6298 9.56241,28.9326 -1.96703,-0.5652 -1.93337,-0.55543 -3.9004,-1.12063 -2.31054,-9.03282 -5.87351,-17.6025 -11.0982,-25.5566 z"
       id="path126"
       inkscape:connector-curvature="0"
       style="fill:#ffff66" /><path
       class="fil3"
       d="m 162.745,55.7138 1.07656,8.62548 0.009,0.07317 -0.0193,0.07209 c -1.05354,3.90083 -1.33734,7.53437 -0.77148,10.8722 0.56368,3.32477 1.97332,6.36401 4.30688,9.09036 l 0.0736,0.08599 0.0145,0.114647 0.96018,7.59908 c 0.21149,0.881786 0.94692,1.53341 1.86736,2.00959 1.46132,0.755847 3.37471,1.06657 4.51598,1.16602 2.27167,0.198244 3.07051,1.94271 3.2757,3.59967 0.0949,0.765401 0.0584,1.515603 -0.0148,2.067133 -0.0617,0.46488 -0.20736,0.80079 -0.3726,0.9847 l 0.0274,0.0263 c -0.94541,0.98167 -1.551,1.86801 -1.81373,2.63342 -0.18848,0.54913 -0.19434,1.02683 -0.0172,1.42137 0.17957,0.39953 0.55587,0.73695 1.12889,1.00121 0.86919,0.40061 2.15963,0.62318 3.87391,0.63533 l 0.20367,10e-4 0.11205,0.16784 c 2.49923,3.74775 4.75635,7.94563 6.68733,12.196 2.10382,4.63062 3.82505,9.32921 5.05317,13.5798 4.1184,2.05931 7.9352,2.68661 11.4747,2.00329 3.54734,-0.68506 6.83389,-2.69052 9.88182,-5.89261 l 3.60466,-49.169997 0.0332,-0.455984 0.441,0.111825 c 1.88365,0.477263 3.29285,-0.477046 4.20699,-2.10925 0.83792,-1.49584 1.27306,-3.54495 1.29478,-5.61729 0.0215,-2.07538 -0.3713,-4.16465 -1.18838,-5.73888 l -6.5e-4,2.17e-4 c -0.93998,-1.80939 -2.45797,-2.92068 -4.5657,-2.46036 l -0.27598,0.06036 -0.13853,-0.249054 -20.6309,-37.0467 -15.1059,-1.95465 -14.4384,8.07157 -4.76981,22.4248 z m 0.30746,8.64589 -1.07525,-8.61484 0.37999,-0.04647 -0.37412,-0.07925 4.81953,-22.6578 0.0358,-0.168931 0.15287,-0.08555 14.6998,-8.2177 0.10878,-0.0608 0.12442,0.01607 15.4227,1.99569 0.19216,0.02497 0.0938,0.168063 20.5894,36.9725 c 2.36894,-0.397357 4.07063,0.875923 5.127,2.90918 l 0,0.0015 c 0.87483,1.68475 1.29543,3.90344 1.27285,6.09629 -0.0228,2.1961 -0.49029,4.37831 -1.39032,5.98511 -1.01142,1.80591 -2.55416,2.9057 -4.6176,2.56958 l -3.58273,48.870598 -0.01,0.13614 -0.0932,0.0988 c -3.18602,3.37797 -6.63999,5.49439 -10.388,6.21832 -3.74971,0.72393 -7.77887,0.0517 -12.1122,-2.14768 l -0.15026,-0.0762 -0.0458,-0.16025 c -1.22139,-4.25889 -2.94587,-8.98136 -5.06077,-13.6359 -1.88821,-4.15597 -4.08627,-8.25526 -6.51362,-11.919 -1.7297,-0.0293 -3.05813,-0.27402 -3.98595,-0.70156 -0.74629,-0.34416 -1.24874,-0.811 -1.50627,-1.38424 -0.25969,-0.57802 -0.26273,-1.24397 -0.01,-1.98114 0.29813,-0.86833 0.96169,-1.84977 1.98744,-2.91482 l 0.28293,-0.29379 c -0.0827,-0.1027 -0.15373,-0.21236 -0.14396,-0.28596 0.066,-0.49681 0.0986,-1.176003 0.0117,-1.875613 -0.16741,-1.3521 -0.80079,-2.77412 -2.58174,-2.92959 -1.20249,-0.104876 -3.22663,-0.436225 -4.79999,-1.24983 -1.10587,-0.571934 -1.99547,-1.38293 -2.2645,-2.52268 l -0.002,-0.0085 -0.004,-0.03062 -0.94975,-7.51678 c -2.38262,-2.81277 -3.82527,-5.94711 -4.40632,-9.37481 -0.58127,-3.429 -0.29878,-7.14548 0.76671,-11.1225 z"
       id="path128"
       inkscape:connector-curvature="0"
       style="fill:#23201d;fill-rule:nonzero" /><path
       class="fil7"
       d="m 189.117,66.1472 c 5.52479,-7.74869 11.6767,-8.01641 18.4563,-0.804051 -6.2663,3.24356 -12.4186,3.51151 -18.4563,0.804051 z"
       id="path130"
       inkscape:connector-curvature="0"
       style="fill:#ffffff" /><path
       class="fil5"
       d="m 162.981,67.5772 c 1.50583,0.714809 3.01188,1.42983 4.51793,2.14486 -1.31258,4.83799 -0.12268,9.5863 3.29915,14.2554 -0.52395,4.49882 -0.10444,8.54818 2.92416,11.3557 -1.84891,-0.09967 -3.69716,-0.266425 -5.5287,-2.50639 -0.25318,-2.72635 -0.50614,-5.4527 -0.7591,-8.17905 -4.91203,-5.05165 -5.63466,-10.8839 -4.45344,-17.0705 z"
       id="path132"
       inkscape:connector-curvature="0"
       style="fill:#ffff66" /><path
       class="fil3"
       d="m 188.806,65.9257 c 2.83448,-3.97553 5.85244,-6.03332 9.05236,-6.1725 3.19297,-0.138966 6.52404,1.63742 9.99365,5.32828 l 0.34633,0.368695 -0.44969,0.232769 c -3.18233,1.64697 -6.34013,2.53918 -9.47252,2.67554 -3.1363,0.136578 -6.24133,-0.484429 -9.31466,-1.86259 l -0.42602,-0.190862 0.27055,-0.379335 z m 9.08537,-5.40949 c -2.85033,0.124201 -5.57929,1.94792 -8.186,5.47094 2.82254,1.19707 5.66875,1.73317 8.53775,1.60832 2.87009,-0.124853 5.77015,-0.912185 8.69822,-2.36048 -3.17973,-3.26962 -6.1966,-4.84298 -9.04998,-4.71878 z"
       id="path134"
       inkscape:connector-curvature="0"
       style="fill:#23201d;fill-rule:nonzero" /><polygon
       class="fil5"
       points="167.185,47.5804 168.148,61.6101 163.234,66.9862 162.48,56.6903 "
       id="polygon136"
       style="fill:#ffff66" /><path
       class="fil7"
       d="m 162.981,67.5772 c 3.07246,-7.57281 9.57935,-7.78212 15.9349,-0.569763 -5.87416,3.24378 -10.9013,3.4531 -15.9349,0.569763 z"
       id="path138"
       inkscape:connector-curvature="0"
       style="fill:#ffffff" /><path
       class="fil3"
       d="m 162.626,67.4335 c 0.76931,-1.89646 1.75358,-3.34996 2.8981,-4.35834 1.04681,-0.92239 2.22716,-1.47304 3.50022,-1.65044 1.2646,-0.176314 2.61322,0.01781 4.00549,0.582574 2.0009,0.812085 4.09951,2.39413 6.17294,4.74744 l 0.31485,0.357404 -0.41799,0.230815 c -2.98843,1.65001 -5.76993,2.52919 -8.45329,2.62864 -2.69443,0.09988 -5.27682,-0.584962 -7.85573,-2.06213 l -0.29031,-0.166108 0.12572,-0.309852 z m 3.40403,-3.7838 c -0.99405,0.875923 -1.86324,2.12988 -2.56502,3.76035 2.3557,1.29195 4.71053,1.88929 7.15439,1.79853 2.43105,-0.09011 4.96414,-0.861375 7.68724,-2.30619 -1.88647,-2.0643 -3.77381,-3.45918 -5.56431,-4.18593 -1.2672,-0.514176 -2.48381,-0.692227 -3.61335,-0.534804 -1.12107,0.156337 -2.16614,0.646194 -3.09895,1.46805 z"
       id="path140"
       inkscape:connector-curvature="0"
       style="fill:#23201d;fill-rule:nonzero" /><ellipse
       class="fil8"
       cx="173.58701"
       cy="66.060204"
       rx="1.53363"
       ry="1.40636"
       id="ellipse142"
       d="m 175.12064,66.060204 c 0,0.776711 -0.68663,1.40636 -1.53363,1.40636 -0.847,0 -1.53363,-0.629649 -1.53363,-1.40636 0,-0.776712 0.68663,-1.40636 1.53363,-1.40636 0.847,0 1.53363,0.629648 1.53363,1.40636 z"
       sodipodi:cx="173.58701"
       sodipodi:cy="66.060204"
       sodipodi:rx="1.53363"
       sodipodi:ry="1.40636"
       style="fill:#000000" /><ellipse
       class="fil8"
       cx="199.172"
       cy="64.373802"
       rx="1.6496201"
       ry="1.51273"
       id="ellipse144"
       d="m 200.82162,64.373802 c 0,0.835458 -0.73856,1.51273 -1.64962,1.51273 -0.91106,0 -1.64962,-0.677272 -1.64962,-1.51273 0,-0.835458 0.73856,-1.51273 1.64962,-1.51273 0.91106,0 1.64962,0.677272 1.64962,1.51273 z"
       sodipodi:cx="199.172"
       sodipodi:cy="64.373802"
       sodipodi:rx="1.6496201"
       sodipodi:ry="1.51273"
       style="fill:#000000" /><polygon
       class="fil3"
       points="165.947,63.3763 161.343,61.4573 161.636,60.7512 166.24,62.6702 "
       id="polygon146"
       style="fill:#23201d;fill-rule:nonzero" /><polygon
       class="fil3"
       points="164.779,65.0031 158.593,64.0008 158.713,63.2469 164.899,64.2492 "
       id="polygon148"
       style="fill:#23201d;fill-rule:nonzero" /><polygon
       class="fil3"
       points="163.019,66.8461 158.93,66.7595 158.945,65.9965 163.034,66.0831 "
       id="polygon150"
       style="fill:#23201d;fill-rule:nonzero" /><line
       class="fil14"
       x1="201.963"
       y1="60.815601"
       x2="206.57899"
       y2="57.454601"
       id="line152"
       style="fill:none" /><polygon
       class="fil3"
       points="201.738,60.6333 205.414,57.9573 205.771,58.4478 202.096,61.1238 "
       id="polygon154"
       style="fill:#23201d;fill-rule:nonzero" /><path
       class="fil5"
       d="m 179.431,68.1227 c -1.28739,3.12761 -2.57479,6.25523 -3.86218,9.38284 -3.33194,4.11102 -1.57097,6.27477 3.67414,7.1064 1.15386,-0.374341 2.30793,-0.748465 3.462,-1.12259 1.70017,-0.0013 3.40034,-0.0024 5.1005,-0.0035 -12.5337,-1.9375 -10.127,-2.46883 -8.37447,-15.3632 z"
       id="path156"
       inkscape:connector-curvature="0"
       style="fill:#ffff66" /><polygon
       class="fil3"
       points="206.878,63.9202 210.48,63.1657 210.635,63.9139 207.033,64.6685 "
       id="polygon158"
       style="fill:#23201d;fill-rule:nonzero" /><polygon
       class="fil3"
       points="204.769,62.3282 207.846,60.3093 208.264,60.949 205.187,62.9679 "
       id="polygon160"
       style="fill:#23201d;fill-rule:nonzero" /><path
       class="fil3"
       d="m 178.468,62.2066 c 1.05615,2.71636 1.24266,5.19452 0.70721,7.67421 -0.53111,2.45927 -1.77204,4.90856 -3.5773,7.58866 l -0.01,0.01411 -0.0189,0.02193 c -1.11477,1.29195 -1.67455,2.42649 -1.7614,3.38427 -0.04,0.441219 0.0224,0.846176 0.17762,1.21075 0.15656,0.367393 0.4106,0.700261 0.75194,0.994913 0.9276,0.800577 2.48446,1.320179 4.50599,1.51647 2.61908,-1.26438 3.50586,-1.19815 5.09573,-1.07981 0.67529,0.05038 1.48434,0.110522 2.61756,0.07231 1.21726,-0.04126 1.90601,-0.510268 2.17939,-1.31345 0.30073,-0.883523 0.15764,-2.17396 -0.30594,-3.756871 l 0.73305,-0.212357 c 0.50679,1.73013 0.65205,3.172129 0.29725,4.21459 -0.38215,1.123239 -1.29413,1.777469 -2.87986,1.8311 -1.1886,0.04017 -2.01154,-0.02128 -2.69834,-0.07231 -1.47565,-0.110088 -2.29012,-0.170668 -4.79825,1.05115 l -0.0938,0.0456 -0.10813,-0.0098 c -2.23432,-0.202587 -3.97857,-0.789069 -5.04448,-1.70907 -0.4295,-0.370867 -0.75194,-0.796452 -0.95518,-1.27328 -0.20432,-0.479217 -0.2864,-1.00686 -0.23451,-1.57857 0.10032,-1.10869 0.71264,-2.38241 1.92425,-3.79248 1.74794,-2.59694 2.94718,-4.95893 3.45462,-7.30942 0.50397,-2.33399 0.32679,-4.67079 -0.67116,-7.23733 l 0.7122,-0.275327 z"
       id="path162"
       inkscape:connector-curvature="0"
       style="fill:#23201d;fill-rule:nonzero" /><path
       class="fil8"
       d="m 187.179,50.5152 c 0.34068,0.898505 0.68159,1.79679 1.02227,2.69552 6.61068,-1.90732 13.8376,-0.711118 21.4106,2.22672 -7.47792,-4.39482 -14.9556,-6.93682 -22.4329,-4.92224 z"
       id="path164"
       inkscape:connector-curvature="0"
       style="fill:#000000" /><path
       class="fil3"
       d="m 187.688,50.779 0.74716,1.97028 c 3.25572,-0.885477 6.65107,-1.04095 10.1556,-0.622092 2.19567,0.262299 4.43564,0.750636 6.71208,1.42571 -2.33464,-1.12975 -4.66775,-2.02739 -6.99848,-2.6091 -3.54147,-0.88374 -7.08121,-1.03747 -10.6164,-0.164806 z m 0.1559,2.56632 -1.02227,-2.69552 -0.1496,-0.3941 0.40843,-0.110088 c 3.80529,-1.0251 7.60733,-0.891991 11.4063,0.05602 3.77728,0.942584 7.54979,2.69204 11.3184,4.90682 l 4.07302,2.39392 -4.40372,-1.70864 c -3.75622,-1.45719 -7.42581,-2.48272 -10.9736,-2.90657 -3.53301,-0.422328 -6.94311,-0.247968 -10.1947,0.690056 l -0.33743,0.09749 -0.12485,-0.329394 z"
       id="path166"
       inkscape:connector-curvature="0"
       style="fill:#23201d;fill-rule:nonzero" /><path
       class="fil8"
       d="m 162.619,58.2354 c 2.8486,-1.80331 5.87285,-3.29872 9.52442,-3.69434 0.02,-0.91783 0.04,-1.83588 0.0602,-2.75393 -3.1667,0.187388 -6.41352,1.4687 -9.74025,3.84373 -0.0354,0.167411 -0.071,0.334605 -0.10662,0.501582 0.0875,0.701129 0.17501,1.40204 0.2623,2.10295 z"
       id="path168"
       inkscape:connector-curvature="0"
       style="fill:#000000" /><path
       class="fil3"
       d="m 162.925,57.5947 c 1.2811,-0.787115 2.6041,-1.50583 4.01005,-2.08732 1.5041,-0.621875 3.09982,-1.08546 4.83408,-1.30672 l 0.0436,-2.00155 c -1.4079,0.126373 -2.8347,0.475309 -4.27973,1.04551 -1.5549,0.613624 -3.13065,1.48412 -4.72638,2.61105 l -0.0621,0.292481 0.18044,1.44655 z m 4.30014,-1.3812 c -1.54383,0.638594 -2.99429,1.45329 -4.40263,2.34506 l -0.20346,-0.323097 -0.37998,0.04647 -0.2623,-2.10274 -0.008,-0.06167 0.0137,-0.06406 0.10661,-0.501799 0.0306,-0.144829 0.12203,-0.08707 c 1.68931,-1.20597 3.3606,-2.13531 5.01278,-2.78736 1.65978,-0.65488 3.30263,-1.03096 4.92636,-1.12693 l 0.41277,-0.02432 -0.009,0.413208 -0.0599,2.75436 -0.007,0.336559 -0.33374,0.03605 c -1.78702,0.193467 -3.42205,0.656834 -4.95872,1.29217 z"
       id="path170"
       inkscape:connector-curvature="0"
       style="fill:#23201d;fill-rule:nonzero" /><path
       class="fil7"
       d="m 173.098,95.5727 c 1.94705,3.17148 3.8941,6.34295 5.84115,9.51486 7.67812,-0.42103 15.1256,-1.29955 21.05,-6.56313 3.82636,-3.49761 0.30855,-9.88529 -5.53326,-6.62154 -6.35511,2.93632 -13.3992,4.3275 -21.3578,3.6698 z"
       id="path172"
       inkscape:connector-curvature="0"
       style="fill:#ffffff" /><path
       class="fil6"
       d="m 214.244,65.6884 c 0.42667,22.5419 -0.74695,45.0838 -4.04631,67.6257 1.36035,-1.15559 2.7207,-2.31119 4.08084,-3.46678 1.28609,-16.5236 2.57218,-33.0469 3.85827,-49.5702 2.46036,0.362833 4.87012,0.441653 5.71652,-8.28609 -0.15134,-2.3088 -0.57193,-4.0652 -1.26112,-5.26878 -1.54209,-0.761493 -3.08397,-1.52299 -4.62585,-2.28448 -0.78429,0.647931 -1.56837,1.29565 -2.35244,1.94358 -0.45664,-0.231032 -0.91327,-0.462064 -1.36991,-0.692878 z"
       id="path174"
       inkscape:connector-curvature="0"
       style="fill:#d1b204" /><path
       class="fil3"
       d="m 173.815,96.01 5.33045,8.68345 c 3.74059,-0.20953 7.42125,-0.53763 10.8806,-1.44091 3.50652,-0.91566 6.79676,-2.42649 9.70876,-5.01387 l 8.7e-4,8.69e-4 c 1.181,-1.08155 1.60137,-2.45732 1.43505,-3.69303 -0.0825,-0.613407 -0.31007,-1.19337 -0.66009,-1.6841 -0.34807,-0.48812 -0.81838,-0.889603 -1.38858,-1.14973 -1.13649,-0.518302 -2.68227,-0.48052 -4.4808,0.523947 l -0.0254,0.01346 c -3.20687,1.48151 -6.58831,2.57392 -10.1719,3.2123 -3.358,0.598207 -6.89339,0.798189 -10.629,0.547615 z m 4.79804,9.27645 -5.84094,-9.51508 -0.39453,-0.64272 0.75215,0.06232 c 3.94578,0.326137 7.66444,0.144178 11.1827,-0.482474 3.51455,-0.626001 6.83172,-1.69735 9.97758,-3.14998 2.02891,-1.12715 3.81181,-1.15016 5.14914,-0.540232 0.69657,0.317669 1.27002,0.806657 1.69387,1.40117 0.42168,0.591476 0.69549,1.2887 0.79472,2.02544 0.19759,1.46675 -0.29422,3.09287 -1.68128,4.36073 l -0.003,0.0046 c -3.01188,2.675966 -6.40853,4.236956 -10.0258,5.181496 -3.59489,0.93868 -7.39845,1.2659 -11.2576,1.47739 l -0.22734,0.0124 -0.11965,-0.19499 z"
       id="path176"
       inkscape:connector-curvature="0"
       style="fill:#23201d;fill-rule:nonzero" /><path
       class="fil15"
       d="m 170.094,94.5999 c 4.00636,-1.99525 4.64083,-2.83014 8.90536,-1.58378 3.44203,-2.95912 8.14517,-0.44795 13.1964,-0.146566 -7.25383,2.90983 -15.7621,3.5139 -22.1018,1.73035 z"
       id="path178"
       inkscape:connector-curvature="0"
       style="fill:#ff6666" /><path
       class="fil3"
       d="m 169.923,94.2573 c 0.55565,-0.27663 0.99057,-0.501365 1.38489,-0.705038 2.89007,-1.49324 3.89975,-2.01393 7.60255,-0.958652 2.50683,-2.02283 5.54281,-1.42636 8.87757,-0.77083 1.43396,0.281841 2.92611,0.575625 4.42977,0.665085 l 1.70169,0.101185 -1.58183,0.634903 c -3.63962,1.46023 -7.59126,2.34571 -11.4298,2.64623 -3.89606,0.305075 -7.68268,0.0076 -10.9173,-0.902197 l -0.95518,-0.268813 0.88765,-0.44187 z m 1.73491,-0.02584 -0.48703,0.251225 c 2.92394,0.686798 6.25545,0.892643 9.6801,0.624481 3.2351,-0.25318 6.55053,-0.929338 9.68141,-2.0224 -0.9871,-0.136361 -1.95139,-0.326137 -2.89115,-0.510702 -3.21599,-0.63208 -6.13819,-1.20662 -8.39379,0.732614 l -0.15634,0.13419 -0.19824,-0.05798 c -3.571,-1.04377 -4.49643,-0.566071 -7.23494,0.848564 z"
       id="path180"
       inkscape:connector-curvature="0"
       style="fill:#23201d;fill-rule:nonzero" /><path
       class="fil15"
       d="m 177.21,102.141 c -4.61499,4.7038 0.14483,6.75269 5.53912,5.73997 3.41901,-0.64207 4.71031,-2.30163 9.41411,-4.86991 -3.73798,1.27849 -10.1739,1.87496 -13.4767,1.49541 -0.49225,-0.78863 -0.98427,-1.57705 -1.47652,-2.36547 z"
       id="path182"
       inkscape:connector-curvature="0"
       style="fill:#ff6666" /><path
       class="fil3"
       d="m 177.148,102.763 c -0.80709,0.89177 -1.24093,1.66282 -1.3749,2.31249 -0.11117,0.53893 -0.007,0.99187 0.26208,1.35644 0.28771,0.38932 0.76605,0.69614 1.37903,0.91609 1.328,0.47662 3.24508,0.53611 5.26466,0.15699 2.15138,-0.40387 3.45006,-1.23637 5.36194,-2.46188 0.45056,-0.28879 0.93433,-0.59886 1.47131,-0.93064 -1.24701,0.26165 -2.59607,0.46966 -3.93601,0.61819 -2.60953,0.28944 -5.19452,0.35501 -6.93291,0.15525 l -0.18326,-0.0211 -0.0979,-0.15698 -1.214,-1.94488 z m -2.12315,2.16006 c 0.18022,-0.87397 0.77951,-1.8945 1.91318,-3.0501 l 0.27229,0.26773 0.32461,-0.20194 1.37729,2.20674 c 1.68106,0.16893 4.11493,0.0988 6.58006,-0.17479 2.37546,-0.26339 4.77393,-0.71525 6.54814,-1.32214 l 4.23783,-1.44981 -3.93253,2.14725 c -1.62547,0.88743 -2.84881,1.67172 -3.89193,2.34028 -1.98679,1.2735 -3.3365,2.13856 -5.63422,2.57001 -2.14768,0.40322 -4.21003,0.33156 -5.66288,-0.19 -0.75411,-0.27055 -1.35449,-0.66486 -1.73513,-1.1797 -0.39866,-0.53936 -0.55499,-1.19576 -0.3967,-1.96355 z"
       id="path184"
       inkscape:connector-curvature="0"
       style="fill:#23201d;fill-rule:nonzero" /><path
       class="fil8"
       d="m 184.647,31.0449 c -5.08987,-4.85818 -9.56936,-3.32087 -13.3744,5.2829 -5.37431,14.37 -11.2129,26.839 -18.194,34.6322 -1.76987,-12.8283 1.40812,-25.835 8.31367,-38.976 6.58679,-10.5953 14.6998,-13.1973 23.8573,-10.3309 4.81649,-3.24139 9.63277,-4.25845 14.4493,-3.79661 17.474,1.67628 26.274,13.1712 31.208,28.1529 2.13748,6.49082 3.09656,13.105 2.29772,19.9024 -3.4455,0.173708 -6.891,0.347199 -10.3363,0.520907 -1.61527,-0.799709 -3.23032,-1.59942 -4.84537,-2.39913 -0.8034,0.782555 -1.60658,1.56533 -2.40977,2.34788 -6.66779,-5.59536 -10.6839,-13.344 -13.4949,-22.0707 -4.19592,-10.4601 -8.61353,-18.762 -14.0975,-16.6703 -1.12454,1.13475 -2.24909,2.2695 -3.37363,3.40446 z"
       id="path186"
       inkscape:connector-curvature="0"
       style="fill:#000000" /><path
       class="fil3"
       d="m 184.384,31.3217 c -2.42953,-2.31879 -4.68903,-3.12067 -6.76941,-2.32595 -2.13292,0.814691 -4.13273,3.28287 -5.99163,7.48617 l -2.2e-4,-2.17e-4 c -2.69161,7.19521 -5.49808,13.9125 -8.50301,19.8019 -3.01666,5.91259 -6.24046,11.0053 -9.75675,14.9306 l -0.55,0.614058 -0.11269,-0.817514 c -0.89113,-6.45869 -0.53654,-12.9621 0.90958,-19.5037 1.44438,-6.53316 3.97726,-13.1024 7.4447,-19.7011 l 0.0135,-0.02388 c 3.33845,-5.3704 7.07513,-8.7195 11.1455,-10.3662 l 0.002,0 c 4.03242,-1.63112 8.37686,-1.58791 12.9743,-0.181308 2.3963,-1.58965 4.79434,-2.64058 7.19238,-3.23944 2.45059,-0.612104 4.90183,-0.753459 7.35328,-0.518302 8.83349,0.847261 15.4785,4.17985 20.5399,9.19611 5.04883,5.00345 8.51148,11.6741 10.9957,19.2169 1.07656,3.26875 1.85651,6.56964 2.26667,9.9094 0.41038,3.3428 0.45055,6.7262 0.0478,10.1561 l -0.038,0.321794 -0.32397,0.01628 -10.3367,0.52069 -0.0988,0.005 -0.0884,-0.04386 -4.60327,-2.27927 -2.21608,2.15919 -0.24775,0.241237 -0.26403,-0.221695 c -3.3682,-2.82645 -6.06676,-6.1966 -8.27763,-9.96129 -2.20132,-3.74862 -3.91734,-7.88722 -5.32958,-12.2684 -2.08667,-5.20082 -4.22545,-9.86098 -6.51492,-12.9489 -2.18655,-2.94891 -4.49817,-4.43933 -7.01499,-3.52541 l -3.31283,3.34345 -0.27077,-0.269248 -0.26339,0.276847 z m -7.04169,-3.04119 c 2.30076,-0.878963 4.73485,-0.10835 7.29487,2.23215 l 3.11307,-3.14173 0.0588,-0.0595 0.0758,-0.02888 c 2.93806,-1.1202 5.55388,0.493765 7.97472,3.75883 2.33789,3.15324 4.50534,7.87137 6.6135,13.1269 l 0.009,0.02562 c 1.39748,4.33836 3.09352,8.43244 5.26683,12.1333 2.10882,3.5912 4.66993,6.81566 7.84705,9.53766 l 2.16093,-2.10534 0.19346,-0.188473 0.24211,0.119641 4.75656,2.35526 9.91265,-0.499194 c 0.3561,-3.25659 0.30616,-6.47345 -0.0842,-9.6547 -0.40387,-3.28895 -1.17253,-6.5412 -2.23367,-9.76305 -2.44972,-7.43796 -5.85483,-14.0067 -10.8073,-18.9146 -4.93982,-4.89553 -11.4328,-8.14887 -20.0731,-8.97767 -2.36482,-0.226689 -4.73072,-0.09033 -7.09619,0.500497 -2.36699,0.591042 -4.73572,1.63872 -7.10488,3.23314 l -0.15199,0.102488 -0.17415,-0.05472 c -4.49426,-1.4066 -8.72688,-1.47435 -12.6353,0.106396 l 2.2e-4,4.34e-4 c -3.91907,1.58574 -7.53177,4.83256 -10.7779,10.0516 -3.43356,6.53664 -5.9406,13.0377 -7.36805,19.495 -1.36426,6.17142 -1.74403,12.3072 -1.00599,18.402 3.25095,-3.77859 6.25762,-8.58922 9.08841,-14.137 2.99994,-5.8798 5.79773,-12.5756 8.47782,-19.7419 l 0.008,-0.02106 c 1.94597,-4.40024 4.08931,-7.00326 6.41938,-7.89308 z"
       id="path188"
       inkscape:connector-curvature="0"
       style="fill:#23201d;fill-rule:nonzero" /><polygon
       class="fil3"
       points="181.612,95.2748 186.452,104.245 185.778,104.607 180.939,95.637 "
       id="polygon190"
       style="fill:#23201d;fill-rule:nonzero" /><polygon
       class="fil3"
       points="188.348,94.0634 193.478,102.453 192.826,102.85 187.696,94.4612 "
       id="polygon192"
       style="fill:#23201d;fill-rule:nonzero" /><polygon
       class="fil3"
       points="194.781,91.701 199.397,99.0931 198.747,99.497 194.131,92.1048 "
       id="polygon194"
       style="fill:#23201d;fill-rule:nonzero" /><path
       class="fil3"
       d="m 198.391,136.368 c -3.67588,1.79614 -6.61329,5.48657 -8.97463,9.76587 -2.38176,4.31665 -4.17594,9.22933 -5.55345,13.4211 l -0.33157,1.00859 -0.38802,-0.98753 c -1.38966,-3.53626 -2.61344,-8.04095 -3.837,-12.5454 -1.21965,-4.49014 -2.43973,-8.98093 -3.81094,-12.4696 l 0.71221,-0.27837 c 1.38988,3.5367 2.61409,8.04225 3.83786,12.5474 1.10565,4.07085 2.21174,8.1417 3.4303,11.4663 1.3419,-3.9916 3.0527,-8.51213 5.27009,-12.5307 2.42974,-4.40372 5.47115,-8.21031 9.30989,-10.0859 l 0.33525,0.68832 z"
       id="path196"
       inkscape:connector-curvature="0"
       style="fill:#23201d;fill-rule:nonzero" /><path
       class="fil3"
       d="m 207.352,134.96 c 3.15063,1.64502 5.68047,4.19136 7.96039,8.28414 2.18829,3.92819 4.14858,9.28882 6.21441,16.6636 2.41758,-2.97823 4.42044,-7.29444 6.07132,-12.4245 2.04346,-6.35033 3.54495,-13.9405 4.62585,-21.7878 l 0.75693,0.10162 c -1.08633,7.88809 -2.59737,15.5226 -4.65581,21.9194 -1.78615,5.55106 -3.98747,10.1773 -6.68516,13.2435 l -0.46706,0.53046 -0.18825,-0.68159 c -2.12163,-7.67746 -4.11449,-13.1992 -6.3397,-17.1938 -2.20197,-3.95273 -4.63128,-6.40484 -7.64598,-7.97885 l 0.35306,-0.67616 z"
       id="path198"
       inkscape:connector-curvature="0"
       style="fill:#23201d;fill-rule:nonzero" /><path
       class="fil3"
       d="m 202.229,136.264 c 1.32496,3.91951 2.26385,8.33994 2.77607,13.3115 0.51114,4.96414 0.59777,10.4781 0.21931,16.5933 l -0.76302,-0.0447 c 0.37608,-6.07566 0.29053,-11.549 -0.21626,-16.4708 -0.50636,-4.91377 -1.43309,-9.27949 -2.74046,-13.1469 l 0.72436,-0.24232 z"
       id="path200"
       inkscape:connector-curvature="0"
       style="fill:#23201d;fill-rule:nonzero" /><path
       class="fil3"
       d="m 202.12,86.5811 c 1.82176,1.13931 2.94783,2.37806 3.65069,3.63984 0.70395,1.26394 0.97819,2.54092 1.10022,3.76078 l -0.75997,0.0747 c -0.11313,-1.13106 -0.36501,-2.31054 -1.00772,-3.46461 -0.64403,-1.15603 -1.68714,-2.29838 -3.38709,-3.36147 L 202.12,86.581101 z"
       id="path202"
       inkscape:connector-curvature="0"
       style="fill:#23201d;fill-rule:nonzero" /><path
       class="fil3"
       d="m 188.578,67.3605 c 0.85464,0.92847 1.83045,1.66347 2.90853,2.23497 1.08307,0.574105 2.27319,0.985576 3.54842,1.26373 l -0.16155,0.748248 c -1.33929,-0.292264 -2.59433,-0.726968 -3.74298,-1.33582 -1.15429,-0.612104 -2.19958,-1.39922 -3.1148,-2.39348 l 0.56238,-0.51765 z"
       id="path204"
       inkscape:connector-curvature="0"
       style="fill:#23201d;fill-rule:nonzero" /><path
       class="fil3"
       d="m 179.353,68.788 c -0.91522,0.994262 -1.96051,1.78138 -3.1148,2.39348 -1.14864,0.608847 -2.40369,1.04355 -3.74298,1.33582 l -0.16155,-0.748248 c 1.27523,-0.27815 2.46535,-0.689621 3.54842,-1.26373 1.07808,-0.5715 2.05388,-1.3065 2.90853,-2.23497 l 0.56238,0.51765 z"
       id="path206"
       inkscape:connector-curvature="0"
       style="fill:#23201d;fill-rule:nonzero" /><path
       class="fil3"
       d="m 220.013,66.7102 c -1.54883,1.91882 -2.24561,3.80464 -2.32226,5.66484 -0.0771,1.86975 0.46879,3.7306 1.40334,5.58537 l -0.68224,0.343942 c -0.9897,-1.9642 -1.56706,-3.94687 -1.48412,-5.95927 0.0834,-2.02131 0.83076,-4.05782 2.48989,-6.11344 l 0.59539,0.478566 z"
       id="path208"
       inkscape:connector-curvature="0"
       style="fill:#23201d;fill-rule:nonzero" /><path
       class="fil3"
       d="m 216.969,72.4973 c 0.54067,-0.968206 1.16992,-1.7132 1.88734,-2.23389 0.73153,-0.530895 1.55121,-0.828805 2.4584,-0.892425 l 0.0508,0.763013 c -0.75932,0.05342 -1.44634,0.303338 -2.06018,0.748682 -0.62796,0.455767 -1.18447,1.11781 -1.6689,1.98548 L 216.969,72.497293 z"
       id="path210"
       inkscape:connector-curvature="0"
       style="fill:#23201d;fill-rule:nonzero" /><path
       class="fil16"
       d="m 167.087,47.8079 c 3.36755,-5.82899 5.65073,-12.7387 10.7488,-16.8358 2.00242,-1.60962 4.33575,-0.739128 6.67995,0.211273 -2.68835,-2.19632 -4.98868,-2.92546 -6.90099,-2.18764 -3.83786,0.985794 -7.17914,9.96042 -10.5278,18.8122 z"
       id="path212"
       inkscape:connector-curvature="0"
       style="fill:#c4a00e" /><path
       class="fil16"
       d="m 185.161,31.069 c 1.02314,-1.03269 2.0465,-2.06539 3.06986,-3.0983 5.60491,-3.23379 11.0064,10.3235 16.3939,23.9672 -6.59092,-12.0139 -13.2207,-25.8892 -19.4638,-20.8689 z"
       id="path214"
       inkscape:connector-curvature="0"
       style="fill:#c4a00e" /><path
       class="fil11"
       d="M 183.162,21.9055 C 164.0122,18.5627 158.0373,37.9624 153.1791,59.2901 160.17715,40.8364 167.827,23.6851 183.162,21.9055 z"
       id="path216"
       inkscape:connector-curvature="0"
       style="fill:#4d4d4d" /><path
       class="fil12"
       d="m 175.207,136.465 c 0.664,2.04107 1.328,4.08214 1.992,6.12343 -10.3063,2.77238 -15.6177,11.6758 -18.8979,23.0721 -0.90611,-0.0145 -1.81221,-0.0289 -2.71853,-0.0432 1.546,-14.4401 7.92869,-24.3078 19.6245,-29.1523 z"
       id="path218"
       inkscape:connector-curvature="0"
       style="fill:#ff0000" /><path
       class="fil12"
       d="m 186.821,119.71 c -4.74245,2.46123 -8.39097,6.3714 -11.2912,11.2734 2.64861,9.10404 5.29723,18.2083 7.94584,27.3126 -1.64393,-13.2164 -5.65876,-27.2856 4.37223,-36.3017 -0.34242,-0.76149 -0.68463,-1.52299 -1.02683,-2.28426 z"
       id="path220"
       inkscape:connector-curvature="0"
       style="fill:#ff0000" /><path
       class="fil12"
       d="m 216.322,112.43 c -0.096,1.3115 -0.19216,2.62321 -0.28836,3.93492 5.10551,-0.14961 10.0864,1.51278 15.0223,3.8307 -4.88857,-3.27831 -9.79844,-5.91129 -14.7339,-7.76562 z"
       id="path222"
       inkscape:connector-curvature="0"
       style="fill:#ff0000" /><path
       class="fil12"
       d="m 208.076,135.36 c 1.25895,-0.76236 2.51812,-1.52494 3.77728,-2.28752 7.63317,6.60004 9.988,16.007 9.67359,26.8349 -3.53822,-14.1559 -8.07916,-21.9767 -13.4509,-24.5473 z"
       id="path224"
       inkscape:connector-curvature="0"
       style="fill:#ff0000" /></g></svg>